<?xml version="1.0" standalone="no"?>
<!DOCTYPE svg PUBLIC "-//W3C//DTD SVG 1.1//EN" "http://www.w3.org/Graphics/SVG/1.1/DTD/svg11.dtd" >
<svg>
<metadata>
Created by FontForge 20090622 at Tue Jun 12 10:49:04 2018
 By ffonts
2016 Iconian Fonts - www.iconian.com
</metadata>
<defs>
<font id="GovernorEngraved" horiz-adv-x="633" >
  <font-face 
    font-family="Governor Engraved"
    font-weight="400"
    font-stretch="normal"
    units-per-em="1000"
    panose-1="0 0 0 0 0 0 0 0 0 0"
    ascent="800"
    descent="-200"
    x-height="683"
    cap-height="683"
    bbox="-118 -238 1215 917"
    underline-thickness="50"
    underline-position="-75"
    unicode-range="U+0020-U+2122"
  />
<missing-glyph horiz-adv-x="500" 
 />
    <glyph glyph-name=".notdef" horiz-adv-x="500" 
 />
    <glyph glyph-name=".null" horiz-adv-x="0" 
 />
    <glyph glyph-name="nonmarkingreturn" horiz-adv-x="500" 
 />
    <glyph glyph-name="space" unicode=" " horiz-adv-x="282" 
 />
    <glyph glyph-name="space" unicode="&#xa0;" horiz-adv-x="282" 
 />
    <glyph glyph-name="FL0021h" unicode="!" horiz-adv-x="326" 
d="M38 83q0 -35 22.5 -59t60.5 -24t61 24t23 59t-23 59t-61 24t-60.5 -24t-22.5 -59zM34 209h174v446h-174v-446zM224 672v-8l37 -36v-473h-69q11 -11 15 -19h-1l24 -24q28 -28 28 -69q0 -42 -26.5 -69.5t-71.5 -27.5q-41 0 -69 28l-21 22v-1q-23 12 -35.5 35.5t-12.5 52.5
q0 23 8 43t25 34l-29 32h-8v480h206zM7 683v-502h6l23 -25q-25 -32 -25 -73q0 -27 12.5 -51.5t36.5 -41.5l23 -24q5 -5 10 -8.5t10 -7.5l12 -12q30 -30 75 -30q49 0 77.5 29.5t28.5 75.5q0 45 -30 75l-12 11q-2 5 -5.5 9l-7.5 9h58v485l-27 27v4l-10 9v8l-27 27v6h-228z
M72 617h125v-397h-125v397zM76 53q0 32 20 53.5t55 21.5q18 0 32 -7q11 -17 11 -38q0 -30 -20 -51t-53 -21q-22 0 -40 10q-3 8 -4 16t-1 16z" />
    <glyph glyph-name="FL0022h" unicode="&#x22;" horiz-adv-x="486" 
d="M87 651q-20 0 -36 -13t-21 -42q0 -27 2 -52t8 -48.5t18.5 -45.5t33.5 -44l-1 1h34q20 22 32 44t18.5 45t8.5 47.5t2 52.5q-4 23 -20.5 39t-36.5 16h-42zM273 651q-19 0 -35.5 -13t-21.5 -42q0 -28 2 -52.5t8.5 -47.5t18.5 -45t32 -44h34q20 22 32 44t18.5 45t8.5 47.5
t2 52.5q-4 23 -20 39t-37 16h-42zM129 667q20 0 36 -10.5t27 -28.5h-1l11 -12q11 27 29.5 39t41.5 12h42q20 0 36 -10.5t27 -28.5h-1l26 -25q20 -20 23 -44q0 -29 -2 -55.5t-9.5 -51t-21.5 -49t-38 -50.5h-42l-37 37h-4q-15 17 -26 31.5t-19 26.5q-7 -23 -21 -46t-38 -49
h-41l-37 37h-4q-24 26 -38.5 51t-22 50t-10 51.5t-2.5 56.5q6 36 27 52t47 16h42zM87 678q-30 0 -54.5 -18t-30.5 -60q0 -31 2.5 -58.5t11 -54t24.5 -53.5t42 -55h3l37 -37h4l27 -27h48q20 22 33.5 40.5t21.5 36.5q2 -3 5 -6.5t7 -6.5h3l37 -37h4l27 -27h49q25 28 40.5 53.5
t23 51.5t10 53t2.5 57q-3 27 -25 49l-12 12q-3 5 -7 10t-9 10l-23 21q-16 22 -34.5 34t-38.5 12h-42q-22 0 -40.5 -9.5t-32.5 -32.5q-16 20 -34 31t-37 11h-42zM68 565q5 26 18.5 37t30.5 11h42q6 0 9 -1q4 -7 7 -19q0 -51 -10 -92.5t-45 -82.5h-21q-20 34 -25.5 69.5
t-5.5 77.5zM254 565q5 26 19 37t30 11h42q2 0 10 -2q2 -4 3 -8.5t3 -9.5q0 -51 -10 -92.5t-45 -82.5h-20q-21 33 -26.5 68.5t-5.5 78.5z" />
    <glyph glyph-name="FL0023h" unicode="#" horiz-adv-x="733" 
d="M340 295h5v33h-5v-33zM286 382h76v-104h-76v104zM35 540v-158h76v-104h-75v-158h75v-116h175v116h76v-116h175v116h77v158h-77v104h76v158h-76v115h-175v-115h-76v115h-175v-115h-76zM94 557v115h209v-8l37 -36v-71h5v115h209v-8l36 -36v-71h40v-8l37 -37v-184h-77v-33
h41v-8l37 -36v-184h-78v-117h-200l-37 37h-8v80h-5v-117h-201l-37 37h-8v80h-30l-37 36h-8v192h75v33h-31l-37 37h-8v192h76zM706 225l-27 27v4l-10 9v8l-17 17h53v196l-27 27v4l-10 10v8l-27 27v6h-13v34l-27 27v4l-9 9v8l-27 27v6h-231v-26l-20 20v6h-231v-115h-76v-214h6
l27 -27h8l10 -10h4l11 -11h-65v-214h6l27 -27h9l9 -9h3l21 -20v-60h6l27 -27h8l10 -10h4l27 -27h213v34l7 -7h4l27 -27h212v117h78v196zM559 240h44v-109h-77v-116h-126v83l-27 27v6h-98v-116h-126v83l-27 27v6h-48v109h75v120l-27 27v6h-49v109h76v115h126v-88h6l27 -27h92
v115h126v-88h6l27 -27h43v-109h-76v-126h6zM275 267h6l27 -27h92v120l-27 27v6h-98v-126z" />
    <glyph glyph-name="FL0024h" unicode="$" horiz-adv-x="534" 
d="M88 186l-27.5 10t-24.5 8v-144q0 -12 16.5 -22t40.5 -17.5t51.5 -12t49.5 -5.5v-94h62v97q80 14 119.5 71t39.5 140q0 35 -8 61t-21.5 45.5t-31.5 33.5t-37 25q1 -1 -9 4.5t-16 9.5l-25 13t-24.5 15t-19 16.5t-7.5 17.5q0 12 6.5 20.5t16 13t20.5 6.5t20 2q15 0 34 -5.5
t39 -12.5q14 -5 26.5 -9t21.5 -6v150q0 14 -19 22t-44 11.5t-48.5 4.5t-32.5 1v92h-62v-97q-75 -14 -117 -60.5t-42 -134.5q0 -45 12 -76.5t31 -53.5t41 -36t43 -26q25 -15 42 -28t17 -33q0 -26 -16 -32t-36 -6q-22 0 -41.5 6.5t-39.5 14.5zM34 221q12 -2 21 -5.5t19 -6.5
h-1q3 -1 5.5 -2t5.5 -2l10 -3q1 -1 3 -1t3 -1l4.5 -1.5l1.5 -0.5q16 -6 31 -11t32 -5q14 0 24.5 3.5t10.5 17.5l-0.5 0.5t-0.5 1.5h-1v1q-4 2 -8 6v-1q-18 10 -37.5 23t-39.5 33l-12 12v-1q-34 24 -60.5 65.5t-26.5 112.5q0 88 42 139t117 70v100h96v-8l36 -37v-50
q17 -2 34 -5t31.5 -8t25.5 -12.5t15 -17.5h-1l30 -29q10 -10 10 -21v-165q-22 3 -38 7.5t-29 9.5l-9 3l-32 9.5t-28 4.5q-14 0 -28 -4.5t-18 -15.5l27 -14q2 -1 3 -2t3 -2q4 -2 8.5 -5t6.5 -6l2 2q23 -13 42.5 -28.5t33.5 -35.5h-1l20 -19q23 -23 37.5 -55.5t14.5 -83.5
q0 -88 -40.5 -146.5t-119.5 -75.5v-99h-87l-37 36h-8v65q-32 6 -61.5 17t-43.5 25l-26 27v-1q-27 13 -27 35v148zM8 212v-152q0 -24 31 -43l25 -26q8 -8 17 -13l15 -15q10 -10 28.5 -18.5t41.5 -15.5v-48h6l27 -27h8l10 -9h3l28 -27h99v101q79 20 119.5 79t40.5 149
q0 54 -15 87.5t-39 57.5l-6 5q-5 8 -10.5 14l-11.5 13l-18 17q-35 41 -76 65q5 1 9 1.5t8 0.5q9 0 21 -3t26 -8h1l18 -6v1q14 -5 32.5 -10t45.5 -9v174q0 15 -12 27l-18 18q-2 4 -4.5 7t-5.5 7l-33 32l-1 -1q-13 15 -31.5 24t-39.5 14v19l-27 27v4l-9 9v9l-27 27v6h-118
v-103q-75 -23 -117 -76t-42 -141q0 -68 27.5 -113t64.5 -75l10 -9q16 -16 31 -27l1 -1q11 -11 22 -20t22 -17q-3 -1 -7 -1h-9q-12 0 -24.5 4t-26.5 9h-3q-1 0 -1.5 0.5t-1.5 0.5l-1 1l-3 1.5t-4 0.5q-2 2 -3 2l-14 4q-3 0 -4 1h-2v3h-5l-1 2l-1 -1q-2 0 -2 1q-3 0 -5 2l-9 3
q-5 2 -10 3t-17 3zM73 426q0 84 42 129t117 59v96h13v-65h6l27 -27q6 0 18.5 -0.5t28.5 -1.5t33 -3t31 -6v-125q-14 3 -33 11q-20 7 -39.5 12.5t-37.5 5.5q-11 0 -23.5 -2.5t-24 -8.5t-19 -16.5t-7.5 -25.5q0 -14 10.5 -25.5t25.5 -21.5l11 -11q12 -13 30 -22.5l34 -17.5
l2 -1q9 -7 21 -10l4 -4q5 -3 9.5 -6t9.5 -6q19 -20 30.5 -47t11.5 -69q0 -79 -39 -133t-120 -68v-96h-13v61l-27 27v6q-15 1 -32.5 3t-35.5 5t-34.5 7t-28.5 9v125q7 -2 15 -5.5t17 -6.5l9 -3v1l41 -15t43 -7q12 0 22.5 1.5t19 6t13.5 13.5t5 25q0 20 -17 37l-3 3v-1
q1 0 1 -1l-12 12q-7 15 -21.5 25.5t-33.5 22.5l-6 3q-16 8 -32.5 18t-32.5 24q-13 20 -21 47t-8 63z" />
    <glyph glyph-name="FL0025h" unicode="%" horiz-adv-x="904" 
d="M189 464q7 7 9 21q-8 -6 -9 -21zM658 135q7 7 9 21q-8 -6 -9 -21zM685 165q0 -23 -10.5 -37t-29.5 -14t-30 13.5t-11 37.5v2q0 24 11 37t30 13t29.5 -13.5t10.5 -36.5v-2zM216 494q0 -23 -10.5 -36.5t-29.5 -13.5t-30 13t-11 37v2q0 24 11 37t30 13t29.5 -13.5
t10.5 -36.5v-2zM645 328q-146 0 -146 -163q0 -81 35.5 -122t110.5 -41h1q75 1 109.5 41t34.5 121v1q0 81 -34.5 121.5t-109.5 41.5h-1zM176 657q-146 0 -146 -163t146 -163h1q75 1 109.5 41t34.5 121v1q0 81 -34.5 121.5t-109.5 41.5h-1zM345 4l314 651h-184l-314 -651h184z
M646 345q96 -1 134 -65h-1l20 -18q45 -48 45 -137v-1q0 -88 -38.5 -131.5t-119.5 -44.5h-1q-75 0 -116 41l-21 20v-1q-29 18 -44.5 49t-20.5 76l-88 -183h-213l-37 37h-11l144 297q-22 -7 -61 -7h-1q-76 0 -115 41l-21 20v-1q-67 43 -67 157q0 180 163 180h1q97 -1 135 -64
h-1l19 -19q17 -20 28 -46t15 -60l91 187h223l-4 -9l38 -35l-141 -292q28 9 65 9h1zM645 356h-3l118 244l-28 27l2 3l-10 9l5 11l-28 27l3 6h-247l-71 -145l-10 14l-10 14l-18 19q-2 3 -5 6.5t-5 6.5l-20 20q-25 32 -60 49t-81 18h-1q-174 0 -174 -191q0 -108 71 -166l20 -18
q5 -5 10.5 -9.5l11.5 -9.5l10 -9l2 -2q39 -41 117 -41l-127 -263h8l27 -27h15l10 -10h4l27 -27h222l66 139q16 -30 43 -50l1 -1l21 -19q8 -9 19 -16l13 -12q43 -43 122 -43h1q85 1 125.5 47t40.5 137v1q0 92 -48 143l-10 9q-4 6 -8.5 12t-9.5 11l-11 8l-8 8q-25 33 -60.5 51
t-80.5 19h-1zM509 617h120l-291 -602h-119zM537 135q0 155 138 155h1q44 0 75 -17q28 -37 28 -108v-1q0 -76 -32 -113t-101 -38h-1q-57 0 -89 25q-19 37 -19 97zM68 464q0 155 138 155h1q44 0 75 -17q28 -37 28 -108v-1q0 -76 -32 -113t-101 -38h-1q-57 0 -89 26
q-19 35 -19 96zM642 89q13 -13 33 -13q23 0 35.5 16t12.5 43v2q0 30 -16 46l-17 17q-12 28 -45 28q-24 0 -38 -16t-14 -45v-2q0 -46 31 -59zM172 419q13 -13 34 -13q23 0 35.5 15.5t12.5 42.5v2q0 30 -16 46l-17 17q-12 28 -45 28q-24 0 -38 -16t-14 -45v-2q0 -43 29 -57z
" />
    <glyph glyph-name="FL0026h" unicode="&#x26;" horiz-adv-x="640" 
d="M266 199q4 3 7 7.5t4 9.5q-8 -6 -11 -17zM212 229q0 22 10.5 33.5t31.5 16.5q21 -5 31.5 -16.5t10.5 -33.5q0 -25 -11.5 -37t-30.5 -17q-20 6 -31 18t-11 36zM212 431q0 24 10.5 36t30.5 17h166v171h-246q-39 0 -66.5 -23t-44.5 -56t-24.5 -70.5t-7.5 -67.5t18.5 -58.5
t45.5 -50.5q-29 -23 -46.5 -50.5t-17.5 -56.5q0 -30 5 -68t20.5 -71t43.5 -56t74 -23h163q46 0 74 23t43.5 56t20.5 71t5 68q0 18 -6 29h48v158h-306q-3 9 -3 22zM96 8v-1q-26 16 -42.5 42.5t-25.5 56.5t-12 60.5t-3 55.5q0 29 15 56.5t41 50.5q-25 24 -40.5 52t-15.5 57
q0 32 8.5 72.5t28 76.5t49.5 60.5t74 24.5h263v-8l37 -36v-197h-175q-4 -2 -7 -3l-6 -2h253v-8l37 -37v-184h-44q1 -2 1 -15q0 -32 -5.5 -72.5t-22.5 -76t-47.5 -59.5t-81.5 -24h-163q-32 0 -55.5 10.5t-41.5 28.5zM107 -19q5 -5 11 -9.5t12 -9.5l9 -9q19 -19 43.5 -30
t59.5 -11h163q53 0 85.5 25t50 61.5t23.5 78.5t6 75v7h43v196l-27 27v4l-10 10v8l-27 27v6h-38v165l-27 27v4l-10 9v8l-27 27v6h-274q-47 0 -79.5 -26t-52.5 -63.5t-29.5 -80t-9.5 -75.5q0 -29 14 -56.5t37 -53.5q-24 -24 -37.5 -51t-13.5 -55q0 -24 3.5 -53t12.5 -59
t25 -58t42 -50zM201 431q0 -15 6 -33h5l27 -27h271v-109h-56q14 -26 14 -40q0 -29 -4.5 -64.5t-19 -67.5t-40.5 -53.5t-68 -21.5h-163q-23 0 -41 7t-32 18q-20 35 -26 77t-6 75q0 28 18.5 55t49.5 52l-28 28l2 2q-11 7 -19 16q-23 31 -23 63q0 28 7 64.5t23 68.5t42 54
t63 22h205v-122h-158q-24 -7 -36.5 -21t-12.5 -43zM201 229q0 -23 8 -36.5t24 -21.5l17 -16q11 -11 34 -19q23 6 36.5 20t13.5 43q0 26 -15 40l-4 3v-1h1l-14 14q-5 14 -17.5 22t-30.5 13q-26 -7 -39.5 -21t-13.5 -40z" />
    <glyph glyph-name="FL0027h" unicode="'" horiz-adv-x="301" 
d="M86 651q-19 0 -35.5 -13t-21.5 -42q0 -28 2 -52.5t8.5 -47.5t18.5 -45t32 -44h37q20 22 32 44t18.5 45t8.5 47.5t2 52.5q-4 23 -20.5 39t-36.5 16h-45zM131 667q19 0 35.5 -10.5t27.5 -28.5h-1l25 -25q20 -20 23 -44q0 -29 -2 -55.5t-9.5 -51t-21.5 -49t-38 -50.5h-44
l-37 37h-4q-24 26 -38.5 51t-22 50t-9.5 51.5t-2 56.5q6 36 27 52t46 16h45zM86 678q-29 0 -53.5 -18t-30.5 -60q0 -31 2.5 -58.5t10.5 -54t23.5 -53t42.5 -55.5h3l37 -37h4l27 -27h51q25 28 40.5 53.5t23 51.5t10 53t2.5 57q-3 27 -25 49l-12 11q-3 6 -7 11t-9 10l-22 22
q-17 21 -36 33t-37 12h-45zM67 566q5 25 19 36t30 11h45q6 0 9 -1q4 -7 7 -19q0 -51 -10 -92.5t-45 -82.5h-23q-20 34 -26 69.5t-6 78.5z" />
    <glyph glyph-name="FL0028h" unicode="(" horiz-adv-x="425" 
d="M35 63q0 -11 6 -21.5t14 -18.5t17.5 -13.5t17.5 -5.5h216v158h-97v335h97v158h-216q-8 0 -17.5 -5t-17.5 -13.5t-14 -19t-6 -20.5v-534zM18 597q0 13 7.5 26.5t18.5 24t23.5 17.5t22.5 7h233v-8l37 -36v-184h-98v-265h61v-8l37 -37v-184h-231q-9 0 -21 7t-23 18l-22 22
v-1q-17 10 -31 28.5t-14 38.5v534zM7 597v-534q0 -19 13.5 -38.5t32.5 -33.5l24 -24q11 -11 22 -18l10 -10q12 -12 25.5 -19.5t24.5 -7.5h239v196l-27 27v4l-10 10v8l-27 27v6h-34v216h98v196l-27 27v4l-10 9v8l-27 27v6h-244q-12 0 -26 -8t-27 -20t-21.5 -27.5t-8.5 -30.5z
M231 124h64v-109h-205q-7 0 -15 5q-2 4 -2 13v534q0 9 5 18t12 16t15.5 11.5t14.5 4.5h175v-109h-97v-357h6z" />
    <glyph glyph-name="FL0029h" unicode=")" horiz-adv-x="425" 
d="M295 597q0 9 -6 18q-6 2 -8 2h-208v-109h70v-6l27 -27v-351h-97v-109h178q6 0 13.5 4.5t14.5 11t11.5 15t4.5 17.5v534zM48 442h-8l-27 27h-6v214h244q15 0 35.5 -14.5t37.5 -36.5l19 -19l10 -12t9 -12l9 -8q12 -12 19.5 -25.5t7.5 -28.5v-534q0 -15 -8 -29.5t-20 -26
t-25.5 -18.5t-23.5 -7h-233l-27 27h-4l-10 10h-7l-27 27h-6v214h98v216h-17l-27 27h-4zM62 444h54v-265h-98v-192h8l36 -37h229q9 0 21 6.5t22.5 17t18 23.5t7.5 26v534q0 13 -7 25t-18 23l-22 22h1q-11 18 -29.5 31.5t-33.5 13.5h-233v-192h8zM306 63q0 -11 -6 -21.5
t-14 -18.5t-18 -13.5t-17 -5.5h-216v158h97v335h-97v158h216q7 0 17 -5t18 -13.5t14 -19t6 -20.5v-534z" />
    <glyph glyph-name="asterisk" unicode="*" horiz-adv-x="438" 
d="M178 487l43 -66q2 -5 6 -5q2 0 7 5l57 39q4 1 4 6l-0.5 1.5t-2.5 3.5h1q-16 16 -23.5 25.5l-15.5 19.5l-14 17l80 18h-1q5 0 5 6v1l-0.5 0.5t-0.5 1.5l-22 66q-2 8 -6 8h-5l-73 -26l5 69q0 8 -9 8h-72q-7 0 -7 -7l3 -73l-73 29h-4q-5 0 -7 -5l-22 -70q-1 0 -1 -2
q0 -5 7 -6h-1l79 -18l-52 -62q-2 -2 -2.5 -3.5l-0.5 -1.5q0 -4 3 -7v1l61 -41q4 -3 5 -3q2 0 7 5zM270 652q0 -4 3 -5v-2l14 5h8q15 0 21 -16h-1l31 -31q1 -2 3 -5t4 -8l24 -67v-3l1 -1v-1q0 -16 -15 -20l-58 -14l3 -3l5 -5l16 -21t16 -18q2 -2 2.5 -5.5t0.5 -5.5
q0 -14 -10 -18l-59 -40v1q-6 -6 -13 -6t-14 7l-31 30v-1q-7 1 -13 9l-21 -33v-1q-8 -11 -19 -11q-7 0 -8 1l-5 5v-1l-57 38l-33 33v-1l-9 6q-8 8 -10 12.5t-2 9.5q0 3 2 11l18 23q-4 4 -4 6h1l-28 29v-1q-9 3 -14 9t-6 12l-1 1l1 4q0 3 0.5 6.5t3.5 5.5l22 65q6 13 21 13h8
l51 -20l-2 47q0 25 24 25h72q20 0 24 -16h-1zM213 713h-72q-35 0 -35 -36l1 -32l-38 16h-9q-11 0 -20 -6.5t-15 -22.5l-19 -55q-4 -5 -4 -13l-2 -12l3 -4q3 -5 9 -11.5t14 -11.5l25 -25l-16 -19q-1 -3 -1.5 -6.5t-0.5 -8.5q0 -8 2 -13.5t12 -15.5l11 -8l31 -30l12 -8l20 -20
l60 -40l3 -3q1 -3 6 -3l3 -2v2h5q15 0 27 15v2l15 24l4 -4q7 -7 11 -8l-7 7l28 -27l-21 19h1l20 -19q9 -9 20 -9h3l2 -2l8 6q4 2 5 3l58 39h-1q15 5 15 25q0 3 -0.5 8t-4.5 9l-9 8q-4 5 -8 9.5t-8 9.5q-1 2 -1.5 2.5t-1.5 2.5q-1 0 -1 1q-2 2 -2 3l45 11q21 6 21 28v5l-1 1
v2l-23 63l-7 14q-1 1 -1 2v2l-25 25l-1 2q-1 1 -1 4l-34 33q-11 20 -28 20h-12l-5 -2l-33 33q-11 21 -32 21zM135 540l-58 13l14 43h2l82 -33l-3 84h36l-3 -56l6 2l27 -27l63 22l9 -28l-89 -20l25 -31l-1 1q2 -4 5 -7l5 -5q2 -4 5 -8t7 -8h-2q5 -6 9 -10l6 -6l-48 -32
l-24 38l-18 17l-12 20l-51 -80l-22 14l55 65l-28 28z" />
    <glyph glyph-name="FL002Bh" unicode="+" horiz-adv-x="547" 
d="M310 250h118v157h-118v117h-157v-117h-118v-157h118v-119h157v119zM327 541v-8l37 -36v-73h81v-8l37 -36v-184h-118v-119h-184l-36 37h-8v82h-74l-36 37h-8v191h118v117h191zM125 552v-117h-118v-213h6l27 -27h7l10 -10h4l27 -27h37v-55h6l27 -27h7l10 -10h4l27 -27h196
v119h118v196l-27 27v4l-10 9v8l-27 27v6h-54v36l-27 27v4l-10 9v8l-27 27v6h-213zM164 261h-91v108h118v117h108v-90h6l27 -27h85v-108h-118v-119h-108v86l-27 27v6z" />
    <glyph glyph-name="FL002Ch" unicode="," horiz-adv-x="309" 
d="M29 82q0 -26 13 -45.5t36 -29.5l1 -4v-86q26 1 47.5 13.5t37 31t24 41.5t8.5 44v32q0 35 -23 60.5t-61 25.5t-60.5 -24t-22.5 -59zM13 82q0 42 27 71t72 29q29 0 52 -14t35 -37h-1l21 -20q30 -30 30 -71v-32q0 -24 -10.5 -49.5t-29 -46.5t-45 -34.5t-58.5 -13.5l-36 36
h-8v94l-2 1q-47 26 -47 87zM2 82q0 -65 46 -92l3 -3v-98h6l27 -27h8l9 -9h4l27 -27q34 0 63 14t49 36.5t31.5 49t11.5 52.5v32q0 45 -32 77l-11 10q-7 12 -17 22l-23 21q-17 25 -41 39t-51 14q-51 0 -80.5 -32t-29.5 -79zM117 -25l-2 7l-26 25l-1 7q-5 2 -8.5 4t-7.5 4
q-5 11 -5 30q0 32 20 53.5t55 21.5q18 0 32 -7q11 -19 11 -41v-32q0 -29 -18.5 -59t-49.5 -47v34z" />
    <glyph glyph-name="FL002Dh" unicode="-" horiz-adv-x="421" 
d="M35 248h267v156h-267v-156zM18 421h301v-8l37 -37v-181h-294l-36 36h-8v190zM7 220h6l27 -27h8l9 -9h4l27 -27h306v193l-27 27v4l-10 10v8l-27 27v6h-323v-212zM73 366h218v-107h-218v107z" />
    <glyph glyph-name="period" unicode="." horiz-adv-x="309" 
d="M29 82q0 -35 22.5 -58.5t60.5 -23.5t61 23.5t23 58.5t-23 58.5t-61 23.5t-60.5 -23.5t-22.5 -58.5zM13 82q0 42 27 70.5t72 28.5q29 0 51.5 -12.5t34.5 -33.5h-1l24 -24q28 -28 28 -69q0 -42 -26.5 -68.5t-71.5 -26.5q-41 0 -68 27l-22 22v-1q-23 12 -35.5 35t-12.5 52z
M2 82q0 -27 12.5 -51t36.5 -41l24 -24q10 -10 19 -15l13 -13q29 -29 74 -29q49 0 77.5 28.5t28.5 74.5q0 45 -30 75l-12 12q-4 5 -7.5 10t-8.5 10l-27 27q-17 21 -40.5 33.5t-49.5 12.5q-51 0 -80.5 -31t-29.5 -79zM67 52q0 32 20 53t55 21q17 0 33 -7q10 -18 10 -37
q0 -30 -20 -50.5t-53 -20.5q-24 0 -40 10q-5 15 -5 31z" />
    <glyph glyph-name="slash" unicode="/" 
d="M210 4l312 651h-183l-313 -651h184zM550 672l-4 -9l38 -35l-325 -678h-212l-37 37h-11l329 685h222zM321 683l-339 -707h8l27 -27h15l10 -10h4l27 -27h221l329 688l-28 27l2 3l-10 9l5 11l-28 27l3 6h-246zM373 617h119l-289 -602h-119z" />
    <glyph glyph-name="zero" unicode="0" horiz-adv-x="730" 
d="M410 331q0 40 -17 72q-14 6 -28 6h-2q-43 0 -66 -31.5t-23 -86.5v-5q0 -43 10 -66v1q18 -9 39 -9h2q42 1 63.5 31.5t21.5 82.5v5zM426 326q0 -58 -26 -94t-75 -37h-2q-49 0 -75.5 35.5t-26.5 95.5v5q0 61 26.5 96t75.5 35h2q49 -1 75 -36t26 -95v-5zM324 656
q-153 0 -223.5 -81.5t-70.5 -246.5t70.5 -246t223.5 -81h1q151 1 221 82.5t70 242.5v3q0 161 -70 243.5t-221 83.5h-1zM325 673q172 -1 249 -106h-1l12 -13q45 -45 65 -109.5t20 -155.5v-3q0 -169 -73 -253.5t-232 -85.5h-1q-151 0 -225 77l-14 14v-1q-112 79 -112 291
q0 174 74.5 259.5t236.5 85.5h1zM325 684h-1q-168 0 -245 -88.5t-77 -267.5q0 -199 112 -295l17 -17q7 -8 14.5 -14l15.5 -12l4 -4q75 -77 229 -77h1q163 1 238 87.5t75 259.5v3q0 94 -20.5 159.5t-66.5 111.5l-5 4q-6 8 -13 16.5t-15 16.5v-1q-46 57 -111.5 87t-151.5 31z
M68 298q0 162 68.5 241t217.5 79h1q111 0 178 -49q72 -78 72 -240v-3q0 -156 -67.5 -234.5t-212.5 -79.5h-1q-137 0 -205 67q-51 76 -51 219zM280 185q28 -28 73 -28h2q53 1 81 39t28 100v5q0 74 -37 111l-12 12q-29 47 -90 49h-2q-54 0 -83.5 -38t-29.5 -104v-5
q0 -46 14.5 -79t42.5 -49zM399 326q0 -48 -18.5 -75t-55.5 -28h-2q-7 0 -10 1q-2 7 -1.5 15t0.5 17v5q0 51 21 80.5t60 29.5q6 -20 6 -40v-5z" />
    <glyph glyph-name="one" unicode="1" horiz-adv-x="407" 
d="M115 4h173v593q0 10 -6 20.5t-14 19t-18 13.5t-17 5h-198v-158h80v-493zM26 480h-8v192h215q15 0 33.5 -13.5t29.5 -31.5h-1l22 -22q11 -11 18 -23t7 -25v-607h-200l-36 37h-8v457h-36zM57 433h4l26 -26v-431h6l27 -27h7l10 -10h4l27 -27h212v615q0 15 -7.5 28.5
t-19.5 25.5l-9 8q-4 6 -9 12l-10 12l-19 19q-17 22 -37.5 36.5t-35.5 14.5h-226v-214h6l27 -27h8zM126 508h-53v109h190q2 0 8 -2q6 -9 6 -18v-582h-124v460l-27 27v6z" />
    <glyph glyph-name="two" unicode="2" horiz-adv-x="534" 
d="M212 149h-6v52q0 11 10 22.5t25 22t31.5 20t29.5 15.5q5 1 7 3q19 10 36 23.5t30 32.5t21 44t8 58q0 91 -48 144q-23 15 -52.5 23.5t-65.5 8.5q-19 0 -47 -3.5t-54 -10t-44.5 -15.5t-18.5 -20v-85q4 2 7 3q20 7 41 12.5t47 5.5q20 0 36 -5t23 -22l19 -18q-1 0 -1.5 0.5
l-0.5 0.5l3 -2q11 -11 11 -34t-18.5 -37t-44.5 -30q-20 -11 -41.5 -25t-39.5 -35t-30 -51t-12 -74v-158h316v107h-150zM8 599q0 19 23 34.5t54.5 27t65.5 17.5t57 6q62 0 108 -22t81 -64l12 -12q1 -3 4 -4l2 -2l12 -13.5t11 -14.5l5 -4q64 -64 64 -176q0 -41 -9 -70
t-24 -50.5t-34.5 -36.5t-39.5 -27h28v-6l27 -27v-8l10 -10v-4l27 -27v-194h-404l-27 27h-4l-10 10h-7l-27 27h-6v227q0 67 21.5 107t51.5 66l-18 18h-3l-11 11h-7l-27 27h-6v167zM19 443q2 0 3.5 -0.5t3.5 0.5l37 -37q20 3 35 7.5t29 9.5q1 0 1.5 0.5t1.5 0.5q1 1 3 1
q3 0 4 1q15 4 29 8.5t31 6.5q-6 -8 -17.5 -15l-25.5 -15q-22 -12 -46 -27.5t-44 -39.5t-33 -58t-13 -83v-216h8l36 -37h392v182l-37 37v8h-134q13 9 33 20.5t37 19.5l-1 2q2 0 3 1v-1l8 4q20 12 39 26.5t34 35.5t24 49.5t9 67.5q0 108 -62 170l-15 15h1q-29 42 -74 64
t-111 22q-21 0 -53.5 -5.5t-62.5 -15t-51.5 -23.5t-21.5 -30v-156zM36 599q0 13 19.5 23.5t47 18t56.5 11.5t49 4q51 0 90 -15.5t65 -44t39 -67.5t13 -87q0 -36 -8 -62t-22 -45.5t-32 -34t-37 -25.5q-4 -4 -11 -5q-12 -6 -27 -14.5t-28.5 -17.5t-23 -18.5t-9.5 -18.5v-41
h183v-156h-365v199q0 45 12 76.5t31 53t41 36t43 26.5q25 15 42 28t17 32q0 26 -16 32.5t-36 6.5q-23 0 -43.5 -5.5t-40.5 -12.5l-26 -9t-23 -6v138z" />
    <glyph glyph-name="FL0033h" unicode="3" horiz-adv-x="532" 
d="M35 409v-158h198q3 -9 3 -22q0 -31 -19 -44t-48 -13h-134v-168h241q45 0 73 23t43.5 56t20.5 71t5 68q0 29 -17 56.5t-47 50.5q28 22 46 50.5t18 58.5t-7.5 67.5t-24 70.5t-44 56t-66.5 23h-241v-168h134q29 0 48 -13t19 -43q0 -13 -3 -22h-198zM18 426h200q1 1 1 5v2
q-2 1 -11 1h-146l-36 36h-8v202h258q36 0 63.5 -18t46.5 -45h-1l17 -17q19 -19 32 -43.5t21.5 -51t12.5 -52.5t4 -47q0 -30 -16 -58t-41 -51l10 -9q23 -20 35 -46t12 -52q0 -32 -5.5 -72.5t-22.5 -76t-47.5 -59.5t-81.5 -24h-253l-36 37h-8v202h151q11 0 20 1.5t15 6.5h-142
l-36 37h-8v192zM7 223h6l23 -23h-29v-224h6l27 -27h7l10 -10h4l27 -27h257q53 0 85.5 25t50 61.5t23.5 78.5t6 75q0 26 -10.5 50.5t-31.5 45.5l-7 6v1l4 -5q-1 2 -5 6q-1 1 -1.5 2t-1.5 2q23 23 38 50.5t15 57.5q0 22 -4 48.5t-13 54t-22.5 53t-32.5 44.5l-7 6
q-10 15 -21 26l-20 20q-24 28 -52.5 45.5t-61.5 17.5h-269v-224h6l22 -22h-28v-214zM73 617h233q28 0 50 -14q14 -17 23.5 -38t15.5 -43.5t9 -44t3 -39.5q0 -27 -20 -56t-51 -53q33 -26 52 -53t19 -54q0 -29 -5 -64.5t-19 -67.5t-39.5 -53.5t-67.5 -21.5h-203v119h126
q33 0 54 15t21 50q0 13 -5 30l-26 25q0 2 -2 8h-168v109h196q5 17 5 30q0 29 -16 45l-18 17q-8 18 -27 26.5t-44 8.5h-96v119z" />
    <glyph glyph-name="FL0034h" unicode="4" horiz-adv-x="619" 
d="M326 4h174v651h-174v-246h-117v246h-174v-404h291v-247zM517 672v-8l37 -36v-678h-201l-36 37h-8v210h-246l-37 37h-8v438h208v-8l37 -36v-202h46v246h208zM298 683v-78l-24 24v4l-10 9v8l-27 27v6h-230v-460h6l27 -27h8l10 -10h4l27 -27h209v-183h6l27 -27h7l10 -10h4
l27 -27h213v690l-27 27v4l-10 9v8l-27 27v6h-230zM337 262h-264v355h125v-219h6l27 -27h133v246h125v-602h-125v214l-27 27v6z" />
    <glyph glyph-name="five" unicode="5" horiz-adv-x="534" 
d="M85 183q-14 4 -26 8.5t-23 6.5v-137q0 -14 19.5 -24.5t47 -18t56.5 -11.5t49 -4q51 0 90 15.5t65 44t39 68t13 87.5q0 35 -8 61t-21.5 45.5t-31.5 33.5t-37 25q1 -1 -9 4.5t-16 9.5l-25.5 13t-25 15t-19 16.5t-7.5 16.5v41h185v156h-365v-199q0 -45 12 -76.5t31 -53
t41 -36t43 -25.5q25 -15 42 -28t17 -33q0 -26 -16 -32.5t-36 -6.5q-23 0 -43.5 5.5t-40.5 12.5zM34 215q14 -3 28.5 -7t28.5 -9q19 -7 38.5 -12t39.5 -5q14 0 24.5 4t10.5 18l-0.5 0.5t-0.5 1.5h-1v1q-4 2 -8 6v-1q-18 10 -37.5 23t-39.5 33l-12 11v-1q-34 24 -60.5 65.5
t-26.5 112.5v216h399v-8l37 -36v-182h-185v-17q10 -7 25 -13l6 -3l14 -8t12 -8v1q20 -12 38.5 -27t33.5 -35h-1l20 -20q23 -23 37.5 -55t14.5 -83t-14 -93t-42 -72t-69 -47t-96 -17q-18 0 -43 3.5t-50.5 10t-48 16t-34.5 21.5l-27 27v-1q-26 17 -26 35v141zM8 206v-145
q0 -18 26 -39l30 -30q8 -8 17 -13l15 -15q12 -12 35.5 -22t49.5 -17t52.5 -10.5t44.5 -3.5q57 0 99.5 17.5t71.5 48.5t43.5 74.5t14.5 96.5q0 54 -15 87t-39 57l-5 4q-5 8 -11 14.5l-12 13.5l-20 19q-18 20 -36.5 36t-38.5 29h162v194l-27 27v4l-10 9v8l-27 27v6h-421v-227
q0 -35 8 -64t21 -52t30.5 -41.5t37.5 -33.5q9 -10 18 -17.5l18 -15.5h1q20 -21 45 -37q-4 -2 -8 -2h-9q-17 0 -36 5t-38 12q-11 4 -28 8t-36 9zM73 426v191h316v-107h-185v-52q0 -12 10 -23.5t24 -21.5l12 -11q12 -12 31.5 -23t36.5 -19q9 -7 21 -10l4 -4q5 -3 9.5 -6
t9.5 -6q19 -20 30.5 -47t11.5 -69q0 -45 -12.5 -82.5t-37 -64.5t-61 -42t-85.5 -15q-13 0 -30.5 1.5t-36 4.5t-36.5 7t-31 10v120q3 -1 6.5 -2t7.5 -2v1q11 -6 23 -9h1q20 -7 40.5 -12.5t46.5 -5.5q12 0 22.5 1.5t19 6.5t13.5 14t5 25q0 20 -17 37l-15 14q-7 14 -21.5 25
t-32.5 22l-6 3q-17 8 -34 19t-34 26q-12 20 -19 45.5t-7 60.5z" />
    <glyph glyph-name="FL00B7h" unicode="6" horiz-adv-x="592" 
d="M272 204q3 3 5 12q-4 -6 -5 -12zM217 229q0 22 9 35t30 18q40 -10 40 -53q0 -24 -10.5 -36t-29.5 -18q-20 5 -29.5 17.5t-9.5 36.5zM217 431q0 23 9 35.5t29 17.5h217v171h-294q-40 0 -67 -23t-44 -56t-24.5 -70.5t-7.5 -67.5v-216q0 -30 5 -68t20.5 -71t43.5 -56t74 -23
h157q46 0 74 23t43.5 56t20.5 71t5 68q0 51 -10.5 85t-29 54.5t-45 29t-59.5 8.5q-60 0 -88 4.5t-29 27.5zM101 8v-1q-26 16 -42.5 42.5t-25.5 56.5t-12 60.5t-3 55.5v216q0 32 8.5 72.5t28 76.5t49.5 60.5t74 24.5h311v-8l37 -36v-197h-226q-17 -6 -24 -15q12 -1 26.5 -0.5
t31.5 0.5q45 0 78.5 -13.5t53.5 -48.5h-1l21 -20q23 -23 34.5 -59t11.5 -93q0 -32 -5.5 -72.5t-22.5 -76t-47.5 -59.5t-81.5 -24h-158q-32 0 -55.5 10.5t-41.5 28.5zM112 -19q5 -5 11 -9.5t12 -9.5l9 -9q19 -19 43.5 -30t59.5 -11h158q53 0 85.5 25t50 61.5t23.5 78.5t6 75
q0 60 -12 97t-36 61l-9 8q-4 7 -9 13t-10 11l-20 19q-7 10 -14.5 17.5t-15.5 14.5h120v209l-27 27v4l-10 9v8l-27 27v6h-322q-47 0 -79.5 -26t-52.5 -63.5t-29.5 -80t-9.5 -75.5v-216q0 -24 3.5 -53t12.5 -58.5t25 -57.5t42 -50zM206 431q0 -26 22 -35l20 -19q12 -12 40 -14
t76 -2q43 0 73 -17q14 -20 22 -49.5t8 -72.5q0 -29 -4.5 -64.5t-19 -67.5t-40.5 -53.5t-68 -21.5h-157q-23 0 -41 7t-32 18q-20 35 -26 77t-6 75v216q0 28 7 64.5t23 68.5t41.5 54t63.5 22h253v-122h-209q-24 -6 -35 -21t-11 -43zM206 229q0 -43 29 -59l19 -18
q12 -12 32 -16q23 7 35.5 21t12.5 42q0 29 -16 45l-3 3v-1q1 0 1 -1l-15 15q-12 25 -45 34q-27 -7 -38.5 -23t-11.5 -42z" />
    <glyph glyph-name="seven" unicode="7" horiz-adv-x="568" 
d="M250 503l28 -28l-162 -460h124l196 525v4q0 2 0.5 3.5t0.5 2.5l1 1q0 14 -5 32t-15 33q-8 2 -11 2h-334v-110h179zM173 406h-85l-27 27h-4l-9 9h-8l-27 27h-6v215h370q19 0 36 -12t32 -31l25 -24q10 -10 18 -23l10 -9q21 -21 32 -50t11 -54q0 -7 -1 -10v-2
q0 -1 -0.5 -1.5t-0.5 -2.5l-206 -553h-221l-27 27h-4l-10 10h-13l-27 27h-7zM40 -13h10l36 -37h212l203 545q0 2 0.5 3.5t0.5 2.5v2q1 1 1 8q0 23 -10.5 50.5t-30.5 47.5l-22 21h1q-12 18 -28 30.5t-36 12.5h-359v-193h8l36 -36h137zM236 497h-201v159h342q16 0 29.5 -11
t23 -26.5t14.5 -34t5 -33.5q0 -5 -1 -6q0 -2 -0.5 -4t-0.5 -4v1l-200 -534h-184z" />
    <glyph glyph-name="eight" unicode="8" horiz-adv-x="592" 
d="M266 199q10 9 12 20q-9 -7 -12 -20zM266 401q10 7 12 21q-9 -6 -12 -21zM212 229q0 42 42 53q42 -11 42 -53q0 -25 -11.5 -37t-30.5 -17q-20 6 -31 18t-11 36zM212 431q0 23 11 35t31 18q19 -5 30.5 -17t11.5 -36q0 -43 -42 -55q-42 12 -42 55zM173 655q-40 0 -67 -23
t-44 -56t-24.5 -70.5t-7.5 -67.5t18.5 -58.5t45.5 -50.5q-29 -23 -46.5 -50.5t-17.5 -56.5q0 -30 5 -68t20.5 -71t43.5 -56t74 -23h162q46 0 74 23t43.5 56t20.5 71t5 68q0 29 -17 56.5t-47 50.5q28 22 46 50.5t18 58.5t-7.5 67.5t-24.5 70.5t-44 56t-67 23h-162zM335 672
q37 0 64.5 -18t46.5 -45h-1l15 -15q19 -19 32.5 -44t22.5 -51.5t13 -53t4 -47.5q0 -30 -16 -58t-41 -51l10 -9q23 -20 35 -46t12 -52q0 -32 -5.5 -72.5t-22.5 -76t-47.5 -59.5t-81.5 -24h-163q-32 0 -55.5 10.5t-41.5 28.5l-19 19v-1q-26 16 -42.5 42.5t-25.5 56.5t-12 60.5
t-3 55.5q0 29 14.5 56.5t40.5 50.5q-24 24 -39.5 52t-15.5 57q0 32 8.5 72.5t28 76.5t49.5 60.5t74 24.5h162zM173 683q-47 0 -79.5 -26t-52.5 -63.5t-29.5 -80t-9.5 -75.5q0 -29 13.5 -56.5t36.5 -52.5q-50 -50 -50 -107q0 -24 3.5 -53t12.5 -58.5t25 -57.5t42 -50l22 -22
q5 -5 11 -9.5t12 -9.5l9 -9q19 -19 43.5 -30t59.5 -11h163q53 0 85.5 25t50 61.5t23.5 78.5t6 75q0 26 -10.5 50.5t-31.5 45.5l-7 6v1l4 -5q-1 2 -5 6q-2 2 -3 4q23 23 38 50.5t15 57.5q0 22 -4.5 49t-13.5 54.5t-23 53t-33 45.5l-6 5q-12 17 -22 27l-17 17q-24 29 -53 46.5
t-63 17.5h-162zM68 192q0 28 18.5 55t49.5 52l-28 28l2 2q-11 7 -19 16q-23 31 -23 63q0 28 7 64.5t23 68.5t41.5 54t63.5 22h162q28 0 51 -14q14 -17 23.5 -38t15.5 -43t9 -44t3 -40q0 -27 -20 -56t-51 -53q33 -26 52 -53t19 -54q0 -29 -4.5 -64.5t-19 -67.5t-40.5 -53.5
t-68 -21.5h-162q-23 0 -41 7t-32 18q-20 35 -26 77t-6 75zM201 431q0 -44 34 -60l16 -16q12 -12 33 -18q50 14 50 64q0 28 -16 44l-18 17q-6 14 -18 21.5t-28 12.5q-26 -8 -39.5 -22t-13.5 -43zM201 229q0 -23 8 -36.5t24 -21.5l17 -16q11 -11 34 -19q23 6 36.5 20t13.5 43
q0 27 -16 43l-17 17q-12 25 -47 34q-53 -14 -53 -64z" />
    <glyph glyph-name="nine" unicode="9" horiz-adv-x="588" 
d="M306 498v-6l27 -27v-139h-29q-36 5 -54 23l-16 15q-35 19 -35 65q0 36 22 52.5t57 16.5h28zM306 194l27 -27v-152h125v582q0 9 -6 18q-6 2 -8 2h-243q-38 0 -63.5 -22.5t-41 -54.5t-22 -69t-6.5 -65q0 -45 8.5 -81.5t26.5 -63.5q64 -61 203 -61v-6zM89 221q-43 39 -65 92
t-22 123q0 33 9 76t29 81t52 64t79 26h243q15 0 35.5 -14.5t37.5 -36.5l19 -19l10 -11.5t8 -11.5l1 -1l9 -8q12 -12 19.5 -25.5t7.5 -28.5v-615h-213l-27 27h-4l-10 10h-7l-27 27h-6v129q-36 8 -65.5 22.5t-51.5 37.5l-5 5v-1l-4 4q-12 9 -23 20v-1zM121 205
q27 -29 66.5 -45.5t90.5 -22.5v-150h8l36 -37h201v607q0 13 -7 25t-18 23l-22 22h1q-11 18 -29.5 31.5t-33.5 13.5h-243q-44 0 -74 -25t-48.5 -61t-27 -77t-8.5 -73q0 -75 22 -127t65 -84v1zM295 189q-131 0 -198 59t-67 188q0 30 7 67.5t23.5 71.5t43.5 57t67 23h243
q7 0 17 -5t18 -13.5t14 -19t6 -20.5v-593h-174v185zM278 487q-30 0 -49 -14t-19 -44q0 -29 17 -45t48 -20h20v123h-17zM264 389q0 22 14 33v-41h-2h-7q-4 0 -5 1v7z" />
    <glyph glyph-name="FL003Ah" unicode=":" horiz-adv-x="309" 
d="M29 82q0 -35 22.5 -58.5t60.5 -23.5t61 23.5t23 58.5t-23 59.5t-61 24.5t-60.5 -24.5t-22.5 -59.5zM29 452q0 -35 22.5 -58.5t60.5 -23.5t61 23.5t23 58.5t-23 59t-61 24t-60.5 -24t-22.5 -59zM13 82q0 43 27 72t72 29q29 0 51.5 -12.5t34.5 -34.5h-1l24 -24
q28 -28 28 -69q0 -42 -26.5 -69.5t-71.5 -27.5q-43 0 -68 28l-22 22v-1q-23 12 -35.5 35t-12.5 52zM13 452q0 43 27 71.5t72 28.5q29 0 51.5 -12.5t34.5 -33.5h-1l24 -24q28 -28 28 -70t-26.5 -69t-71.5 -27q-43 0 -68 28l-23 22v-1q-23 12 -35 35t-12 52zM2 82
q0 -27 12.5 -51t36.5 -41l29 -29v1q3 -3 7 -6l8 -6l12 -12v1l3 -3q28 -28 71 -28q49 0 77.5 29.5t28.5 75.5q0 45 -30 75l-12 11q-3 5 -7 10.5t-9 10.5l-25 25q-18 23 -41.5 36t-50.5 13q-51 0 -80.5 -32t-29.5 -80zM2 452q0 -26 11.5 -49.5t35.5 -41.5l31 -30v1l6 -6t7 -5
l14 -13v1l3 -3q28 -28 71 -28q49 0 77.5 29t28.5 75t-30 76l-12 12q-4 5 -7.5 10t-8.5 10l-27 27q-17 21 -40.5 33.5t-49.5 12.5q-51 0 -80.5 -31.5t-29.5 -79.5zM67 52q0 32 20 54t55 22q8 0 16.5 -2t16.5 -5q10 -18 10 -39q0 -30 -20 -50.5t-53 -20.5q-24 0 -40 10
q-5 15 -5 31zM67 422q0 32 20 53.5t55 21.5q18 0 32 -7q11 -17 11 -38q0 -30 -20 -50.5t-53 -20.5q-24 0 -40 10q-5 15 -5 31z" />
    <glyph glyph-name="FL003Bh" unicode=";" horiz-adv-x="309" 
d="M29 452q0 -35 22.5 -58.5t60.5 -23.5t61 23.5t23 58.5t-23 59.5t-61 24.5t-60.5 -24.5t-22.5 -59.5zM29 83q0 -26 13 -46t36 -30l1 -4v-87q26 1 47.5 13.5t37 31.5t24 42t8.5 45v32q0 35 -23 60.5t-61 25.5t-60.5 -24t-22.5 -59zM13 452q0 43 27 72t72 29
q29 0 51.5 -12.5t34.5 -34.5h-1l20 -21l7 -6h-1q26 -29 26 -66q0 -42 -26.5 -69.5t-71.5 -27.5q-43 0 -68 28l-23 22v-1q-47 26 -47 87zM13 83q0 42 27 71t72 29q29 0 52 -14t35 -37h-1l21 -21q30 -30 30 -71v-32q0 -24 -10.5 -50t-29 -47t-45 -34.5t-58.5 -13.5l-36 37h-8
v94l-2 1q-23 13 -35 36t-12 52zM2 83q0 -31 11.5 -55t34.5 -38l3 -3v-98h6l27 -27h7l10 -10h4l27 -27q34 0 63 14t49 36.5t31.5 49.5t11.5 53v32q0 45 -32 77l-11 11l-8 10.5t-9 10.5l-23 22q-17 25 -41 39t-51 14q-51 0 -80.5 -32t-29.5 -79zM2 452q0 -58 50 -94l15 -15
l6 -6l2 -2l5 -4v1l6 -6t7 -5l14 -13v1l3 -3q28 -28 71 -28q49 0 77.5 29.5t28.5 75.5q0 32 -18 58h6l-27 27h5l-23 20l-26 27q-18 23 -41.5 36t-50.5 13q-51 0 -80.5 -32t-29.5 -80zM117 -25l-2 7l-26 25l-1 7q-8 3 -15 8q-6 13 -6 31q0 32 20 53.5t55 21.5q18 0 32 -7
q11 -19 11 -41v-32q0 -31 -18.5 -61t-49.5 -47v35zM67 422q0 32 20 54t55 22q8 0 16.5 -2t16.5 -5q10 -18 10 -39q0 -30 -20 -50.5t-53 -20.5q-24 0 -40 10q-5 15 -5 31z" />
    <glyph glyph-name="less" unicode="&#x3c;" horiz-adv-x="476" 
d="M182 4h184l-155 325l155 326h-184l-157 -326zM393 672l-4 -9l38 -35l-162 -339l163 -339h-213l-37 37h-7l-164 342l164 343h222zM164 683l-168 -354l168 -353h5l27 -27h4l10 -10h4l27 -27h229l-167 347l163 341l-28 27l2 3l-10 9l5 11l-28 27l3 6h-246zM216 617h120
l-136 -288l149 -314h-149l-137 284z" />
    <glyph glyph-name="FL003Dh" unicode="=" horiz-adv-x="485" 
d="M36 144h330v157h-330v-157zM35 357h331v157h-331v-157zM383 531v-8l37 -36v-184h-30l30 -29v-184h-357l-36 37h-8v191h29l-22 22h-8v191h365zM7 542v-213h1v-213h6l27 -27h7l10 -10h4l27 -27h369v196l-17 17h17v196l-27 27v4l-10 9v8l-27 27v6h-387zM73 476h282v-108
h-282v108zM74 263h281v-108h-281v108z" />
    <glyph glyph-name="greater" unicode="&#x3e;" horiz-adv-x="475" 
d="M26 4h183l157 325l-157 326h-183l154 -326zM225 661h-1l36 -34l161 -338l-162 -339h-212l-37 37h-11l162 342l-162 343h222zM229 683h-247l167 -354l-167 -353h8l27 -27h15l10 -10h4l27 -27h221l165 347l-163 343l-23 22l-4 9l-9 8l-3 9l-26 25zM218 299l-150 318h147
l139 -288l-152 -314h-119z" />
    <glyph glyph-name="FL003Fh" unicode="?" horiz-adv-x="534" 
d="M402 572q0 -1 1 -1v1h-1zM48 83q0 -35 22.5 -59t60.5 -24t61 24t23 59t-23 59t-61 24t-60.5 -24t-22.5 -59zM36 461q11 2 23 6l26 9q20 7 40.5 12.5t43.5 5.5q20 0 36 -6.5t16 -32.5q0 -19 -17 -32t-42 -28l-42.5 -26.5t-41.5 -35.5t-31 -51t-12 -73h181q5 13 27 26
t43 24q9 5 17 9t13 7q19 11 37 25.5t32 34t22 45.5t8 62q0 48 -13 87t-39 67.5t-65 44t-90 15.5q-20 0 -49 -4t-56.5 -11.5t-47 -18t-19.5 -23.5v-138zM31 83q0 21 7.5 40.5t21.5 33.5l-34 35h-8q0 53 13 89.5t33 61t44 40.5t46 28l25.5 15t17.5 15q-17 -2 -31 -6.5
t-29 -8.5q-1 -1 -4 -1q-2 0 -3 -1q-1 0 -1.5 -0.5t-1.5 -0.5q-14 -5 -29 -9.5t-35 -7.5l-37 37q-2 -1 -3.5 -0.5t-3.5 0.5v156q0 16 21.5 30t51.5 23.5t62.5 15t53.5 5.5q66 0 111 -22t74 -64h-1l12 -13v1q65 -65 65 -173q0 -39 -9 -67.5t-24 -49.5t-34 -35.5t-39 -26.5
q-5 -4 -13.5 -8t-17.5 -9q-2 -2 -4.5 -3t-3.5 -2q-20 -11 -36.5 -21.5t-20.5 -24.5h-65q11 -11 15 -19h-1l25 -24q28 -28 28 -69q0 -42 -27 -69.5t-72 -27.5q-41 0 -69 28l-22 22v-1q-23 12 -35.5 35.5t-12.5 52.5zM20 83q0 -27 12.5 -51.5t36.5 -41.5l24 -24q5 -5 10 -8.5
t10 -7.5l12 -12q30 -30 75 -30q49 0 78 29.5t29 75.5q0 45 -30 75l-12 11q-2 5 -5.5 9l-7.5 9h51q5 14 17 24t28 18h1q2 1 4.5 2t4.5 2q1 1 0 1q8 4 10 6q4 2 8 4.5t9 4.5q2 1 4.5 2t7.5 5q21 12 40.5 27.5t35 37t25 51t9.5 70.5q0 106 -74 186q-6 8 -12 14.5l-12 13.5
l-14 13q-35 42 -80 63.5t-107 21.5q-23 0 -57 -6t-65.5 -17.5t-54.5 -27t-23 -34.5v-167h6l27 -27h7l11 -11h3l19 -18q-31 -27 -52.5 -72.5t-21.5 -122.5h6l27 -27h3q-12 -17 -17.5 -35t-5.5 -36zM196 358q26 16 44.5 30t18.5 37t-11 34l-20 19q-7 17 -23 22t-36 5
q-26 0 -47 -5.5t-41 -12.5q-3 -1 -7 -3v85q0 11 18.5 20t44.5 15.5t54 10t47 3.5q36 0 65.5 -8.5t52.5 -23.5q48 -53 48 -144q0 -33 -8 -58t-21 -43.5t-30 -32t-35 -24.5q-2 -1 -3 -2t-6 -3l-6 -3l-9 -3.5t-6 -3.5l-2 -2q-2 0 -5 -3l-6 -3l1 1l-31 -19.5t-26 -22.5h-135
q6 30 19 51.5t29.5 37t35.5 27.5zM86 53q0 32 20 53.5t55 21.5q18 0 32 -7q11 -17 11 -38q0 -30 -20 -51t-53 -21q-22 0 -40 10q-3 8 -4 16t-1 16zM398 592l-2 3q1 -1 1 -2z" />
    <glyph glyph-name="FL0040h" unicode="@" horiz-adv-x="866" 
d="M405 302q7 6 9 20q-7 -6 -9 -20zM264 459q7 9 15.5 16.5t16.5 13.5h-32v-30zM546 427q2 -4 4.5 -7t4.5 -4v73h-72q27 -17 42 -42h-1l21 -20h1zM295 175v-1q-21 14 -31 29v-69h78q-7 4 -13 9t-13 12zM432 331q0 -22 -10.5 -36t-29.5 -14t-30 13.5t-11 36.5v2q0 24 11 37
t30 13t29.5 -13.5t10.5 -36.5v-2zM747 642q0 10 -6 21t-14.5 19t-18.5 13.5t-17 5.5h-600q-8 0 -17.5 -5.5t-18 -13.5t-14.5 -19t-6 -21v-624q0 -11 6 -21.5t14.5 -18.5t18 -13.5t17.5 -5.5h652v158h-533v425h362v-184h-37q-12 136 -142 137h-1q-146 0 -146 -164
q0 -163 146 -163h1q59 0 97 32h201q7 0 17 5.5t18.5 13.5t14.5 18.5t6 21.5v383zM64 -48v-1q-18 10 -32 28.5t-14 38.5v624q0 13 7.5 26.5t19 24.5t24 17.5t22.5 6.5h600q15 0 34 -13t30 -32h-1l22 -22q11 -11 18 -23t7 -25v-383q0 -13 -7.5 -26t-18 -23.5t-22.5 -17
t-22 -6.5h-196l-9 -7t-9 -5h243v-8l37 -36v-185h-667q-10 0 -21.5 7t-22.5 18zM78 -78q11 -11 22 -18l10 -10q12 -12 25 -19.5t25 -7.5h675v197l-27 27v4l-10 9v8l-7 6q18 11 33 31t15 40v383q0 15 -7.5 28.5t-19.5 25.5l-10 10l-8.5 11t-9.5 11l-25 25q-17 20 -35.5 32.5
t-32.5 12.5h-600q-12 0 -26.5 -7.5t-27 -20t-21.5 -28t-9 -30.5v-624q0 -18 13 -37t33 -34zM736 259q0 -9 -5 -17.5t-11.5 -15t-14.5 -11t-14 -4.5h-205q-38 -32 -93 -32h-1q-57 0 -89 26q-19 35 -19 96q0 156 138 156h1q40 0 70 -16q26 -32 32 -94h6l27 -27h52v200l-27 27
v6h-384v-447h6l27 -27h500v-109h-641q-6 0 -16 5q-1 4 -1.5 7t-0.5 6v624q0 9 5 18t12.5 16.5t16 12t14.5 4.5h600q4 0 10 -3q5 -10 5 -18v-383zM389 256q13 -13 33 -13q23 0 35.5 16t12.5 42v2q0 30 -16 46l-17 17q-12 28 -45 28q-24 0 -38 -16t-14 -45v-2q0 -45 31 -58z
M536 451h8v-7zM302 152q3 -4 7 -7h-7v7zM297 157q-3 2 -4.5 3.5l-3.5 3.5h1z" />
    <glyph glyph-name="FL0041h" unicode="A" horiz-adv-x="666" 
d="M297 399l33 -154h-78l33 154h12zM272 655q-27 0 -48 -10.5t-36 -28t-25 -40t-16 -46.5l-122 -526h182l18 84h133l17 -84h181l-121 526q-6 25 -16 47.5t-25.5 39.5t-36 27.5t-47.5 10.5h-38zM310 672q39 0 66 -17.5t45 -43.5h-1l17 -17q20 -20 32.5 -46.5t19.5 -55.5
l125 -542h-209l-36 37h-8l-10 47h-76l-17 -84h-208l-37 37h-9l126 546q6 26 17.5 51t28.5 44.5t41 31.5t55 12h38zM272 683q-34 0 -59.5 -12.5t-44.5 -33.5t-31 -47.5t-18 -53.5l-129 -560h7l27 -27h11l10 -10h4l27 -27h219l17 84h34l5 -20h6l27 -27h6l10 -10h4l27 -27h223
l-127 552q-8 31 -20.5 58t-33.5 48l-8 7q-5 7 -10 13l-10 12l-20 20q-23 27 -51.5 44t-63.5 17h-38zM369 91l-1 8h-153l-18 -84h-125l113 483q6 23 15 44.5t23.5 38t33.5 26.5t45 10h38q27 0 48 -12q13 -16 22 -36t14 -42l117 -512h-136l-10 51zM275 410l-37 -176h7l27 -27
h98l-36 170l-26 25l-1 8h-32z" />
    <glyph glyph-name="B" unicode="B" horiz-adv-x="588" 
d="M263 198q12 8 14 29q-1 0 -9 2h-5v-31zM263 434v-31q14 9 14 28v2q-2 1 -11 1h-3zM226 487q30 0 49 -13t19 -43q0 -29 -17 -39.5t-48 -14.5h-20v110h17zM209 172v110h20q31 -4 48 -14t17 -39q0 -31 -19 -44t-49 -13h-17zM333 4q46 0 74 23t43.5 56t20.5 71t5 68
q0 29 -17.5 56.5t-46.5 50.5q27 22 45.5 50.5t18.5 58.5t-7.5 67.5t-24.5 70.5t-44 56t-67 23h-243q-8 0 -17.5 -5t-17.5 -13.5t-14 -19t-6 -20.5v-534q0 -11 6 -21.5t14 -18.5t17.5 -13.5t17.5 -5.5h243zM64 -3v-1q-18 10 -32 28.5t-14 38.5v534q0 13 7.5 26.5t18.5 24
t23.5 17.5t22.5 7h243q37 0 64.5 -18t46.5 -45h-1l17 -17q19 -19 32 -43.5t21.5 -51t12.5 -52.5t4 -47q0 -30 -16 -58t-41 -51l10 -9q23 -20 35 -46t12 -52q0 -32 -5.5 -72.5t-22.5 -76t-47.5 -59.5t-81.5 -24h-243q-10 0 -22 7t-23 18zM77 -33q12 -12 21 -17l11 -11
q12 -12 25.5 -19.5t25.5 -7.5h243q53 0 85.5 25t50 61.5t23.5 78.5t6 75q0 26 -10.5 50.5t-31.5 45.5l-7 6v1l4 -5q-1 2 -5 6q-2 2 -3 4q23 23 38 50.5t15 57.5q0 22 -4 48.5t-13 54t-22.5 53t-32.5 44.5l-7 6q-10 15 -21 26l-19 19q-24 29 -53 46.5t-63 17.5h-243
q-12 0 -26 -8t-27 -20t-21.5 -27.5t-8.5 -30.5v-534q0 -19 13 -37.5t33 -33.5l1 -1zM90 15q-7 0 -15 5q-2 4 -2 13v534q0 9 5 18t12 16t15.5 11.5t14.5 4.5h243q28 0 51 -14q14 -17 23.5 -38t15.5 -43t9 -44t3 -40q0 -28 -20 -57t-49 -52q32 -26 50.5 -53t18.5 -54
q0 -29 -4.5 -64.5t-19 -67.5t-40.5 -53.5t-68 -21.5h-243zM231 134h25q34 0 55 15t21 50q0 26 -14 40l-17 17q-8 19 -26 26t-45 11h-32v-132h6zM198 498v-132h6l27 -27h29q34 5 53 16.5t19 45.5q0 29 -16 45l-18 17q-8 18 -27 26.5t-45 8.5h-28zM455 277l-9 8q3 -2 5 -4z
" />
    <glyph glyph-name="FL0043h" unicode="C" horiz-adv-x="578" 
d="M210 331q0 66 30 103.5t84 37.5h124v145h-93q-149 0 -217.5 -78t-69.5 -241q0 -60 15.5 -112.5t44.5 -94.5q36 -35 84.5 -55.5t109.5 -20.5h125v145h-93q-19 0 -36 8.5t-31 22.5l-10 9q-29 18 -48 53.5t-19 77.5zM487 677l27 -27v-8l10 -9v-4l27 -27v-232h-157
q-38 0 -59.5 -29t-21.5 -80q0 -9 0.5 -17.5t2.5 -16.5q3 -1 8 -1h162v-6l27 -27v-8l10 -10v-4l27 -27v-232h-158q-67 0 -120.5 22t-93.5 61l-2 2q-17 11 -33 29l-9 9l-1 1q-66 53 -98.5 128t-32.5 164q1 178 79 266.5t244 88.5h162v-6zM476 672h-151q-160 0 -235.5 -86
t-76.5 -258q0 -91 31.5 -164.5t94.5 -118.5v1l12 -12q39 -40 92 -62t119 -22h150v220l-37 37v8h-151q-17 0 -33 10v-1q-8 15 -12 32.5t-4 34.5q0 55 23.5 86t65.5 31h149v220l-37 36v8zM221 331q0 -26 8 -50t22.5 -42.5t33 -29.5t39.5 -11h134v-194h-136q-69 0 -123.5 25.5
t-92 69t-57 102.5t-19.5 127q1 166 71.5 246.5t223.5 80.5h134v-194h-135q-48 0 -75.5 -34.5t-27.5 -95.5z" />
    <glyph glyph-name="D" unicode="D" horiz-adv-x="637" 
d="M263 409v-183q23 14 38.5 42t15.5 63q0 43 -17 72q-15 6 -32 6h-5zM228 462q49 0 77.5 -35t28.5 -96q0 -26 -8.5 -50t-23 -42.5t-34 -29.5t-40.5 -11h-18v264h18zM35 655v-651h195q69 0 123.5 25.5t92 69t57.5 102.5t20 127q-1 167 -78.5 247t-232.5 80h-177zM212 672
q185 0 268 -114h-1l10 -11q87 -88 88 -259q0 -71 -21 -132.5t-60.5 -107t-96.5 -72t-129 -26.5h-207l-37 37h-8v685h194zM7 683v-707h6l27 -27h8l10 -10h4l27 -27h211q74 0 132.5 27t99 74t62 110t21.5 135q-1 175 -90 265l-6 5q-13 18 -27 32v-1l-8 9q-98 115 -272 115
h-205zM73 617h169q123 0 198 -55q70 -78 72 -234q0 -65 -19 -122t-55.5 -99.5t-89 -67t-118.5 -24.5h-157v602zM199 473v-286h6l27 -27h26q23 0 43.5 12t36.5 31.5t25 45t9 52.5q0 36 -10 63.5t-28 45.5l-10 10q-31 53 -96 53h-29zM306 331q0 -16 -5 -34v73q5 -20 5 -39z
" />
    <glyph glyph-name="E" unicode="E" horiz-adv-x="493" 
d="M35 63q0 -11 6 -21.5t14 -18.5t17.5 -13.5t17.5 -5.5h284v158h-165v89h165v158h-165v88h165v158h-284q-8 0 -17.5 -5t-17.5 -13.5t-14 -19t-6 -20.5v-534zM18 597q0 13 7.5 26.5t18.5 24t23.5 17.5t22.5 7h301v-8l37 -36v-184h-166v-18h129v-8l37 -37v-184h-166v-18h129
v-8l37 -37v-184h-298q-10 0 -22 7t-23 18l-22 22v-1q-17 10 -31 28.5t-14 38.5v534zM7 597v-534q0 -19 13.5 -38.5t32.5 -33.5l24 -24q12 -12 21 -17l11 -11q12 -12 25.5 -19.5t25.5 -7.5h306v196l-27 27v4l-10 10v8l-2 2h39v196l-27 27v4l-10 10v8l-2 2h39v196l-27 27v4
l-10 9v8l-27 27v6h-312q-12 0 -26 -8t-27 -20t-21.5 -27.5t-8.5 -30.5zM231 371h132v-109h-165v-111h6l27 -27h132v-109h-273q-7 0 -15 5q-2 4 -2 13v534q0 9 5 18t12 16t15.5 11.5t14.5 4.5h243v-109h-165v-110h6z" />
    <glyph glyph-name="F" unicode="F" horiz-adv-x="493" 
d="M35 4h174v247h165v158h-165v88h165v158h-284q-8 0 -17.5 -5t-17.5 -13.5t-14 -19t-6 -20.5v-593zM18 597q0 13 7.5 26.5t18.5 24t23.5 17.5t22.5 7h301v-8l37 -36v-184h-166v-18h129v-8l37 -37v-184h-166v-247h-200l-36 37h-8v610zM7 597v-621h6l27 -27h7l10 -10h4
l27 -27h212v247h166v196l-27 27v4l-10 10v8l-2 2h39v196l-27 27v4l-10 9v8l-27 27v6h-312q-12 0 -26 -8t-27 -20t-21.5 -27.5t-8.5 -30.5zM231 371h132v-109h-165v-247h-125v552q0 9 5 18t12 16t15.5 11.5t14.5 4.5h243v-109h-165v-110h6z" />
    <glyph glyph-name="G" unicode="G" horiz-adv-x="730" 
d="M312 256q0 -9 -0.5 -17t1.5 -15q3 -1 10 -1h2q37 1 55.5 28t18.5 75v47q-4 -1 -8 -1t-8 -1q-36 -5 -53.5 -33.5t-17.5 -76.5v-5zM210 331q0 59 23 96t70 45v1q12 3 26 4t28 1h103v139h-108q-147 0 -215.5 -80t-68.5 -239q0 -143 51 -219q68 -67 205 -67h1q144 1 211 77
t69 230h-141v-23q0 -62 -28 -100t-81 -39h-2q-45 0 -73 28l-13 13q-28 16 -42.5 49t-14.5 79v5zM499 677l27 -27v-8l10 -9v-4l27 -27v-217h81v-6l27 -27v-8l10 -10v-4l27 -27v-47q0 -173 -75 -259.5t-238 -87.5h-1q-154 0 -229 77l-4 4l-15.5 12t-14.5 14l-17 17
q-112 96 -112 295q0 177 77.5 266t242.5 89h177v-6zM488 672h-166q-160 0 -234.5 -86t-74.5 -258q0 -212 112 -291v1l14 -14q74 -77 225 -77h1q159 1 232 85.5t73 253.5v43l-37 37v8h-223v-48q0 -52 -21.5 -82.5t-63.5 -31.5h-2q-21 0 -39 9v-1q-10 23 -10 66v5q0 51 19 82
t57 36q12 3 24 4t23 1h128v214l-37 36v8zM307 462q-43 -6 -64.5 -41t-21.5 -90v-5q0 -60 26.5 -95.5t75.5 -35.5h2q49 1 75 37t26 94v31h190v-31q0 -161 -70 -242.5t-221 -82.5h-1q-153 0 -223.5 81t-70.5 246q0 162 70.5 244.5t221.5 82.5h149v-188h-114q-13 0 -25.5 -1
t-24.5 -4z" />
    <glyph glyph-name="FL0048h" unicode="H" horiz-adv-x="619" 
d="M326 4h174v651h-174v-246h-117v246h-174v-651h174v247h117v-247zM517 672v-8l37 -36v-678h-201l-36 37h-8v210h-46v-247h-200l-37 37h-8v685h208v-8l37 -36v-202h46v246h208zM298 683v-78l-24 24v4l-10 9v8l-27 27v6h-230v-707h6l27 -27h8l10 -10h4l27 -27h212v64h3
l27 -27h7l10 -10h4l27 -27h213v690l-27 27v4l-10 9v8l-27 27v6h-230zM337 262h-139v-247h-125v602h125v-219h6l27 -27h133v246h125v-602h-125v214l-27 27v6z" />
    <glyph glyph-name="I" unicode="I" horiz-adv-x="537" 
d="M314 497h104v158h-383v-158h105v-335h-105v-158h383v158h-104v335zM435 672v-8l37 -36v-184h-104v-265h67v-8l37 -37v-184h-410l-36 37h-8v192h105v265h-61l-36 36h-8v192h417zM7 683v-214h6l27 -27h8l9 -9h4l27 -27h24v-216h-105v-214h6l27 -27h7l10 -10h4l27 -27h422
v196l-27 27v4l-10 10v8l-27 27v6h-40v216h104v196l-27 27v4l-10 9v8l-27 27v6h-439zM303 151h6l27 -27h71v-109h-334v109h105v351l-27 27v6h-78v109h334v-109h-104v-357z" />
    <glyph glyph-name="J" unicode="J" 
d="M271 195q-22 0 -34.5 9.5t-18.5 26.5t-7.5 41t-1.5 53l-175 1q0 -80 9.5 -140.5t35 -101t71.5 -61.5t119 -21h1q68 0 114.5 20t75.5 58t41.5 92t12.5 122v361h-174v-325q0 -29 -3 -53.5t-11 -42.5t-21 -28.5t-34 -10.5zM226 342v-8l37 -37q0 -25 0.5 -46.5t3.5 -38.5h4
q31 0 41.5 34t10.5 84v342h208v-8l37 -36v-373q0 -71 -13.5 -128t-44.5 -96.5t-80 -61t-120 -21.5h-1q-63 0 -105.5 14.5t-71.5 43.5l-20 20v-1q-57 42 -76 121t-19 197h16zM33 354h-27q0 -117 19 -198t76 -135l23 -23l11 -10.5t13 -10.5l8 -7q30 -30 73.5 -45t109.5 -15h1
q73 0 124 22t82.5 63t45.5 99t14 131v377l-27 27v4l-10 9v8l-27 27v6h-230v-353q0 -26 -2.5 -48t-8.5 -36v25l-27 27v4l-10 10v8l-27 27v6zM72 288l126 -1q2 -36 9.5 -61t29.5 -36l18 -17q16 -16 46 -16q23 0 38 11t23.5 30t12 45.5t3.5 56.5v317h125v-323q0 -65 -12 -117
t-39.5 -88.5t-72 -56t-109.5 -19.5h-1q-54 0 -91.5 12t-63.5 36q-24 39 -33 95.5t-9 131.5z" />
    <glyph glyph-name="K" unicode="K" horiz-adv-x="623" 
d="M213 243l116 -239h183l-155 325l155 326h-183l-116 -240l-4 1v239h-174v-651h174v238zM540 672l-4 -9l38 -35l-162 -339l163 -339h-214l-36 37h-7l-55 112v-149h-200l-37 37h-8v685h208v-8l37 -36v-70l55 114h222zM311 683l-30 -62l-7 7v5l-10 9v8l-27 27v6h-230v-707h6
l27 -27h8l10 -10h4l27 -27h212v84l10 -20h5l27 -27h3l10 -10h4l27 -27h230l-167 347l163 341l-28 27l2 3l-10 9l5 11l-28 27l3 6h-246zM198 251v-236h-125v602h125v-211l7 -2l26 -25l16 -3l116 241h119l-136 -288l149 -314h-148l-100 207l-23 22l-5 12z" />
    <glyph glyph-name="L" unicode="L" horiz-adv-x="493" 
d="M35 63q0 -11 6 -21.5t14 -18.5t17.5 -13.5t17.5 -5.5h284v158h-165v493h-174v-592zM226 672v-8l36 -36v-449h129v-8l37 -37v-184h-298q-10 0 -22 7t-23 18l-22 22v-1q-17 10 -31 28.5t-14 38.5v609h208zM7 683v-620q0 -19 13.5 -38.5t32.5 -33.5l24 -24q12 -12 21 -17
l11 -11q12 -12 25.5 -19.5t25.5 -7.5h306v196l-27 27v4l-10 10v8l-27 27v6h-102v412l-27 27v4l-9 9v8l-27 27v6h-230zM73 33v584h125v-466h6l27 -27h132v-109h-273q-7 0 -15 5q-2 4 -2 13z" />
    <glyph glyph-name="FL004Dh" unicode="M" horiz-adv-x="1022" 
d="M689 372l71 -357h137l-115 512q-5 21 -14 40.5t-22 36.5q-24 13 -51 13h-32q-25 0 -44 -10.5t-33.5 -28t-24 -39t-15.5 -43.5l-38 -156h-18l-27 27h-6l-38 158q-6 21 -15 42t-23 38q-10 5 -21.5 8.5t-24.5 3.5h-32q-26 0 -46 -10t-34.5 -26.5t-24 -38t-15.5 -44.5
l-111 -483h125l79 390h32l1 -8l26 -25l77 -357h132l86 390h32l1 -8zM665 683q37 0 67 -19.5t53 -48.5l16 -15q10 -10 22 -27l6 -5q21 -21 35 -48t20 -56l126 -552h-223l-27 27h-4l-10 10h-7l-27 27h-6l-24 117l-40 -181h-202l-27 27h-4l-10 10h-7l-27 27h-6l-27 121
l-36 -185h-220l-27 27h-4l-10 10h-11l-27 27h-7l127 560q6 27 19 53.5t32 47.5t45.5 33.5t59.5 12.5h32q35 0 63 -17t51 -46l19 -18l9.5 -11.5l9.5 -11.5l9 -9q5 -5 9 -10.5l8 -10.5q7 25 20 49.5t31 43t42.5 30t56.5 11.5h32zM633 672q-31 0 -55 -12.5t-41 -32.5
t-28.5 -45.5t-17.5 -50.5l-9 -34q-7 26 -19.5 51.5t-32.5 45.5l-20 19h1q-18 26 -43.5 42.5t-62.5 16.5h-32q-32 0 -56 -12t-42 -31.5t-29.5 -44.5t-17.5 -51l-124 -546h9l37 -37h209l56 283l54 -246h8l37 -37h191l62 278l49 -241h8l37 -37h209l-124 542q-6 28 -19 54
t-33 46l-17 16h1q-18 27 -46 45.5t-67 18.5h-32zM665 655q27 0 48.5 -10.5t37 -28t26 -40t16.5 -46.5l119 -526h-182l-78 390h-12l-86 -390h-171l-85 390h-12l-79 -390h-182l120 526q6 24 16.5 46.5t26 40t36.5 28t49 10.5h32q27 0 47.5 -11t35.5 -29t25.5 -41t16.5 -46
l37 -150h4l37 150q6 23 16.5 46t25.5 41t35.5 29t47.5 11h32z" />
    <glyph glyph-name="N" unicode="N" 
d="M193 655h-118q-16 0 -27 -11t-13 -25v-615h174v262l4 1l143 -263h121q16 0 26.5 12t10.5 30v607h-173v-253zM204 672l7 -13h-1l33 -32l81 -140v183h207v-8l37 -36v-620q0 -24 -14.5 -40t-37.5 -16h-127l-37 37h-6l-83 151v-188h-200l-37 37h-8v633q3 21 18.5 36.5
t38.5 15.5h129zM75 683q-27 0 -46 -18t-22 -44v-645h6l27 -27h8l10 -10h4l27 -27h212v133l38 -69h5l27 -27h3l10 -10h4l27 -27h131q27 0 43.5 18t16.5 46v624l-27 27v4l-10 9v8l-27 27v6h-229v-137l-34 59l-20 19l-6 11l-11 10l-3 7l-23 23l-5 10h-136zM352 358v9l27 -27
v275h124v-569q0 -13 -7.5 -22t-18.5 -9h-105l-125 232l-23 23l-6 11l-20 -7v-259h-125v573q2 11 10.5 20t21.5 9h96z" />
    <glyph glyph-name="O" unicode="O" horiz-adv-x="730" 
d="M417 390l1 2l1 -1zM410 331q0 40 -17 72q-14 6 -28 6h-2q-43 0 -66 -31.5t-23 -86.5v-5q0 -43 10 -66v1v-1h1h-1q19 -8 39 -8h2q42 1 63.5 31.5t21.5 82.5v5zM426 326q0 -58 -26 -94t-75 -37h-2q-49 0 -75.5 35.5t-26.5 95.5v5q0 61 26.5 96t75.5 35h2q35 -1 58.5 -20
t33.5 -52h-1q0 -1 1 -1v1q9 -26 9 -59v-5zM324 656q-153 0 -223.5 -81.5t-70.5 -246.5t70.5 -246t223.5 -81h1q151 1 221 82.5t70 242.5v3q0 161 -70 243.5t-221 83.5h-1zM325 673q172 -1 249 -106h-1l12 -13q45 -45 65 -109.5t20 -155.5v-3q0 -169 -73 -253.5t-232 -85.5
h-1q-151 0 -225 77l-14 14v-1q-112 79 -112 291q0 174 74.5 259.5t236.5 85.5h1zM324 684q-168 0 -245 -88.5t-77 -267.5q0 -199 112 -295l17 -17q7 -8 14.5 -14l15.5 -12l4 -4q75 -77 229 -77h1q163 1 238 87.5t75 259.5v3q0 94 -20.5 159.5t-66.5 111.5l-5 4
q-6 8 -13 16.5t-15 16.5v-1q-46 57 -111.5 87t-151.5 31h-1zM68 298q0 162 68.5 241t217.5 79h1q111 0 178 -49q72 -78 72 -240v-3q0 -156 -67.5 -234.5t-212.5 -79.5h-1q-137 0 -205 67q-51 76 -51 219zM280 185q28 -28 73 -28h2q53 1 81 39t28 100v5q0 15 -1.5 29t-5.5 26
l6 3l-11 11q-11 25 -27 41l-15 15q-31 46 -85 47h-2q-54 0 -83.5 -38t-29.5 -104v-5q0 -46 14.5 -79t42.5 -49zM399 326q0 -48 -18.5 -75t-55.5 -28h-2h-10q-1 8 -1 15v18v5q0 51 21 80.5t60 29.5q0 -2 1 -3l-2 -3l2 1q2 -9 3.5 -17.5t1.5 -17.5v-5z" />
    <glyph glyph-name="P" unicode="P" horiz-adv-x="588" 
d="M263 434v-40q14 14 14 35v4q-2 1 -11 1h-3zM226 487q30 0 49 -14t19 -44q0 -29 -17 -45.5t-48 -20.5h-20v124h17zM35 4h174v185q131 0 198 59t67 188q0 30 -7 67.5t-23.5 71.5t-43.5 57t-67 23h-243q-8 0 -17.5 -5t-17.5 -13.5t-14 -19t-6 -20.5v-593zM26 -13h-8v610
q0 13 7.5 26.5t18.5 24t23.5 17.5t22.5 7h243q37 0 64 -17.5t45 -44.5h-1l17 -17q19 -19 32 -44t21.5 -51.5t12.5 -53t4 -48.5q0 -132 -69 -195.5t-196 -65.5v-185h-200zM58 -61h4l27 -27h212v185q127 4 196 69.5t69 199.5q0 22 -4 49.5t-13 55.5t-22.5 53.5t-32.5 44.5
l-7 6q-5 7 -10.5 13.5l-10.5 12.5l-20 20q-23 27 -51.5 44.5t-61.5 17.5h-243q-12 0 -26 -8t-27 -20t-21.5 -27.5t-8.5 -30.5v-621h6l27 -27h8zM73 567q0 9 5 18t12 16t15.5 11.5t14.5 4.5h243q14 0 27 -4t24 -10q13 -17 22.5 -38.5t15.5 -44t8.5 -44.5t2.5 -40
q0 -123 -67 -179.5t-198 -56.5v-185h-125v552zM198 498v-146h6l27 -27h29q34 5 53 23t19 51q0 29 -17 46l-16 16q-18 37 -73 37h-28z" />
    <glyph glyph-name="Q" unicode="Q" horiz-adv-x="730" 
d="M408 350q-2 16 -6 29.5t-12 24.5q-17 5 -25 5h-2q-43 0 -66 -31.5t-23 -86.5v-5q0 -19 2.5 -36t8.5 -31v1v-1h1h-1l12.5 -4t13.5 -3v138h97zM328 333v-138h-5q-49 0 -75.5 35.5t-26.5 95.5v5q0 61 26.5 96t75.5 35h2q48 -1 73.5 -35t27.5 -94h-98zM324 656
q-153 0 -223.5 -81.5t-70.5 -246.5t70.5 -246t223.5 -81h1q25 0 49 3h238l-63 90q67 82 67 232v3q0 161 -70 243.5t-221 83.5h-1zM325 673q172 -1 249 -106h-1l12 -13q45 -45 65 -109.5t20 -155.5v-3q0 -149 -65 -232l74 -104h-265q-24 -3 -49 -3h-1q-151 0 -225 77l-14 14
v-1q-112 79 -112 291q0 174 74.5 259.5t236.5 85.5h1zM324 684q-168 0 -245 -88.5t-77 -267.5q0 -199 112 -295l17 -17q7 -8 14.5 -14l15.5 -12l4 -4q75 -77 229 -77h1q25 0 49 3h281l-80 112q31 43 47 101t16 131v3q0 94 -20.5 159.5t-66.5 111.5l-5 4q-6 8 -13 16.5
t-15 16.5v-1q-46 57 -111.5 87t-151.5 31h-1zM68 298q0 162 68.5 241t217.5 79h1q111 0 178 -49q72 -78 72 -240v-3q0 -147 -70 -232l55 -79h-217q-24 -3 -48 -3h-1q-137 0 -205 67q-51 76 -51 219zM280 185q28 -28 73 -28h13v138h98q-3 80 -39 117l-14 14q-29 45 -86 47h-2
q-54 0 -83.5 -38t-29.5 -104v-5q0 -46 14.5 -79t42.5 -49zM392 371q1 -4 3 -10h-42q18 10 39 10z" />
    <glyph glyph-name="R" unicode="R" horiz-adv-x="588" 
d="M263 434v-40q14 14 14 35v4q-2 1 -11 1h-3zM226 487q30 0 49 -14t19 -44q0 -29 -17 -45.5t-48 -20.5h-20v124h17zM35 4h174v171q22 -38 37 -73t29 -73q2 -7 4.5 -13t4.5 -12h195q-17 58 -42.5 117.5t-55.5 108.5q93 58 93 206q0 30 -7 67.5t-23.5 71.5t-43.5 57t-67 23
h-243q-8 0 -17.5 -5t-17.5 -13.5t-14 -19t-6 -20.5v-593zM26 -13h-8v610q0 13 7.5 26.5t18.5 24t23.5 17.5t22.5 7h243q37 0 64 -17.5t45 -44.5h-1l17 -17q19 -19 32 -44t21.5 -51.5t12.5 -53t4 -48.5q0 -147 -88 -211q29 -51 54.5 -112.5t44.5 -122.5h-223l-37 37h-7
q-2 3 -3.5 8t-3.5 11q-2 2 -2 4v-60h-200zM58 -61h4l27 -27h212v37l10 -10h4l27 -27h238q-20 65 -45.5 127.5t-54.5 113.5q86 65 86 213q0 22 -4 49.5t-13 55.5t-22.5 53.5t-32.5 44.5l-7 6q-5 7 -10.5 13.5l-10.5 12.5l-20 20q-23 27 -51.5 44.5t-61.5 17.5h-243
q-12 0 -26 -8t-27 -20t-21.5 -27.5t-8.5 -30.5v-621h6l27 -27h8zM244 152l-20 20q-5 7 -8 14l-18 -4v-167h-125v552q0 9 5 18t12 16t15.5 11.5t14.5 4.5h243q14 0 27 -4t24 -10q13 -17 22.5 -38.5t15.5 -44t8.5 -44.5t2.5 -40q0 -140 -98 -202q31 -51 56.5 -107.5
t42.5 -111.5h-157q-14 35 -28.5 67.5t-34.5 69.5zM198 498v-146h6l27 -27h29q34 5 53 23t19 51q0 29 -17 46l-16 16q-18 37 -73 37h-28z" />
    <glyph glyph-name="S" unicode="S" horiz-adv-x="534" 
d="M88 184l-27.5 10t-24.5 8v-142q0 -13 19.5 -24t47 -18.5t56.5 -12t49 -4.5q51 0 90 16t65 44.5t39 68t13 87.5q0 35 -8 61t-21.5 45.5t-31.5 33.5t-37 25q1 -1 -9 4.5t-16 9.5l-25 13t-24.5 15t-19 16t-7.5 17q0 12 6.5 20.5t16 13t20.5 6.5t20 2q15 0 34 -5.5t39 -12.5
q14 -5 26.5 -9t21.5 -6v151q0 14 -19 21.5t-43.5 11.5t-48 4.5t-32.5 0.5h-7q-98 0 -156.5 -49.5t-58.5 -150.5q0 -45 12 -76.5t31 -53t41 -36t43 -25.5q25 -15 42 -28t17 -33q0 -26 -16 -32.5t-36 -6.5q-22 0 -41.5 6t-39.5 14zM34 219q12 -2 21 -5.5t19 -6.5h-1
q3 -1 5.5 -2t5.5 -2l10 -3q18 -8 36.5 -13.5t38.5 -5.5q14 0 24.5 4t10.5 18l-0.5 0.5t-0.5 1.5h-1v1q-4 2 -8 6v-1q-18 10 -37.5 23t-39.5 33l-12 11v-1q-34 24 -60.5 65.5t-26.5 112.5q0 109 63.5 163t168.5 54h7q9 0 32.5 -1t49.5 -5t48 -13.5t28 -25.5h-1l30 -29
q10 -10 10 -21v-165q-22 3 -38 7.5t-29 9.5l-9 3l-32 9.5t-28 4.5q-14 0 -28 -4.5t-18 -15.5l27 -14q2 -1 3 -2t3 -2q4 -2 8.5 -5t6.5 -6l2 2q23 -13 42.5 -29t33.5 -36h-1l20 -19q23 -23 37.5 -55t14.5 -83t-14 -93t-42 -72.5t-69 -47.5t-96 -17q-18 0 -43 3.5t-50.5 10.5
t-48 16.5t-34.5 21.5l-26 26v-1q-27 16 -27 36v146zM8 210v-150q0 -22 31 -44l25 -25q8 -8 17 -13l15 -15q12 -12 35.5 -22t49.5 -17t52.5 -11t44.5 -4q57 0 99.5 17.5t71.5 49t43.5 75t14.5 96.5q0 54 -15 87t-39 57l-6 5q-5 8 -10.5 14l-11.5 13l-21 20h-1
q-17 20 -34.5 35.5t-37.5 27.5q5 1 9 1.5t8 0.5q9 0 21 -3t26 -8h1l18 -6v1q14 -5 32.5 -10t45.5 -9v174q0 15 -12 27l-18 18q-2 4 -4.5 7t-5.5 7l-33 32l-1 -1q-15 17 -39 26t-48.5 13.5t-45 5.5t-28.5 1h-7q-55 0 -100 -14.5t-76.5 -43t-49 -71t-17.5 -99.5q0 -36 8 -64.5
t21.5 -52t31 -42t37.5 -33.5q1 -3 4 -4q5 -5 11 -10t11 -10q2 -2 4 -3t4 -3l2 -2q20 -21 45 -37q-4 -2 -8 -2h-9q-18 0 -36.5 5.5t-38.5 14.5l-7 2q-3 0 -4 1h-2v3h-5l-1 2l-1 -1q-2 0 -2 1q-3 0 -5 2l-9 3q-5 2 -10 3t-17 3zM73 425q0 98 56 145t151 47h7q5 0 17 -0.5
t26.5 -1t30 -2.5t28.5 -5v-127q-14 3 -33 11q-20 7 -39.5 12.5t-37.5 5.5q-11 0 -23.5 -2.5t-24 -8.5t-19 -16.5t-7.5 -25.5q0 -14 11 -25.5t27 -22.5l9 -8q12 -12 30.5 -23t35.5 -19q9 -7 21 -10l4 -4q5 -3 9.5 -6t9.5 -6q19 -20 30.5 -47t11.5 -69q0 -45 -12.5 -82.5
t-37 -65t-61 -42.5t-85.5 -15q-13 0 -30.5 1.5t-36 4.5t-36.5 7.5t-31 10.5v125q7 -2 15 -5.5t17 -6.5l9 -3v1q22 -9 42 -15t42 -6q12 0 22.5 1.5t19 6.5t13.5 14t5 25q0 20 -17 37l-15 14q-7 14 -21.5 25t-32.5 22l-6 3q-17 8 -34 19t-34 26q-12 20 -19 45.5t-7 60.5z
M58 45h-1l-4 4z" />
    <glyph glyph-name="FL0054h" unicode="T" horiz-adv-x="573" 
d="M332 497h122v158h-419v-158h123v-493h174v493zM471 672v-8l37 -36v-184h-122v-494h-201l-36 37h-8v457h-79l-36 36h-8v192h453zM7 683v-214h6l27 -27h8l9 -9h4l27 -27h42v-430h6l27 -27h7l10 -10h4l27 -27h213v494h122v196l-27 27v4l-10 9v8l-27 27v6h-475zM169 508h-96
v109h370v-109h-122v-493h-125v460l-27 27v6z" />
    <glyph glyph-name="U" unicode="U" 
d="M209 655h-174v-326q0 -79 9.5 -140t35 -102.5t71 -63t118.5 -21.5h1q68 0 114.5 20t75.5 58t41.5 92t12.5 122v361h-174v-325q0 -58 -14 -96t-55 -38q-22 0 -34.5 9.5t-18.5 27t-7.5 41.5t-1.5 53v328zM226 664l37 -36v-341q0 -21 0.5 -40t2.5 -34h5q31 0 41.5 33.5
t10.5 83.5v342h208v-8l37 -36v-373q0 -71 -13.5 -128t-44.5 -96.5t-80 -61t-120 -21.5h-1q-63 0 -105 14.5t-71 43.5l-19 18v-1q-57 42 -76.5 118t-19.5 188v343h208v-8zM237 683h-230v-354q0 -106 19.5 -182t76.5 -128l22 -21q5 -5 11 -9.5t12 -9.5l9 -9q30 -30 73 -45
t109 -15h1q73 0 124 22t82.5 63t45.5 99t14 131v377l-27 27v4l-10 9v8l-27 27v6h-230v-353q0 -26 -2.5 -48t-8.5 -36v356l-27 27v4l-10 9v8l-27 27v6zM198 327q0 -26 1 -48t5 -39.5t12 -30.5t22 -19l17 -16q16 -16 46 -16q23 0 38 10.5t23.5 29.5t12 45t3.5 57v317h125v-323
q0 -65 -12 -117t-39.5 -88.5t-72 -56t-109.5 -19.5h-1q-101 0 -152 45q-26 41 -35 101t-9 140v318h125v-290z" />
    <glyph glyph-name="FL0056h" unicode="V" horiz-adv-x="666" 
d="M310 4q27 0 47.5 10.5t36 27.5t25.5 40t16 47l121 526h-181l-78 -394h-12l-78 394h-182l122 -526q6 -24 16 -47t25.5 -40t36 -27.5t47.5 -10.5h38zM223 662l35 -34l47 -235l56 279h218l-3 -8l38 -36l-125 -540q-6 -27 -17 -52t-28 -44t-40 -30.5t-54 -11.5h-38
q-28 0 -49 10t-38 26l-20 20v-1q-31 18 -49 51t-26 70l-126 546h218zM232 683h-242l129 -560q8 -35 26.5 -68t52.5 -58l19 -19q5 -5 10 -8.5t10 -7.5l12 -12q19 -17 41.5 -27.5t51.5 -10.5h38q33 0 57.5 12t42.5 32t29.5 46t17.5 54l126 545l-28 27l1 4l-10 9l4 9l-28 27
l2 6h-243l-36 -181l-20 101l-26 25l-1 6l-9 8v8l-27 26v7zM272 15q-36 0 -63 22q-16 28 -24 64l-120 516h137l73 -367h6l27 -27h26l78 394h123l-111 -485q-6 -23 -15 -44t-23 -37.5t-33 -26t-43 -9.5h-38z" />
    <glyph glyph-name="FL0057h" unicode="W" horiz-adv-x="914" 
d="M612 269h-6l-62 258q-5 22 -14 42t-22 36q-21 12 -48 12h-26q-26 0 -45 -10t-33.5 -26.5t-23.5 -38t-15 -44.5l-66 -271h-19l-27 27h-6v363h-126v-602h3h206q11 0 24.5 15t21.5 37l73 353h32l1 -8l26 -25l73 -348q2 -6 5 -12.5t5 -11.5h211q14 0 21 8t9 19v575h-126v-375
h-19zM430 683q35 0 63 -16.5t51 -45.5l20 -19q5 -7 10 -12.5t10 -12.5l8 -7v113h231v-6l27 -27v-8l10 -9v-4l27 -27v-633q-3 -23 -19.5 -40t-43.5 -17h-214q-14 0 -29 15l-16 16q-7 3 -16 12l-30 30v1q-19 14 -32 35.5t-20 41.5l-12 51l-25 -126q-5 -16 -13.5 -29.5t-19 -24
t-22.5 -16.5t-24 -6h-206q-25 0 -43 18l-16 16q-4 2 -8 5t-8 7l-31 31q-14 11 -22 23.5t-10 26.5v644h231v-6l27 -27v-8l10 -9v-4l11 -11q19 28 47.5 46.5t70.5 18.5h26zM404 672q-31 0 -54 -11t-39.5 -29.5t-28 -42t-18.5 -48.5v87l-37 36v8h-209v-632q5 -33 32 -47v1
l28 -28q16 -16 37 -16h206q20 0 41 20.5t30 49.5l47 224l40 -182q8 -22 21.5 -44.5t29.5 -28.5v1l27 -27q13 -13 23 -13h214q23 0 37.5 15t17.5 35v628l-37 36v8h-209v-159q-8 23 -19 43.5t-28 37.5l-20 20h1q-18 26 -44 42t-63 16h-26zM430 655q27 0 47.5 -10.5t36 -28
t25.5 -40t16 -46.5l61 -250h4v375h175v-614q-2 -15 -13 -26t-28 -11h-214q-12 0 -24.5 21t-20.5 43v-1l-72 342h-12l-71 -341v1q-8 -26 -25.5 -45.5t-32.5 -19.5h-206q-17 0 -28 11t-13 26v614h175v-390h4l65 265q6 24 16 46.5t25 40t36 28t48 10.5h26z" />
    <glyph glyph-name="X" unicode="X" 
d="M274 138l65 -134h183l-155 325l155 326h-183l-65 -134l-64 134h-184l155 -326l-155 -325h184zM550 672l-4 -9l38 -35l-162 -339l163 -339h-214l-36 37h-7l-26 54l-43 -91h-212l-37 37h-11l163 342l-163 343h222l4 -11h-1l36 -34l22 -49l46 94h222zM321 683l-36 -72
l-12 13l-4 9l-9 8l-3 9l-26 25l-2 8h-247l168 -354l-168 -353h8l27 -27h15l10 -10h4l27 -27h221l29 64h3l27 -27h3l10 -10h4l27 -27h230l-167 347l163 341l-28 27l2 3l-10 9l5 11l-28 27l3 6h-246zM280 149l-6 14l-71 -148h-120l136 284l-151 318h148l58 -121l2 4l28 -27
l69 144h119l-136 -288l149 -314h-148l-53 111z" />
    <glyph glyph-name="y" unicode="Y" 
d="M362 319l160 336h-183l-65 -134l-64 134h-184l161 -335v-316h175v315zM550 672l-4 -9l38 -35l-169 -353v-325h-200l-37 37h-8v327l-171 358h222l4 -11h-1l36 -34l22 -49l46 94h222zM321 683l-36 -72l-12 13l-4 9l-9 8l-3 9l-26 25l-2 8h-247l177 -371v-336h6l27 -27h8
l10 -10h4l27 -27h212v332l170 356l-28 27l2 3l-10 9l5 11l-28 27l3 6h-246zM225 291l-157 326h148l58 -121l2 4l28 -27l69 144h119l-141 -296v-306h-126v276z" />
    <glyph glyph-name="Z" unicode="Z" horiz-adv-x="584" 
d="M254 502l28 -27l-209 -402q0 -9 0.5 -25.5t4.5 -32.5h358v109h-161l-27 27h-8l212 391v2q0 2 0.5 3.5t0.5 2.5l1 1q0 14 -5 32t-15 33q-8 2 -11 2h-334v-110h168zM156 406h-52l-27 27h-4l-9 9h-8l-27 27h-6v215h370q19 0 36 -12.5t34 -32.5l1 -1l22 -21q10 -10 18 -23
l10 -9q21 -21 32 -50t11 -54q0 -8 -1 -11q0 -2 -0.5 -2.5t-0.5 -1.5v-5l-149 -271h69v-6l27 -27v-8l10 -10v-4l27 -27v-196h-393q-20 0 -35 15l-17 17q-7 3 -15 11l-31 32v1q-15 12 -23.5 30.5t-12.5 37t-4.5 34.5t-0.5 24zM18 111q0 -8 0.5 -25.5t4.5 -36.5t12.5 -35.5
t23.5 -22.5v1l28 -29q13 -13 29 -13h385v184l-37 37v8h-119l172 314q0 2 0.5 3.5t0.5 3.5v3q1 1 1 8q0 23 -10.5 50.5t-30.5 47.5l-22 21l-1 1h1q-13 18 -28 30t-35 12h-359v-193h8l36 -36h111zM239 497h-188v159h342q16 0 29.5 -11t23 -26.5t14.5 -34t5 -33.5q0 -5 -1 -6
q0 -2 -0.5 -3.5t-0.5 -3.5l-204 -376h188v-158h-371q-15 0 -23.5 13t-12.5 30t-4.5 33.5t-0.5 24.5z" />
    <glyph glyph-name="FL005Bh" unicode="[" horiz-adv-x="425" 
d="M209 554h97v159h-271v-766h271v158h-97v449zM18 730h305v-8l37 -37v-184h-98v-379h61v-8l37 -36v-184h-298l-36 36h-8v800zM7 -81h6l27 -27h8l9 -9h4l27 -27h310v196l-27 27v4l-10 9v8l-27 27v6h-34v330h98v196l-27 27v4l-10 10v8l-27 27v6h-327v-822zM198 94h6l27 -27
h64v-109h-222v717h222v-110h-97v-471z" />
    <glyph glyph-name="backslash" unicode="\" 
d="M26 655l313 -651h183l-312 651h-184zM225 661h-1l36 -34l325 -677h-214l-36 37h-7l-329 685h222zM229 683h-247l339 -707h5l27 -27h3l10 -10h4l27 -27h230l-331 690l-23 22l-4 9l-9 8l-3 9l-26 25zM505 15h-148l-289 602h148z" />
    <glyph glyph-name="FL005Dh" unicode="]" horiz-adv-x="425" 
d="M73 565h70v-6l27 -27v-465h-97v-109h222v717h-222v-110zM334 735l27 -27v-8l10 -10v-4l27 -27v-803h-310l-27 27h-4l-9 9h-8l-27 27h-6v214h98v330h-17l-27 27h-4l-9 9h-8l-27 27h-6v215h327v-6zM323 730h-305v-193h8l36 -36h54v-379h-98v-192h8l36 -36h298v791l-37 37v8
zM132 105v449h-97v159h271v-766h-271v158h97z" />
    <glyph glyph-name="FL005Eh" unicode="^" horiz-adv-x="666" 
d="M334 377l71 -362h136l-117 512q-5 22 -14 42t-22 36q-21 12 -48 12h-38q-25 0 -44.5 -9.5t-33.5 -26t-23.5 -38t-15.5 -45.5l-113 -483h125l78 395h32l1 -8zM310 683q35 0 64 -17.5t52 -45.5l19 -18l10 -12t10 -13l8 -7q21 -21 33.5 -48t20.5 -58l127 -552h-223l-27 27
h-4l-10 10h-6l-27 27h-6l-22 108l-34 -172h-219l-27 27h-4l-10 10h-11l-27 27h-7l129 560q6 29 18 55.5t30.5 47t44.5 32.5t60 12h38zM272 672q-32 0 -55.5 -11.5t-41 -30.5t-28.5 -44.5t-17 -52.5l-126 -546h9l37 -37h208l55 276l48 -239h8l36 -37h209l-125 542
q-7 29 -19.5 55.5t-32.5 46.5l-17 17h1q-18 26 -45 43.5t-66 17.5h-38zM310 655q27 0 47.5 -10.5t36 -27.5t25.5 -39.5t16 -47.5l121 -526h-181l-78 395h-12l-78 -395h-182l122 526q6 25 16 47.5t25.5 39.5t36 27.5t47.5 10.5h38z" />
    <glyph glyph-name="FL005Fh" unicode="_" horiz-adv-x="515" 
d="M35 -12h361v126h-361v-126zM413 130v-8l37 -36v-151h-388l-36 37h-8v158h395zM7 141v-180h6l27 -27h7l10 -10h4l27 -27h400v163l-27 27v4l-10 9v8l-27 27v6h-417zM73 76h312v-77h-312v77z" />
    <glyph glyph-name="FL0060h" unicode="`" horiz-adv-x="401" 
d="M120 713h170l-108 165h-175zM192 895l10 -15h-1l32 -31l122 -189h-202l-36 36h-5l-137 199h217zM-46 906l152 -221h4l27 -27h2l9 -9h4l27 -27h221l-132 204l-17 16l-8 13l-15 14l-2 4l-21 21l-8 12h-243zM53 840h139l76 -116h-136z" />
    <glyph glyph-name="a" unicode="a" horiz-adv-x="666" 
d="M297 399l33 -154h-78l33 154h12zM272 655q-27 0 -48 -10.5t-36 -28t-25 -40t-16 -46.5l-122 -526h182l18 84h133l17 -84h181l-121 526q-6 25 -16 47.5t-25.5 39.5t-36 27.5t-47.5 10.5h-38zM310 672q39 0 66 -17.5t45 -43.5h-1l17 -17q20 -20 32.5 -46.5t19.5 -55.5
l125 -542h-209l-36 37h-8l-10 47h-76l-17 -84h-208l-37 37h-9l126 546q6 26 17.5 51t28.5 44.5t41 31.5t55 12h38zM272 683q-34 0 -59.5 -12.5t-44.5 -33.5t-31 -47.5t-18 -53.5l-129 -560h7l27 -27h11l10 -10h4l27 -27h219l17 84h34l5 -20h6l27 -27h6l10 -10h4l27 -27h223
l-127 552q-8 31 -20.5 58t-33.5 48l-8 7q-5 7 -10 13l-10 12l-20 20q-23 27 -51.5 44t-63.5 17h-38zM369 91l-1 8h-153l-18 -84h-125l113 483q6 23 15 44.5t23.5 38t33.5 26.5t45 10h38q27 0 48 -12q13 -16 22 -36t14 -42l117 -512h-136l-10 51zM275 410l-37 -176h7l27 -27
h98l-36 170l-26 25l-1 8h-32z" />
    <glyph glyph-name="b" unicode="b" horiz-adv-x="588" 
d="M263 198q12 8 14 29q-1 0 -9 2h-5v-31zM263 434v-31q14 9 14 28v2q-2 1 -11 1h-3zM226 487q30 0 49 -13t19 -43q0 -29 -17 -39.5t-48 -14.5h-20v110h17zM209 172v110h20q31 -4 48 -14t17 -39q0 -31 -19 -44t-49 -13h-17zM333 4q46 0 74 23t43.5 56t20.5 71t5 68
q0 29 -17.5 56.5t-46.5 50.5q27 22 45.5 50.5t18.5 58.5t-7.5 67.5t-24.5 70.5t-44 56t-67 23h-243q-8 0 -17.5 -5t-17.5 -13.5t-14 -19t-6 -20.5v-534q0 -11 6 -21.5t14 -18.5t17.5 -13.5t17.5 -5.5h243zM64 -3v-1q-18 10 -32 28.5t-14 38.5v534q0 13 7.5 26.5t18.5 24
t23.5 17.5t22.5 7h243q37 0 64.5 -18t46.5 -45h-1l17 -17q19 -19 32 -43.5t21.5 -51t12.5 -52.5t4 -47q0 -30 -16 -58t-41 -51l10 -9q23 -20 35 -46t12 -52q0 -32 -5.5 -72.5t-22.5 -76t-47.5 -59.5t-81.5 -24h-243q-10 0 -22 7t-23 18zM77 -33q12 -12 21 -17l11 -11
q12 -12 25.5 -19.5t25.5 -7.5h243q53 0 85.5 25t50 61.5t23.5 78.5t6 75q0 26 -10.5 50.5t-31.5 45.5l-7 6v1l4 -5q-1 2 -5 6q-2 2 -3 4q23 23 38 50.5t15 57.5q0 22 -4 48.5t-13 54t-22.5 53t-32.5 44.5l-7 6q-10 15 -21 26l-19 19q-24 29 -53 46.5t-63 17.5h-243
q-12 0 -26 -8t-27 -20t-21.5 -27.5t-8.5 -30.5v-534q0 -19 13 -37.5t33 -33.5l1 -1zM90 15q-7 0 -15 5q-2 4 -2 13v534q0 9 5 18t12 16t15.5 11.5t14.5 4.5h243q28 0 51 -14q14 -17 23.5 -38t15.5 -43t9 -44t3 -40q0 -28 -20 -57t-49 -52q32 -26 50.5 -53t18.5 -54
q0 -29 -4.5 -64.5t-19 -67.5t-40.5 -53.5t-68 -21.5h-243zM231 134h25q34 0 55 15t21 50q0 26 -14 40l-17 17q-8 19 -26 26t-45 11h-32v-132h6zM198 498v-132h6l27 -27h29q34 5 53 16.5t19 45.5q0 29 -16 45l-18 17q-8 18 -27 26.5t-45 8.5h-28zM455 277l-9 8q3 -2 5 -4z
" />
    <glyph glyph-name="c" unicode="c" horiz-adv-x="505" 
d="M210 331q0 66 30 103.5t84 37.5h51v145h-20q-149 0 -217.5 -78t-69.5 -241q0 -60 15.5 -112.5t44.5 -94.5q36 -35 84.5 -55.5t109.5 -20.5h52v145h-20q-19 0 -36 8.5t-31 22.5l-9 9q-30 17 -49 53t-19 78zM414 677l27 -27v-8l10 -9v-4l27 -27v-232h-84q-39 0 -60.5 -29
t-21.5 -80q0 -9 0.5 -17.5t2.5 -16.5q4 -1 9 -1h89v-6l27 -27v-8l10 -10v-4l27 -27v-232h-85q-67 0 -120.5 22t-93.5 61l-2 2q-15 10 -26 21q-5 4 -8.5 8l-7.5 9l-1 1q-66 53 -98.5 128t-32.5 164q1 178 79 266.5t244 88.5h89v-6zM403 672h-78q-160 0 -235.5 -86t-76.5 -258
q0 -91 31.5 -164.5t94.5 -118.5v1l12 -12q39 -40 92 -62t119 -22h77v220l-37 37v8h-78q-18 0 -34 10v-1q-8 15 -12 32.5t-4 34.5q0 55 23.5 86t66.5 31h76v220l-37 36v8zM221 331q0 -26 8 -50t22 -42.5t33 -29.5t40 -11h61v-194h-63q-69 0 -123.5 25.5t-92 69t-57 102.5
t-19.5 127q1 166 71.5 246.5t223.5 80.5h61v-194h-62q-48 0 -75.5 -34.5t-27.5 -95.5z" />
    <glyph glyph-name="d" unicode="d" horiz-adv-x="622" 
d="M302 331q0 45 -18 72l-21 6v-173q17 16 28 41t11 54zM213 462q49 0 77.5 -35t28.5 -96q0 -26 -8.5 -50t-23 -42.5t-34 -29.5t-40.5 -11h-4v264h4zM35 655v-651h180q69 0 123.5 25.5t92 69t57.5 102.5t20 127q-1 166 -71.5 246.5t-224.5 80.5h-177zM212 672q91 0 152 -26
t100 -78h-1l14 -15q45 -45 64.5 -109.5t20.5 -155.5q0 -71 -21 -132.5t-60.5 -107t-96.5 -72t-129 -26.5h-192l-37 37h-8v685h194zM7 683v-707h6l27 -27h8l10 -10h4l27 -27h196q74 0 132.5 27t99 74t62 110t21.5 135q-1 94 -21 159.5t-66 111.5l-6 5q-13 18 -27 32v-1l-2 2
q-47 58 -111.5 87t-154.5 29h-205zM73 617h169q115 0 184 -49q36 -39 53 -99t18 -141q0 -65 -19 -122t-55.5 -99.5t-89 -67t-118.5 -24.5h-142v602zM198 473v-286h6l27 -27h12q23 0 43.5 12t36.5 31.5t25 45t9 52.5q0 36 -10 63.5t-28 45.5l-10 10q-31 53 -96 53h-15z" />
    <glyph glyph-name="e" unicode="e" horiz-adv-x="493" 
d="M35 63q0 -11 6 -21.5t14 -18.5t17.5 -13.5t17.5 -5.5h284v158h-165v89h165v158h-165v88h165v158h-284q-8 0 -17.5 -5t-17.5 -13.5t-14 -19t-6 -20.5v-534zM18 597q0 13 7.5 26.5t18.5 24t23.5 17.5t22.5 7h301v-8l37 -36v-184h-166v-18h129v-8l37 -37v-184h-166v-18h129
v-8l37 -37v-184h-298q-10 0 -22 7t-23 18l-22 22v-1q-17 10 -31 28.5t-14 38.5v534zM7 597v-534q0 -19 13.5 -38.5t32.5 -33.5l24 -24q12 -12 21 -17l11 -11q12 -12 25.5 -19.5t25.5 -7.5h306v196l-27 27v4l-10 10v8l-2 2h39v196l-27 27v4l-10 10v8l-2 2h39v196l-27 27v4
l-10 9v8l-27 27v6h-312q-12 0 -26 -8t-27 -20t-21.5 -27.5t-8.5 -30.5zM231 371h132v-109h-165v-111h6l27 -27h132v-109h-273q-7 0 -15 5q-2 4 -2 13v534q0 9 5 18t12 16t15.5 11.5t14.5 4.5h243v-109h-165v-110h6z" />
    <glyph glyph-name="f" unicode="f" horiz-adv-x="493" 
d="M35 4h174v247h165v158h-165v88h165v158h-284q-8 0 -17.5 -5t-17.5 -13.5t-14 -19t-6 -20.5v-593zM18 597q0 13 7.5 26.5t18.5 24t23.5 17.5t22.5 7h301v-8l37 -36v-184h-166v-18h129v-8l37 -37v-184h-166v-247h-200l-36 37h-8v610zM7 597v-621h6l27 -27h7l10 -10h4
l27 -27h212v247h166v196l-27 27v4l-10 10v8l-2 2h39v196l-27 27v4l-10 9v8l-27 27v6h-312q-12 0 -26 -8t-27 -20t-21.5 -27.5t-8.5 -30.5zM231 371h132v-109h-165v-247h-125v552q0 9 5 18t12 16t15.5 11.5t14.5 4.5h243v-109h-165v-110h6z" />
    <glyph glyph-name="g" unicode="g" horiz-adv-x="730" 
d="M210 331q0 59 23 96t70 45v1q12 3 26 4t28 1h44v139h-49q-147 0 -215.5 -80t-68.5 -239q0 -143 51 -219q68 -67 205 -67h1q138 1 205.5 71.5t73.5 213.5h-140v-1q0 -62 -28 -100t-81 -39h-2q-45 0 -73 28l-13 13q-28 16 -42.5 49t-14.5 79v5zM440 677l27 -27v-8l10 -9v-4
l27 -27v-226h-77q-10 0 -21 -1t-23 -4q-36 -5 -53.5 -33.5t-17.5 -76.5v-5q0 -9 -0.5 -17t1.5 -15q3 -1 10 -1h2q37 1 55.5 28t18.5 75v37h245v-6l27 -27v-8l10 -10v-4l27 -27v-25q0 -173 -75 -259.5t-238 -87.5h-1q-154 0 -229 77l-4 4l-15.5 12t-14.5 14l-17 17
q-112 96 -112 295q0 177 77.5 266t242.5 89h118v-6zM429 672h-107q-160 0 -234.5 -86t-74.5 -258q0 -212 112 -291v1l14 -14q74 -77 225 -77h1q159 1 232 85.5t73 253.5v21l-37 37v8h-223v-26q0 -52 -21.5 -82.5t-63.5 -31.5h-2q-21 0 -39 9v-1q-10 23 -10 66v5q0 51 19 82
t57 36q12 3 24 4t23 1h69v214l-37 36v8zM307 462q-43 -6 -64.5 -41t-21.5 -90v-5q0 -60 26.5 -95.5t75.5 -35.5h2q49 1 75 37t26 94v9h190v-9q0 -161 -70 -242.5t-221 -82.5h-1q-153 0 -223.5 81t-70.5 246q0 162 70.5 244.5t221.5 82.5h90v-188h-55q-13 0 -25.5 -1
t-24.5 -4z" />
    <glyph glyph-name="h" unicode="h" horiz-adv-x="619" 
d="M326 4h174v651h-174v-246h-117v246h-174v-651h174v247h117v-247zM517 672v-8l37 -36v-678h-201l-36 37h-8v210h-46v-247h-200l-37 37h-8v685h208v-8l37 -36v-202h46v246h208zM298 683v-78l-24 24v4l-10 9v8l-27 27v6h-230v-707h6l27 -27h8l10 -10h4l27 -27h212v64h3
l27 -27h7l10 -10h4l27 -27h213v690l-27 27v4l-10 9v8l-27 27v6h-230zM337 262h-139v-247h-125v602h125v-219h6l27 -27h133v246h125v-602h-125v214l-27 27v6z" />
    <glyph glyph-name="i" unicode="i" horiz-adv-x="326" 
d="M34 4h174v651h-174v-651zM224 672v-8l37 -36v-678h-199l-36 37h-8v685h206zM7 683v-707h6l27 -27h7l10 -10h4l27 -27h211v690l-27 27v4l-10 9v8l-27 27v6h-228zM72 617h125v-602h-125v602z" />
    <glyph glyph-name="j" unicode="j" 
d="M271 195q-22 0 -34.5 9.5t-18.5 26.5t-7.5 41t-1.5 53l-175 1q0 -80 9.5 -140.5t35 -101t71.5 -61.5t119 -21h1q68 0 114.5 20t75.5 58t41.5 92t12.5 122v361h-174v-325q0 -29 -3 -53.5t-11 -42.5t-21 -28.5t-34 -10.5zM226 342v-8l37 -37q0 -25 0.5 -46.5t3.5 -38.5h4
q31 0 41.5 34t10.5 84v342h208v-8l37 -36v-373q0 -71 -13.5 -128t-44.5 -96.5t-80 -61t-120 -21.5h-1q-63 0 -105.5 14.5t-71.5 43.5l-20 20v-1q-57 42 -76 121t-19 197h16zM33 354h-27q0 -117 19 -198t76 -135l23 -23l11 -10.5t13 -10.5l8 -7q30 -30 73.5 -45t109.5 -15h1
q73 0 124 22t82.5 63t45.5 99t14 131v377l-27 27v4l-10 9v8l-27 27v6h-230v-353q0 -26 -2.5 -48t-8.5 -36v25l-27 27v4l-10 10v8l-27 27v6zM72 288l126 -1q2 -36 9.5 -61t29.5 -36l18 -17q16 -16 46 -16q23 0 38 11t23.5 30t12 45.5t3.5 56.5v317h125v-323q0 -65 -12 -117
t-39.5 -88.5t-72 -56t-109.5 -19.5h-1q-54 0 -91.5 12t-63.5 36q-24 39 -33 95.5t-9 131.5z" />
    <glyph glyph-name="k" unicode="k" horiz-adv-x="623" 
d="M213 243l116 -239h183l-155 325l155 326h-183l-116 -240l-4 1v239h-174v-651h174v238zM540 672l-4 -9l38 -35l-162 -339l163 -339h-214l-36 37h-7l-55 112v-149h-200l-37 37h-8v685h208v-8l37 -36v-70l55 114h222zM311 683l-30 -62l-7 7v5l-10 9v8l-27 27v6h-230v-707h6
l27 -27h8l10 -10h4l27 -27h212v84l10 -20h5l27 -27h3l10 -10h4l27 -27h230l-167 347l163 341l-28 27l2 3l-10 9l5 11l-28 27l3 6h-246zM198 251v-236h-125v602h125v-211l7 -2l26 -25l16 -3l116 241h119l-136 -288l149 -314h-148l-100 207l-23 22l-5 12z" />
    <glyph glyph-name="l" unicode="l" horiz-adv-x="493" 
d="M35 63q0 -11 6 -21.5t14 -18.5t17.5 -13.5t17.5 -5.5h284v158h-165v493h-174v-592zM226 672v-8l36 -36v-449h129v-8l37 -37v-184h-298q-10 0 -22 7t-23 18l-22 22v-1q-17 10 -31 28.5t-14 38.5v609h208zM7 683v-620q0 -19 13.5 -38.5t32.5 -33.5l24 -24q12 -12 21 -17
l11 -11q12 -12 25.5 -19.5t25.5 -7.5h306v196l-27 27v4l-10 10v8l-27 27v6h-102v412l-27 27v4l-9 9v8l-27 27v6h-230zM73 33v584h125v-466h6l27 -27h132v-109h-273q-7 0 -15 5q-2 4 -2 13z" />
    <glyph glyph-name="m" unicode="m" horiz-adv-x="914" 
d="M430 4q27 0 47.5 11t36 28.5t25.5 40t16 45.5l61 250h4v-375h175v615q-2 14 -13 25t-28 11h-214q-12 0 -24.5 -20.5t-20.5 -42.5v1l-72 -342h-12l-71 341v-1q-8 26 -25.5 45t-32.5 19h-206q-17 0 -28 -11t-13 -25v-615h175v391h4l65 -266q6 -23 16 -45.5t25 -40t36 -28.5
t48 -11h26zM361 608q23 -23 31 -48l39 -185l48 223q4 13 11 26t15 23.5t17.5 17.5t17.5 7h214q17 0 30.5 -9t21.5 -23h-1l27 -26q14 -14 17 -34v-630h-201l-37 37h-8v78q-8 -23 -19.5 -44t-28 -36.5t-37.5 -25t-48 -9.5h-26q-27 0 -48.5 9.5t-38.5 26.5l-21 20v-1
q-28 17 -45.5 48t-26.5 64v-167h-201l-37 37h-8v633q3 21 19 36.5t39 15.5h206q15 0 32 -13t29 -33h-1zM369 616l-20 19q-17 21 -35 34.5t-32 13.5h-206q-27 0 -46.5 -18t-22.5 -44v-645h6l27 -27h8l10 -10h4l27 -27h213v110l11 -10.5l12 -10.5l24 -23q10 -10 21 -17l11 -11
q18 -18 41 -28t52 -10h26q36 0 62.5 15t44.5 40l18 -18h8l10 -10h4l27 -27h213v639q-5 25 -19 39l-16 15q-5 10 -12 17l-26 25q-13 17 -28.5 26.5t-31.5 9.5h-214q-10 0 -21 -7.5t-21 -19.5t-18 -26.5t-12 -28.5l-27 -123l-11 54q-5 14 -12.5 26.5t-20.5 25.5l-8 7
q-4 6 -9 12zM404 15q-37 0 -63 24q-16 28 -24 62l-66 272l-25 25l-2 8h-25v-391h-126v574q2 11 10.5 19.5t22.5 8.5h206q3 0 4 -1q7 -10 12 -23l73 -353h6l27 -27h26l73 348q8 20 18 38t19 18h214v-1v-601h-126v342l-27 27v6h-25l-62 -258q-6 -21 -15 -42t-23 -37.5t-33 -27
t-43 -10.5h-26z" />
    <glyph glyph-name="n" unicode="n" 
d="M75 655q-16 0 -27 -11t-13 -25v-615h174v262l4 1l121 -214q3 -8 9.5 -16.5t13 -16t13 -12t9.5 -4.5h98q16 0 26.5 12t10.5 30v607h-173v-246l-4 -1l-120 211q-9 19 -21.5 28t-20.5 10h-100zM176 672q10 -1 25 -10.5t27 -29.5h-1l25 -24q2 -5 8 -9q2 -2 3 -5t4 -9h3
l54 -97v182h207v-8l37 -36v-620q0 -24 -14.5 -40t-37.5 -16h-97q-9 0 -33 24l-18 18v-1q-13 6 -28.5 23.5t-21.5 31.5l-55 95v-191h-200l-37 37h-8v633q3 21 18.5 36.5t38.5 15.5h101zM75 683q-27 0 -46 -18t-22 -44v-645h6l27 -27h8l10 -10h4l27 -27h212v140l13 -22v1
q7 -11 18.5 -22.5t24.5 -21.5l21 -21q16 -16 25 -21l7 -7q26 -26 39 -26h97q27 0 43.5 18t16.5 46v624l-27 27v4l-10 9v8l-27 27v6h-229v-133l-8 15l-3 3q-2 5 -6 9l-6 6q-1 0 -1 2l-11 11l-1 2h-1l-2 1q-2 5 -3.5 6.5t-3.5 4.5q-3 2 -5 6l-26 24q-17 23 -33.5 33.5
t-26.5 11.5h-101zM363 367l16 3v245h124v-569q0 -13 -7.5 -22t-18.5 -9h-98q-2 0 -4 1q-4 7 -5 13l-123 217l-21 20l-7 14l-21 -5v-260h-125v573q2 11 10.5 20t21.5 9h99q2 -4 3 -5l124 -218h4z" />
    <glyph glyph-name="o" unicode="o" horiz-adv-x="730" 
d="M417 390l1 2l1 -1zM410 331q0 40 -17 72q-14 6 -28 6h-2q-43 0 -66 -31.5t-23 -86.5v-5q0 -43 10 -66v1v-1h1h-1q19 -8 39 -8h2q42 1 63.5 31.5t21.5 82.5v5zM426 326q0 -58 -26 -94t-75 -37h-2q-49 0 -75.5 35.5t-26.5 95.5v5q0 61 26.5 96t75.5 35h2q35 -1 58.5 -20
t33.5 -52h-1q0 -1 1 -1v1q9 -26 9 -59v-5zM324 656q-153 0 -223.5 -81.5t-70.5 -246.5t70.5 -246t223.5 -81h1q151 1 221 82.5t70 242.5v3q0 161 -70 243.5t-221 83.5h-1zM325 673q172 -1 249 -106h-1l12 -13q45 -45 65 -109.5t20 -155.5v-3q0 -169 -73 -253.5t-232 -85.5
h-1q-151 0 -225 77l-14 14v-1q-112 79 -112 291q0 174 74.5 259.5t236.5 85.5h1zM324 684q-168 0 -245 -88.5t-77 -267.5q0 -199 112 -295l17 -17q7 -8 14.5 -14l15.5 -12l4 -4q75 -77 229 -77h1q163 1 238 87.5t75 259.5v3q0 94 -20.5 159.5t-66.5 111.5l-5 4
q-6 8 -13 16.5t-15 16.5v-1q-46 57 -111.5 87t-151.5 31h-1zM68 298q0 162 68.5 241t217.5 79h1q111 0 178 -49q72 -78 72 -240v-3q0 -156 -67.5 -234.5t-212.5 -79.5h-1q-137 0 -205 67q-51 76 -51 219zM280 185q28 -28 73 -28h2q53 1 81 39t28 100v5q0 15 -1.5 29t-5.5 26
l6 3l-11 11q-11 25 -27 41l-15 15q-31 46 -85 47h-2q-54 0 -83.5 -38t-29.5 -104v-5q0 -46 14.5 -79t42.5 -49zM399 326q0 -48 -18.5 -75t-55.5 -28h-2h-10q-1 8 -1 15v18v5q0 51 21 80.5t60 29.5q0 -2 1 -3l-2 -3l2 1q2 -9 3.5 -17.5t1.5 -17.5v-5z" />
    <glyph glyph-name="p" unicode="p" horiz-adv-x="588" 
d="M263 434v-40q14 14 14 35v4q-2 1 -11 1h-3zM226 487q30 0 49 -14t19 -44q0 -29 -17 -45.5t-48 -20.5h-20v124h17zM35 4h174v185q131 0 198 59t67 188q0 30 -7.5 67.5t-24.5 71.5t-44.5 57t-67.5 23h-240q-8 0 -17.5 -5t-17.5 -13.5t-14 -19t-6 -20.5v-593zM26 -13h-8v610
q0 13 7.5 26.5t18.5 24t23.5 17.5t22.5 7h240q37 0 63.5 -17.5t46.5 -44.5h-1l18 -18q19 -19 32.5 -44t22 -51.5t12.5 -53t4 -47.5q0 -132 -69 -195.5t-196 -65.5v-185h-200zM58 -61h4l27 -27h212v185q127 4 196 69.5t69 199.5q0 22 -4 49t-13 54.5t-23 53t-33 45.5l-7 6
q-10 15 -21 26l-21 21q-24 27 -51.5 44.5t-62.5 17.5h-240q-12 0 -26 -8t-27 -20t-21.5 -27.5t-8.5 -30.5v-621h6l27 -27h8zM73 567q0 9 5 18t12 16t15.5 11.5t14.5 4.5h240q15 0 28 -4t24 -11q14 -17 23.5 -38.5t15.5 -44t9 -44t3 -39.5q0 -123 -67 -179.5t-198 -56.5v-185
h-125v552zM198 498v-146h6l27 -27h29q34 5 53 23t19 51q0 29 -17 46l-16 16q-18 37 -73 37h-28z" />
    <glyph glyph-name="q" unicode="q" horiz-adv-x="730" 
d="M408 350q-2 16 -6 29.5t-12 24.5q-17 5 -25 5h-2q-43 0 -66 -31.5t-23 -86.5v-5q0 -19 2.5 -36t8.5 -31v1v-1h1h-1l12.5 -4t13.5 -3v138h97zM328 333v-138h-5q-49 0 -75.5 35.5t-26.5 95.5v5q0 61 26.5 96t75.5 35h2q48 -1 73.5 -35t27.5 -94h-98zM324 656
q-153 0 -223.5 -81.5t-70.5 -246.5t70.5 -246t223.5 -81h1q25 0 49 3h238l-63 90q67 82 67 232v3q0 161 -70 243.5t-221 83.5h-1zM325 673q172 -1 249 -106h-1l12 -13q45 -45 65 -109.5t20 -155.5v-3q0 -149 -65 -232l74 -104h-265q-24 -3 -49 -3h-1q-151 0 -225 77l-14 14
v-1q-112 79 -112 291q0 174 74.5 259.5t236.5 85.5h1zM324 684q-168 0 -245 -88.5t-77 -267.5q0 -199 112 -295l17 -17q7 -8 14.5 -14l15.5 -12l4 -4q75 -77 229 -77h1q25 0 49 3h281l-80 112q31 43 47 101t16 131v3q0 94 -20.5 159.5t-66.5 111.5l-5 4q-6 8 -13 16.5
t-15 16.5v-1q-46 57 -111.5 87t-151.5 31h-1zM68 298q0 162 68.5 241t217.5 79h1q111 0 178 -49q72 -78 72 -240v-3q0 -147 -70 -232l55 -79h-217q-24 -3 -48 -3h-1q-137 0 -205 67q-51 76 -51 219zM280 185q28 -28 73 -28h13v138h98q-3 80 -39 117l-14 14q-29 45 -86 47h-2
q-54 0 -83.5 -38t-29.5 -104v-5q0 -46 14.5 -79t42.5 -49zM392 371q1 -4 3 -10h-42q18 10 39 10z" />
    <glyph glyph-name="r" unicode="r" horiz-adv-x="588" 
d="M263 434v-40q14 14 14 35v4q-2 1 -11 1h-3zM226 487q30 0 49 -14t19 -44q0 -29 -17 -45.5t-48 -20.5h-20v124h17zM35 4h174v171q22 -38 37 -73t29 -73q2 -7 4.5 -13t4.5 -12h195q-17 58 -42.5 117.5t-55.5 108.5q93 58 93 206q0 30 -7.5 67.5t-24.5 71.5t-44.5 57
t-67.5 23h-240q-8 0 -17.5 -5t-17.5 -13.5t-14 -19t-6 -20.5v-593zM26 -13h-8v610q0 13 7.5 26.5t18.5 24t23.5 17.5t22.5 7h240q37 0 63.5 -17.5t46.5 -44.5h-1l18 -18q19 -19 32.5 -44t22 -51.5t12.5 -53t4 -47.5q0 -147 -88 -211q29 -51 54.5 -112.5t44.5 -122.5h-223
l-37 37h-7q-2 3 -3.5 8t-3.5 11q-2 2 -2 4v-60h-200zM58 -61h4l27 -27h212v37l10 -10h4l27 -27h238q-20 65 -45.5 127.5t-54.5 113.5q86 65 86 213q0 22 -4 49t-13 54.5t-23 53t-33 45.5l-8 7q-5 7 -10 13l-10 12l-21 21q-24 27 -51.5 44.5t-62.5 17.5h-240q-12 0 -26 -8
t-27 -20t-21.5 -27.5t-8.5 -30.5v-621h6l27 -27h8zM244 152l-20 20q-5 7 -8 14l-18 -4v-167h-125v552q0 9 5 18t12 16t15.5 11.5t14.5 4.5h240q15 0 28 -4t24 -11q14 -17 23.5 -38.5t15.5 -44t9 -44t3 -39.5q0 -140 -98 -202q31 -51 56.5 -107.5t42.5 -111.5h-157
q-14 35 -28.5 67.5t-34.5 69.5zM198 498v-146h6l27 -27h29q34 5 53 23t19 51q0 29 -17 46l-16 16q-18 37 -73 37h-28z" />
    <glyph glyph-name="s" unicode="s" horiz-adv-x="534" 
d="M88 186l-27.5 10t-24.5 8v-144q0 -13 19.5 -24t47 -18.5t56.5 -12t49 -4.5q51 0 90 16t65 44.5t39 68t13 87.5q0 35 -8 61t-21.5 45.5t-31.5 33.5t-37 25q1 -1 -9 4.5t-16 9.5l-25 13t-24.5 15t-19 16t-7.5 17q0 12 6.5 20.5t16 13t20.5 6.5t20 2q15 0 34 -5.5t39 -12.5
q14 -5 26.5 -9t21.5 -6v151q0 14 -19 21.5t-43.5 11.5t-48 4.5t-32.5 0.5h-7q-98 0 -156.5 -49.5t-58.5 -150.5q0 -45 12 -76.5t31 -53t41 -36t43 -25.5q25 -15 42 -28t17 -33q0 -26 -16 -32t-36 -6q-22 0 -41.5 6.5t-39.5 14.5zM34 221q12 -2 21 -5.5t19 -6.5h-1
q3 -1 5.5 -2t5.5 -2l10 -3q1 -1 3 -1t3 -1l4.5 -1.5l1.5 -0.5q16 -6 31 -11t32 -5q14 0 24.5 3.5t10.5 17.5l-0.5 0.5t-0.5 1.5h-1v1q-4 2 -8 6v-1q-18 10 -37.5 23t-39.5 33l-12 11v-1q-34 24 -60.5 65.5t-26.5 112.5q0 109 63.5 163t168.5 54h7q9 0 32.5 -1t49.5 -5
t48 -13.5t28 -25.5h-1l30 -29q10 -10 10 -21v-165q-22 3 -38 7.5t-29 9.5l-9 3l-32 9.5t-28 4.5q-14 0 -28 -4.5t-18 -15.5l27 -14q2 -1 3 -2t3 -2q4 -2 8.5 -5t6.5 -6l2 2q23 -13 42.5 -29t33.5 -36h-1l20 -19q23 -23 37.5 -55t14.5 -83t-14 -93t-42 -72.5t-69 -47.5
t-96 -17q-18 0 -43 3.5t-50.5 10.5t-48 16.5t-34.5 21.5l-26 26v-1q-27 16 -27 36v148zM8 212v-152q0 -22 31 -44l25 -25q8 -8 17 -13l15 -15q12 -12 35.5 -22t49.5 -17t52.5 -11t44.5 -4q57 0 99.5 17.5t71.5 49t43.5 75t14.5 96.5q0 54 -15 87t-39 57l-6 5q-5 8 -10.5 14
l-11.5 13l-21 20h-1q-17 20 -34.5 35.5t-37.5 27.5q5 1 9 1.5t8 0.5q9 0 21 -3t26 -8h1l18 -6v1q14 -5 32.5 -10t45.5 -9v174q0 15 -12 27l-18 18q-2 4 -4.5 7t-5.5 7l-33 32l-1 -1q-15 17 -39 26t-48.5 13.5t-45 5.5t-28.5 1h-7q-55 0 -100 -14.5t-76.5 -43t-49 -71
t-17.5 -99.5q0 -36 8 -64.5t21.5 -52t31 -42t37.5 -33.5q1 -3 4 -4q5 -5 11 -10t11 -10q2 -2 4 -3t4 -3l2 -2q11 -11 22 -20t22 -17q-3 -1 -7 -1h-9q-12 0 -24.5 4t-26.5 9h-3q-1 0 -1.5 0.5t-1.5 0.5l-1 1l-3 1.5t-4 0.5q-2 2 -3 2l-14 4q-3 0 -4 1h-2v3h-5l-1 2l-1 -1
q-2 0 -2 1q-3 0 -5 2l-9 3q-5 2 -10 3t-17 3zM73 425q0 98 56 145t151 47h7q5 0 17 -0.5t26.5 -1t30 -2.5t28.5 -5v-127q-14 3 -33 11q-20 7 -39.5 12.5t-37.5 5.5q-11 0 -23.5 -2.5t-24 -8.5t-19 -16.5t-7.5 -25.5q0 -14 11 -25.5t27 -22.5l9 -8q12 -12 30.5 -23t35.5 -19
q9 -7 21 -10l4 -4q5 -3 9.5 -6t9.5 -6q19 -20 30.5 -47t11.5 -69q0 -45 -12.5 -82.5t-37 -65t-61 -42.5t-85.5 -15q-13 0 -30.5 1.5t-36 4.5t-36.5 7.5t-31 10.5v127q7 -2 15 -5.5t17 -6.5l9 -3v1l41 -15t43 -7q12 0 22.5 1.5t19 6t13.5 13.5t5 25q0 20 -17 37l-15 14
q-7 14 -21.5 25t-32.5 22l-6 3q-17 8 -34 19t-34 26q-12 20 -19 45.5t-7 60.5zM58 45h-1l-4 4z" />
    <glyph glyph-name="t" unicode="t" horiz-adv-x="573" 
d="M332 497h122v158h-419v-158h123v-493h174v493zM471 672v-8l37 -36v-184h-122v-494h-201l-36 37h-8v457h-79l-36 36h-8v192h453zM7 683v-214h6l27 -27h8l9 -9h4l27 -27h42v-430h6l27 -27h7l10 -10h4l27 -27h213v494h122v196l-27 27v4l-10 9v8l-27 27v6h-475zM169 508h-96
v109h370v-109h-122v-493h-125v460l-27 27v6z" />
    <glyph glyph-name="u" unicode="u" 
d="M209 655h-174v-326q0 -79 9.5 -140t35 -102.5t71 -63t118.5 -21.5h1q68 0 114.5 20t75.5 58t41.5 92t12.5 122v361h-174v-325q0 -58 -14 -96t-55 -38q-22 0 -34.5 9.5t-18.5 27t-7.5 41.5t-1.5 53v328zM226 664l37 -36v-341q0 -21 0.5 -40t2.5 -34h5q31 0 41.5 33.5
t10.5 83.5v342h208v-8l37 -36v-373q0 -71 -13.5 -128t-44.5 -96.5t-80 -61t-120 -21.5h-1q-63 0 -105 14.5t-71 43.5l-19 18v-1q-57 42 -76.5 118t-19.5 188v343h208v-8zM237 683h-230v-354q0 -106 19.5 -182t76.5 -128l22 -21q5 -5 11 -9.5t12 -9.5l9 -9q30 -30 73 -45
t109 -15h1q73 0 124 22t82.5 63t45.5 99t14 131v377l-27 27v4l-10 9v8l-27 27v6h-230v-353q0 -26 -2.5 -48t-8.5 -36v356l-27 27v4l-10 9v8l-27 27v6zM198 327q0 -26 1 -48t5 -39.5t12 -30.5t22 -19l17 -16q16 -16 46 -16q23 0 38 10.5t23.5 29.5t12 45t3.5 57v317h125v-323
q0 -65 -12 -117t-39.5 -88.5t-72 -56t-109.5 -19.5h-1q-101 0 -152 45q-26 41 -35 101t-9 140v318h125v-290z" />
    <glyph glyph-name="v" unicode="v" horiz-adv-x="666" 
d="M310 4q27 0 47.5 10.5t36 27.5t25.5 40t16 47l121 526h-181l-78 -394h-12l-78 394h-182l122 -526q6 -24 16 -47t25.5 -40t36 -27.5t47.5 -10.5h38zM223 662l35 -34l47 -235l56 279h218l-3 -8l38 -36l-125 -540q-6 -27 -17 -52t-28 -44t-40 -30.5t-54 -11.5h-38
q-28 0 -49 10t-38 26l-20 20v-1q-31 18 -49 51t-26 70l-126 546h218zM232 683h-242l129 -560q8 -35 26.5 -68t52.5 -58l19 -19q5 -5 10 -8.5t10 -7.5l12 -12q19 -17 41.5 -27.5t51.5 -10.5h38q33 0 57.5 12t42.5 32t29.5 46t17.5 54l126 545l-28 27l1 4l-10 9l4 9l-28 27
l2 6h-243l-36 -181l-20 101l-26 25l-1 6l-9 8v8l-27 26v7zM272 15q-36 0 -63 22q-16 28 -24 64l-120 516h137l73 -367h6l27 -27h26l78 394h123l-111 -485q-6 -23 -15 -44t-23 -37.5t-33 -26t-43 -9.5h-38z" />
    <glyph glyph-name="w" unicode="w" horiz-adv-x="1022" 
d="M665 4q27 0 48.5 11t37 28.5t26 40t16.5 45.5l119 526h-182l-78 -389h-12l-86 389h-171l-85 -389h-12l-79 389h-182l120 -526q6 -23 16.5 -45.5t26 -40t36.5 -28.5t49 -11h32q27 0 47.5 11.5t35.5 29.5t25.5 40.5t16.5 45.5l37 150h4l37 -150q6 -23 16.5 -45.5
t25.5 -40.5t35.5 -29.5t47.5 -11.5h32zM605 628l53 -241l58 285h219l-3 -8l38 -36l-124 -540q-6 -26 -17.5 -50.5t-28.5 -44t-40.5 -31.5t-54.5 -12h-32q-52 0 -85 36l-21 20v-1q-29 19 -48 51t-27 66l-8 -32q-6 -26 -17.5 -51t-28.5 -45t-40 -32t-53 -12h-32
q-28 0 -50 10.5t-39 27.5l-18 18v-1q-31 19 -50.5 52t-27.5 69l-124 546h218l1 -10l36 -34l48 -240l62 284h200l1 -10zM359 683l-41 -188l-21 106l-26 26l-1 5l-11 9v9l-27 26v7h-242l127 -560q7 -34 27 -66t53 -58l19 -19q12 -12 24 -20l8 -8q18 -18 41.5 -29t53.5 -11h32
q29 0 52 11t40.5 29t29.5 41.5t20 48.5q9 -13 19.5 -24.5t24.5 -21.5l24 -23v1q4 -4 8 -7.5t8 -6.5l11 -10v1l3 -3q36 -36 88 -36h32q33 0 58 12.5t43 33t30 46t18 52.5l125 545l-28 27l1 4l-10 9l4 9l-28 27l2 6h-244l-39 -192l-25 112l-26 25l-1 6l-9 8v8l-27 26v7h-220z
M633 15q-19 0 -34 6t-28 17q-9 15 -14.5 31.5t-10.5 33.5l-38 156l-25 25l-2 8h-24l-38 -158q-6 -21 -15.5 -42.5t-23.5 -38.5t-32.5 -27.5t-42.5 -10.5h-32q-20 0 -36 6.5t-30 17.5q-9 14 -14.5 30t-9.5 32l-118 516h137l74 -362h6l27 -27h26l84 389h131l80 -362h6l27 -27
h26l78 389h124l-109 -485q-6 -21 -15.5 -42t-24 -37.5t-33.5 -27t-44 -10.5h-32z" />
    <glyph glyph-name="x" unicode="x" 
d="M274 138l65 -134h183l-155 325l155 326h-183l-65 -134l-64 134h-184l155 -326l-155 -325h184zM550 672l-4 -9l38 -35l-162 -339l163 -339h-214l-36 37h-7l-26 54l-43 -91h-212l-37 37h-11l163 342l-163 343h222l4 -11h-1l36 -34l22 -49l46 94h222zM321 683l-36 -72
l-12 13l-4 9l-9 8l-3 9l-26 25l-2 8h-247l168 -354l-168 -353h8l27 -27h15l10 -10h4l27 -27h221l29 64h3l27 -27h3l10 -10h4l27 -27h230l-167 347l163 341l-28 27l2 3l-10 9l5 11l-28 27l3 6h-246zM280 149l-6 14l-71 -148h-120l136 284l-151 318h148l58 -121l2 4l28 -27
l69 144h119l-136 -288l149 -314h-148l-53 111z" />
    <glyph glyph-name="FL0059h" unicode="y" 
d="M209 655h-174v-124q0 -65 6.5 -118.5t23.5 -94t46.5 -67t75.5 -38.5v-209h174v212q84 25 118.5 97.5t34.5 182.5v159h-174v-123q0 -30 -3 -54.5t-11 -42t-21 -27.5t-34 -10q-22 0 -34.5 9.5t-18.5 26.5t-7.5 41.5t-1.5 53.5v126zM226 664l37 -36v-139q0 -22 0.5 -40.5
t2.5 -33.5h5q31 0 41.5 33t10.5 84v140h208v-8l37 -36v-172q0 -113 -35 -188.5t-118 -103.5v-214h-201l-36 37h-8v192q-10 5 -19 13t-18 18l-26 25v-1q-53 43 -71 118t-18 179v141h208v-8zM237 683h-230v-152q0 -98 18 -172.5t72 -128.5h-1l34 -33q5 -7 11.5 -12.5
t14.5 -10.5l3 -2v-196h6l27 -27h7l10 -10h4l27 -27h213v216q83 29 118 106t35 192v176l-27 27v4l-10 9v8l-27 27v6h-230v-151q0 -26 -2.5 -47.5t-8.5 -35.5v153l-27 27v4l-10 9v8l-27 27v6zM198 529q0 -26 1 -48t5 -40t12 -30.5t22 -18.5l17 -16q16 -16 46 -16q23 0 38 10.5
t23.5 29t12 44.5t3.5 58v115h125v-121q0 -107 -34.5 -177t-118.5 -95v-209h-125v174l-27 27v5q-47 12 -77 39q-29 42 -38.5 101.5t-9.5 139.5v116h125v-88z" />
    <glyph glyph-name="z" unicode="z" horiz-adv-x="584" 
d="M254 502l28 -27l-209 -402q0 -9 0.5 -25.5t4.5 -32.5h358v109h-161l-27 27h-8l212 391v2q0 2 0.5 3.5t0.5 2.5l1 1q0 14 -5 32t-15 33q-8 2 -11 2h-334v-110h168zM156 406h-52l-27 27h-4l-9 9h-8l-27 27h-6v215h370q19 0 36 -12.5t34 -32.5l1 -1l22 -21q10 -10 18 -23
l10 -9q21 -21 32 -50t11 -54q0 -8 -1 -11q0 -2 -0.5 -2.5t-0.5 -1.5v-5l-149 -271h69v-6l27 -27v-8l10 -10v-4l27 -27v-196h-393q-20 0 -35 15l-17 17q-7 3 -15 11l-31 32v1q-15 12 -23.5 30.5t-12.5 37t-4.5 34.5t-0.5 24zM18 111q0 -8 0.5 -25.5t4.5 -36.5t12.5 -35.5
t23.5 -22.5v1l28 -29q13 -13 29 -13h385v184l-37 37v8h-119l172 314q0 2 0.5 3.5t0.5 3.5v3q1 1 1 8q0 23 -10.5 50.5t-30.5 47.5l-22 21l-1 1h1q-13 18 -28 30t-35 12h-359v-193h8l36 -36h111zM239 497h-188v159h342q16 0 29.5 -11t23 -26.5t14.5 -34t5 -33.5q0 -5 -1 -6
q0 -2 -0.5 -3.5t-0.5 -3.5l-204 -376h188v-158h-371q-15 0 -23.5 13t-12.5 30t-4.5 33.5t-0.5 24.5z" />
    <glyph glyph-name="FL007Bh" unicode="{" horiz-adv-x="425" 
d="M35 6q0 -11 6 -21.5t14 -18.5t17.5 -13.5t17.5 -5.5h216v158h-97v449h97v159h-216q-8 0 -17.5 -5.5t-17.5 -13.5t-14 -19t-6 -21v-648zM18 654q0 13 7.5 27t18.5 24.5t23.5 17.5t22.5 7h233v-8l37 -37v-184h-98v-379h61v-8l37 -36v-184h-231q-20 0 -44 24l-22 22v-1
q-17 10 -31 28.5t-14 38.5v648zM7 654v-648q0 -18 13.5 -37.5t32.5 -34.5l24 -24q11 -11 22 -18l10 -10q26 -26 50 -26h239v196l-27 27v4l-10 9v8l-27 27v6h-34v330h98v196l-27 27v4l-10 10v8l-27 27v6h-244q-12 0 -26 -8t-27 -20.5t-21.5 -28t-8.5 -30.5zM231 67h64v-109
h-205q-7 0 -15 5q-2 5 -2 13v648q0 9 5 18t12 16.5t15.5 12t14.5 4.5h175v-110h-97v-471h6z" />
    <glyph glyph-name="FL007Ch" unicode="|" horiz-adv-x="326" 
d="M34 -88h174v836h-174v-836zM18 765h206v-8l37 -37v-861h-199l-36 36h-8v870zM7 -116h6l27 -27h8l9 -9h4l27 -27h211v873l-27 27v4l-10 10v8l-27 27v6h-228v-892zM72 710h125v-787h-125v787z" />
    <glyph glyph-name="FL007Dh" unicode="}" horiz-adv-x="425" 
d="M295 654q0 8 -5 18q-5 3 -9 3h-208v-110h70v-6l27 -27v-465h-97v-109h178q6 0 13.5 4.5t14.5 11t11.5 15t4.5 17.5v648zM48 499h-8l-27 27h-6v215h244q14 0 33.5 -14t35.5 -35l23 -22q5 -5 9.5 -11l8.5 -11l10 -10q12 -12 19.5 -25.5t7.5 -28.5v-648q0 -15 -8 -29
t-20 -25.5t-25.5 -18.5t-23.5 -7h-233l-27 27h-4l-9 9h-8l-27 27h-6v214h98v330h-17l-27 27h-4zM62 501h54v-379h-98v-192h8l36 -36h229q9 0 21 6.5t22.5 16.5t18 23t7.5 26v648q0 13 -7 25t-18 23l-22 22h1q-11 19 -29.5 32.5t-33.5 13.5h-233v-193h8zM306 6
q0 -11 -6 -21.5t-14 -18.5t-18 -13.5t-17 -5.5h-216v158h97v449h-97v159h216q7 0 17 -5.5t18 -13.5t14 -19t6 -21v-648z" />
    <glyph glyph-name="FL007Eh" unicode="~" horiz-adv-x="587" 
d="M218 298l32 -56h119l102 165h-158l-29 -56l-32 56h-119l-101 -165h158zM13 225h-13l123 199h140l7 -12h-1l17 -18l17 30h200l-6 -9l38 -35l-117 -191h-135l-30 28l-15 -28h-188zM45 178h3l28 -27h197l12 23l25 -23h143l122 200l-28 27l2 3l-10 8l9 13l-29 28l4 5h-227
l-11 -20l-9 9l-6 11h-154l-136 -221h9l27 -27h19zM284 327l2 4l28 -27l34 65h85l-72 -116h-95l-18 32l-22 21l-8 16l-35 -69h-86l70 116h93z" />
    <glyph glyph-name="FL007Fh" horiz-adv-x="176" 
 />
    <glyph glyph-name="FL20ACh" unicode="&#x20ac;" horiz-adv-x="647" 
d="M35 510v-159h100v-41h-99v-159h99v-145q0 -11 6 -21.5t14.5 -18.5t18 -13.5t17.5 -5.5h337v158h-218v46h158v159h-158v41h157v159h-157v44h218v159h-337q-8 0 -17.5 -5.5t-18 -13.5t-14.5 -19t-6 -21v-144h-100zM118 526v128q0 13 7.5 27t19 24.5t24 17.5t22.5 7h354v-8
l37 -37v-184h-81l19 -19v-184h-15l16 -16v-160h24v-8l37 -36v-184h-352q-20 0 -44 24l-22 22v-1q-18 10 -32 28.5t-14 38.5v92h-54l-37 36h-8v192h15l-8 8h-8v192h100zM7 537v-214h1v-200h6l27 -27h8l10 -9h3l28 -27h17v-54q0 -18 13 -37t33 -34l25 -25q11 -11 22 -18
l10 -10q26 -26 50 -26h360v196l-27 27v4l-10 9v8l-24 24v132l-4 4h3v196l-7 7h69v196l-27 27v4l-10 10v8l-27 27v6h-365q-12 0 -26.5 -8t-27 -20.5t-21.5 -28t-9 -30.5v-117h-100zM332 472h124v-110h-157v-63h6l27 -27h125v-110h-158v-68h6l27 -27h185v-109h-326q-6 0 -16 5
q-1 4 -1.5 7t-0.5 6v153l-27 27v6h-72v110h99v57l-27 27v6h-73v110h100v152q0 9 5 18t12.5 16.5t16 12t14.5 4.5h296v-110h-218v-66h6z" />
    <glyph glyph-name="FL201Ah" unicode="&#x201a;" horiz-adv-x="309" 
d="M29 82q0 -26 13 -45.5t36 -29.5l1 -4v-86q26 1 47.5 13.5t37 31t24 41.5t8.5 44v32q0 35 -23 60.5t-61 25.5t-60.5 -24t-22.5 -59zM13 82q0 42 27 71t72 29q29 0 52 -14t35 -37h-1l21 -20q30 -30 30 -71v-32q0 -24 -10.5 -49.5t-29 -46.5t-45 -34.5t-58.5 -13.5l-36 36
h-8v94l-2 1q-47 26 -47 87zM2 82q0 -65 46 -92l3 -3v-98h6l27 -27h8l9 -9h4l27 -27q34 0 63 14t49 36.5t31.5 49t11.5 52.5v32q0 45 -32 77l-11 10q-7 12 -17 22l-23 21q-17 25 -41 39t-51 14q-51 0 -80.5 -32t-29.5 -79zM117 -25l-2 7l-26 25l-1 7q-5 2 -8.5 4t-7.5 4
q-5 11 -5 30q0 32 20 53.5t55 21.5q18 0 32 -7q11 -19 11 -41v-32q0 -29 -18.5 -59t-49.5 -47v34z" />
    <glyph glyph-name="FL0036h" unicode="&#x192;" horiz-adv-x="534" 
d="M237 200l4.5 4.5t3.5 4.5q-2 -2 -4.5 -4t-3.5 -5zM282 208l-3 2l2 4l3 -3zM181 224q0 22 10.5 32.5t31.5 15.5q21 -5 31.5 -15.5t10.5 -32.5q0 -25 -11.5 -34.5t-30.5 -14.5q-20 6 -31 15.5t-11 33.5zM242 1q86 11 129.5 69t43.5 147q0 35 -9.5 61t-24.5 46t-34 34
t-38 25q-11 6 -28 11q-12 3 -23.5 7.5t-21 11.5t-15.5 17t-6 25v2q0 13 6.5 21.5t16.5 13t21 6t20 1.5q15 0 34 -5.5t39 -12.5q14 -5 26.5 -9t21.5 -6v151q0 14 -19 21.5t-43.5 11.5t-48 4.5t-32.5 0.5h-7q-98 0 -156.5 -49.5t-58.5 -150.5v-238q0 -91 41 -147.5t132 -68.5
h34zM269 416l8 -2l9 -3q10 -2 20 -6t18 -10q21 -14 41 -30.5t36 -39.5h-1l16 -15q23 -23 38 -54t15 -79q0 -93 -47.5 -155.5t-139.5 -74.5h-35q-42 5 -72.5 20.5t-53.5 38.5l-15 14v-1q-45 30 -66.5 80.5t-21.5 117.5v238q0 109 63.5 163t168.5 54h7q9 0 32.5 -1t49.5 -5
t48 -13.5t28 -25.5h-1l30 -29q10 -10 10 -21v-165q-22 3 -38 7.5t-29 9.5l-9 3l-32 9.5t-28 4.5q-7 0 -15.5 -1t-16 -4t-12.5 -8.5t-5 -14.5v-2zM112 -1l12 -10.5t13 -10.5l8 -8q24 -24 55.5 -40t75.5 -21h37q96 12 145 77t49 161q0 50 -15.5 82t-40.5 57l-4 3
q-12 17 -24 29l-2 1l-6 6t-5 6l-4 4q-21 27 -40 42l-37 28q-1 0 -2 1q5 1 10.5 1.5t10.5 0.5q9 0 21 -3t26 -8h1l18 -6v1q14 -5 32.5 -10t45.5 -9v174q0 15 -12 27l-18 18q-2 4 -4.5 7t-5.5 7l-33 32l-1 -1q-15 17 -39 26t-48.5 13.5t-45 5.5t-28.5 1h-7q-55 0 -100 -14.5
t-76.5 -43t-49 -71t-17.5 -99.5v-238q0 -67 24 -120.5t75 -91.5l2 -2q1 -3 4 -4zM208 12q-67 9 -104 43q-17 26 -24 59t-7 73v238q0 98 56 145t151 47h7q5 0 17 -0.5t26.5 -1t30 -2.5t28.5 -5v-127q-14 3 -33 11q-20 7 -39.5 12.5t-37.5 5.5q-11 0 -24 -2t-24 -7.5t-19 -16
t-8 -27.5v-2q0 -22 10 -36t26 -22l14 -14q11 -11 25.5 -17t29.5 -10q7 -2 13.5 -4.5t11.5 -5.5h1q7 -5 13.5 -8.5t12.5 -8.5q19 -20 31 -47t12 -65q0 -86 -41 -140t-122 -65h-33zM216 155q11 -11 37 -19q18 5 30.5 13t17.5 26l13 -8l11 15l-23 22q-1 17 -12 28l-20 19
q-6 12 -17.5 19.5t-29.5 12.5q-26 -7 -39.5 -19.5t-13.5 -39.5q0 -22 7 -33t21 -19z" />
    <glyph glyph-name="FL201Eh" unicode="&#x201e;" horiz-adv-x="523" 
d="M242 82q0 -56 48 -75l1 -4v-86q27 1 48.5 13.5t37 31t24 41.5t8.5 44v32q0 35 -23 60.5t-61 25.5t-60.5 -24t-22.5 -59zM30 82q0 -56 48 -75l1 -4v-86q27 1 48.5 13.5t37 31t24 41.5t8.5 44v32q0 35 -23 60.5t-61 25.5t-60.5 -24t-22.5 -59zM13 82q0 42 27.5 71t72.5 29
q30 0 52.5 -14t34.5 -37h-1l22 -20q2 -2 2.5 -3.5t2.5 -3.5v-1q8 34 33.5 56.5t65.5 22.5q30 0 52.5 -14t34.5 -37h-1l18 -17h1q15 -15 24 -34.5t9 -39.5v-32q0 -24 -10.5 -49.5t-29.5 -46.5t-45.5 -34.5t-58.5 -13.5l-37 36h-7v94l-2 1q-11 4 -22 17v-4q0 -24 -10.5 -49.5
t-29.5 -46.5t-45.5 -34.5t-58.5 -13.5l-37 36h-8v94l-2 1q-47 27 -47 87zM2 82q0 -64 49 -95v-98h6l27 -27h9l9 -9h3l28 -27q43 0 76.5 21.5t54.5 52.5v-11h6l27 -27h7l10 -9h3l28 -27q34 0 63 14t49.5 36.5t32 49t11.5 52.5v32q0 23 -10 44t-27 38l-9 8q-5 7 -10 13l-10 12
h-2l-3 2v1l-13 12q-17 25 -41 39t-51 14q-37 0 -63 -19.5t-40 -49.5q-1 1 -2 1.5t-2 2.5l-13 12q-17 25 -41 39t-51 14q-51 0 -81 -32t-30 -79zM117 -25l-2 7l-26 25l-1 7q-4 2 -7.5 3.5t-7.5 3.5q-5 15 -5 31q0 32 20 53.5t55 21.5q18 0 32 -7q11 -19 11 -41v-32
q0 -29 -18.5 -59.5t-50.5 -47.5v35zM329 -25l-2 7l-26 25l-1 7q-4 2 -7.5 3.5t-7.5 3.5q-5 15 -5 31q0 32 20 53.5t55 21.5q18 0 32 -7q11 -19 11 -41v-32q0 -29 -18.5 -59.5t-50.5 -47.5v35z" />
    <glyph glyph-name="FL2026h" unicode="&#x2026;" horiz-adv-x="735" 
d="M448 82q0 -35 23 -58.5t61 -23.5t61 23.5t23 58.5t-23 58.5t-61 23.5t-61 -23.5t-23 -58.5zM242 81q0 -35 22.5 -58.5t60.5 -23.5t61 23.5t23 58.5t-23 58.5t-61 23.5t-60.5 -23.5t-22.5 -58.5zM35 81q0 -35 22.5 -58.5t60.5 -23.5t61.5 23.5t23.5 58.5t-23.5 58.5
t-61.5 23.5t-60.5 -23.5t-22.5 -58.5zM18 81q0 42 27.5 70.5t72.5 28.5q29 0 52 -12.5t35 -33.5h-1l21 -21l4 -3q8 31 33.5 50.5t62.5 19.5q29 0 52 -12.5t34 -33.5h-1l25 -24q8 31 33.5 51t63.5 20q29 0 51.5 -12.5t34.5 -33.5h-1l25 -24q28 -28 28 -69q0 -42 -27 -68.5
t-72 -26.5q-41 0 -69 27l-23 22v-1q-4 2 -9 6t-12 11q-8 -29 -33 -47.5t-60 -18.5q-42 0 -70 27l-23 23v-1q-11 6 -21 15q-8 -28 -33 -46t-60 -18q-42 0 -70 27l-22 22v-1q-48 25 -48 87zM7 81q0 -58 49 -92l24 -24l9 -7.5t9 -6.5l14 -14q30 -29 76 -29q35 0 60 16.5
t37 42.5l1 -1l1 -1l9 -7.5t9 -6.5l14 -14q30 -29 76 -29q34 0 59.5 17t36.5 43q1 -1 2 -1.5t2 -1.5q5 -4 8.5 -7.5t8.5 -5.5l14 -14q30 -29 75 -29q49 0 78 28.5t29 74.5q0 45 -30 75l-12 11q-3 5 -7 10.5t-9 10.5l-28 27q-17 21 -40.5 33.5t-49.5 12.5q-36 0 -62 -17
t-40 -45l-15 15q-17 22 -40.5 34t-49.5 12q-35 0 -61 -17t-40 -45l-15 16q-18 21 -41.5 33.5t-49.5 12.5q-51 0 -81 -31t-30 -79zM486 52q0 32 20.5 53t55.5 21q17 0 33 -7q10 -18 10 -37q0 -30 -20 -50.5t-53 -20.5q-24 0 -41 11q-5 15 -5 30zM73 51q0 32 20 53t55 21
q18 0 34 -8q10 -17 10 -36q0 -30 -20.5 -50.5t-53.5 -20.5q-24 0 -40 10q-5 15 -5 31zM280 51q0 32 20 53t55 21q17 0 33 -7q10 -18 10 -37q0 -30 -20 -50.5t-53 -20.5q-24 0 -40 10q-5 15 -5 31zM452 6l4 -4q-3 1 -4 4zM248 2q-2 0 -2 2zM428 129l-2 3q1 -1 1 -2z" />
    <glyph glyph-name="FL2020h" unicode="&#x2020;" horiz-adv-x="485" 
d="M35 540v-158h78v-378h174v378h78v158h-78v115h-174v-115h-78zM96 557v115h208v-8l37 -36v-71h41v-8l37 -37v-184h-78v-378h-200l-37 37h-8v341h-34l-36 37h-8v192h78zM7 568v-214h6l27 -27h7l10 -10h4l24 -24v-317h6l27 -27h8l10 -10h4l27 -27h212v378h78v196l-27 27v4
l-10 10v8l-27 27v6h-14v34l-27 27v4l-10 9v8l-27 27v6h-230v-115h-78zM151 360l-27 27v6h-51v109h78v115h125v-88h6l27 -27h45v-109h-78v-378h-125v345z" />
    <glyph glyph-name="FL2021h" unicode="&#x2021;" horiz-adv-x="485" 
d="M35 540v-158h78v-104h-77v-158h77v-116h174v116h79v158h-79v104h78v158h-78v115h-174v-115h-78zM96 557v115h208v-8l37 -36v-71h41v-8l37 -37v-184h-78v-33h42v-8l37 -36v-184h-79v-117h-200l-37 37h-8v80h-33l-36 36h-8v192h77v33h-34l-36 37h-8v192h78zM458 225l-27 27
v4l-10 9v8l-17 17h53v196l-27 27v4l-10 10v8l-27 27v6h-14v34l-27 27v4l-10 9v8l-27 27v6h-230v-115h-78v-214h6l27 -27h7l10 -10h4l11 -11h-64v-214h6l27 -27h8l9 -9h4l23 -23v-57h6l27 -27h8l10 -10h4l27 -27h212v117h79v196zM309 240h46v-109h-79v-116h-125v83l-27 27v6
h-50v109h77v120l-27 27v6h-51v109h78v115h125v-88h6l27 -27h45v-109h-78v-126h6z" />
    <glyph glyph-name="FL02C6h" unicode="&#x2c6;" horiz-adv-x="514" 
d="M215 773l30 -60h159l-104 165h-172l-101 -165h157zM338 895l-7 -7l38 -37l-13 -13l112 -178h-190l-30 28l-15 -28h-188l-37 36h-13l123 199h220zM111 906l-136 -221h9l27 -27h19l10 -9h3l28 -27h197l12 23l25 -23h208l-117 184l15 15l-29 27l3 3l-10 9l13 13l-28 28l5 5
h-254zM177 724h-85l70 116h148l73 -116h-120l-18 37l-24 23l-6 14z" />
    <glyph glyph-name="FL2030h" unicode="&#x2030;" horiz-adv-x="1237" 
d="M991 135q7 7 9 21q-8 -6 -9 -21zM189 464q7 7 9 21q-8 -6 -9 -21zM659 135q7 7 9 21q-8 -6 -9 -21zM686 165q0 -23 -10.5 -37t-29.5 -14t-30 13.5t-11 37.5v2q0 24 11 37t30 13t29.5 -13.5t10.5 -36.5v-2zM1018 165q0 -23 -10.5 -37t-29.5 -14t-30 13.5t-11 37.5v2
q0 24 11 37t30 13t29.5 -13.5t10.5 -36.5v-2zM216 494q0 -23 -10.5 -36.5t-29.5 -13.5q-40 0 -40 50v2q0 50 40 50q19 0 29.5 -13.5t10.5 -36.5v-2zM176 657q-146 0 -146 -163t146 -163h1q75 1 110 41t35 121v1q0 81 -35 121.5t-110 41.5h-1zM646 328q-147 0 -147 -163
q0 -81 36 -122t111 -41h1q75 1 109.5 41t34.5 121v1q0 81 -34.5 121.5t-109.5 41.5h-1zM978 328q-147 0 -147 -163q0 -81 36 -122t111 -41h1q75 1 109.5 41t34.5 121v1q0 81 -34.5 121.5t-109.5 41.5h-1zM346 4l314 651h-185l-314 -651h185zM979 345q96 -2 134 -65h-1
l20 -18q45 -48 45 -137v-1q0 -88 -39 -131.5t-120 -44.5q-75 0 -116 41l-21 20v-1q-29 18 -45 48q-13 -52 -49.5 -79.5t-99.5 -28.5h-1q-75 0 -116 41l-21 20v-1q-29 18 -45 49t-21 76l-87 -183h-214l-37 37h-10l143 297q-22 -7 -61 -7h-1q-74 0 -115 41l-21 20v-1
q-67 43 -67 157q0 180 163 180h1q97 -1 135 -64h-1l20 -19q17 -20 28 -46t15 -60l90 187h224l-4 -9l38 -35l-141 -292q28 9 65 9h1q96 -1 134 -65h-1l20 -18l11.5 -15t9.5 -14q28 112 157 112h1zM978 356q-122 0 -161 -99q-5 5 -6 7t-2 3v1l-17 15q-25 35 -61 53.5t-84 19.5
h-1h-3l118 244l-28 27l2 3l-10 9l5 11l-28 27l3 6h-248l-71 -145q-5 9 -11 17l-12 16l-13 12q-3 5 -7 10l-8 10l-18 16q-25 31 -60 48t-80 18h-1q-174 0 -174 -191q0 -108 71 -166l20 -18q8 -9 19 -16l13 -12q41 -43 119 -43l-126 -263h8l27 -27h14l10 -10h4l27 -27h223
l65 139q15 -25 42 -47l24 -23q8 -9 19 -16l13 -12q43 -43 122 -43h1q60 1 97 25t53 69q2 -2 4.5 -3.5t5.5 -3.5l17 -16q8 -9 19 -16l13 -12q43 -43 122 -43q167 1 167 184v1q0 92 -48 143l-10 9q-4 6 -8.5 12t-9.5 11l-11 8l-8 8q-52 69 -141 70h-1zM509 617h121l-291 -602
h-120zM869 135q0 155 139 155h1q44 0 75 -17q28 -37 28 -108v-1q0 -76 -32 -113t-101 -38h-1q-57 0 -89 25q-20 38 -20 97zM537 135q0 155 139 155h1q44 0 75 -17q28 -37 28 -108v-1q0 -76 -32 -113t-101 -38h-1q-57 0 -89 25q-20 38 -20 97zM68 464q0 155 138 155h1
q46 0 76 -18q28 -37 28 -107v-1q0 -76 -32.5 -113t-101.5 -38h-1q-57 0 -89 26q-19 35 -19 96zM643 89q13 -13 33 -13q23 0 35.5 16t12.5 43v2q0 30 -16 46l-17 17q-12 28 -45 28q-24 0 -38 -16t-14 -45v-2q0 -46 31 -59zM975 89q13 -13 33 -13q23 0 35.5 16t12.5 43v2
q0 30 -16 46l-17 17q-12 28 -45 28q-24 0 -38 -16t-14 -45v-2q0 -46 31 -59zM173 418q12 -12 33 -12q23 0 35.5 15.5t12.5 42.5v2q0 30 -16 46l-17 17q-12 28 -45 28q-51 0 -51 -61v-2q0 -46 29 -58z" />
    <glyph glyph-name="FL0160h" unicode="&#x160;" horiz-adv-x="534" 
d="M194 889h-157l101 -167h173l102 167h-158l-30 -60zM88 186l-27.5 10t-24.5 8v-144q0 -14 19.5 -24.5t47 -18t56.5 -11.5t49 -4q51 0 90 15.5t65 44t39 68t13 87.5q0 36 -8 62t-22 45.5t-32 33.5t-37 25q-5 3 -11 6t-13 7l-25.5 13t-25 15t-19 16.5t-7.5 17.5
q0 12 6.5 20.5t16 13t21 6.5t20.5 2q15 0 34 -5.5t39 -12.5q28 -11 49 -15v150q0 14 -19 22t-44 11.5t-48.5 4.5t-32.5 1h-7q-98 0 -156.5 -49.5t-58.5 -150.5q0 -45 12 -76.5t31 -53.5t41 -36t43 -26q25 -15 42 -28t17 -33q0 -26 -16 -32t-36 -6q-22 0 -41.5 6.5
t-39.5 14.5zM34 221q12 -2 21 -5.5t19 -6.5h-1q3 -1 5.5 -2t5.5 -2l10 -3q1 -1 3 -1t3 -1l4.5 -1.5l1.5 -0.5q16 -6 31 -11t32 -5q14 0 24.5 3.5t10.5 17.5l-0.5 0.5t-0.5 1.5h-1v1q-4 2 -8 6v-1q-17 10 -37 23t-40 33l-12 12v-1q-34 24 -60.5 65.5t-26.5 112.5q0 94 46 146
t125 66h-18l-37 37h-6l-123 201h201l5 -12h-1l19 -19l15 31h201l-6 -9l38 -36l-117 -193h-26q28 -5 52 -14t29 -27h-1l30 -28q10 -10 10 -21v-166q-22 3 -37.5 7.5t-29.5 9.5l-9 3l-32 9.5t-28 4.5t-27.5 -4.5t-19.5 -15.5l27 -14q3 -2 6.5 -3.5t6.5 -3.5l7 -3.5t6 -3.5
q21 -12 40 -27t35 -36h-1l19 -19q23 -23 37.5 -55.5t14.5 -83.5t-14 -93t-42 -72t-69 -47t-96 -17q-18 0 -43 3.5t-50.5 10t-48 16t-34.5 21.5l-27 27v-1q-26 17 -26 35v148zM8 212v-152q0 -18 26 -39l30 -30q8 -8 17 -13l15 -15q12 -12 35.5 -22t49.5 -17t52.5 -10.5
t44.5 -3.5q57 0 99.5 17.5t71.5 48.5t43.5 74.5t14.5 96.5q0 54 -15 87.5t-39 57.5l-5 5q-5 8 -11 14t-12 13l-22 22q-20 22 -37 36t-34 25q4 0 7.5 0.5t8.5 0.5q9 0 21 -3t26 -8h1l18 -6q13 -5 30 -9.5t48 -8.5v175q0 14 -13 27l-17 16q-2 5 -11 16l-30 28q-3 5 -6.5 8
t-7.5 7l110 183l-28 27l2 3l-10 8l9 13l-28 28l3 5h-228l-10 -20l-10 11l-4 9h-228l136 -223h5l24 -25q-67 -23 -105 -74.5t-38 -138.5q0 -68 27.5 -113t64.5 -75l10 -9q7 -8 14 -14t15 -12l3 -2q21 -23 44 -37q-3 -1 -7 -1h-9q-12 0 -24.5 4t-26.5 9h-4h-1q0 1 -1 1l-1 1
l-3 1.5t-4 0.5q-2 2 -3 2l-14 4q-3 0 -4 1h-2v3h-5l-1 2l-1 -1q-2 0 -2 1q-3 0 -5 2l-9 3q-5 2 -10 3t-17 3zM73 426q0 98 56 145t151 47h7q5 0 17 -0.5t26.5 -1t30 -2.5t29.5 -5v-128q-11 2 -19 5t-15 6q-4 2 -7.5 2.5t-7.5 2.5l-32.5 9.5t-29.5 4.5q-11 0 -24 -2.5
t-24.5 -8.5t-19 -16.5t-7.5 -25.5q0 -14 10 -25t25 -21l12 -12q13 -12 31.5 -22.5t35.5 -18.5l12 -6q3 -2 6 -3.5t6 -3.5q9 -5 20 -13q19 -20 30.5 -47.5t11.5 -68.5q0 -45 -12.5 -82.5t-37 -64.5t-61 -42t-85.5 -15q-13 0 -30.5 1.5t-36 4.5t-36.5 7t-31 10v127
q7 -2 15 -5.5t17 -6.5l9 -3v1l41 -15t43 -7q12 0 22.5 1.5t19 6t13.5 13.5t5 25q0 20 -17 37l-15 14q-7 14 -21.5 25t-32.5 22l-6 3q-16 8 -32.5 18t-32.5 24q-13 20 -21 47t-8 63zM225 804l2 4l28 -27l35 70h85l-72 -118h-151l-71 118h120zM387 312l-1 2q1 0 1 -2z" />
    <glyph glyph-name="FL2039h" unicode="&#x2039;" horiz-adv-x="318" 
d="M34 240l166 -101v157l-60 31l60 30v159l-166 -103v-173zM18 424l198 123v-13l37 -36v-189l-30 -15l30 -29v-192l-189 116l-33 33v-1l-13 9v194zM7 224l12 -9l21 -20l7 -6l11 -10l8 -5l21 -20l204 -125v210l-24 23l24 12v198l-27 27v4l-10 9v19l-27 27v9l-220 -136v-207z
M152 297l37 -20v-118l-117 71v148l117 73v-88l-74 -36l14 -8z" />
    <glyph glyph-name="FL0152h" unicode="&#x152;" horiz-adv-x="822" 
d="M276 291q0 -17 3.5 -34.5t11.5 -32.5v1q16 -10 34 -10h20v189q-34 -7 -51.5 -36t-17.5 -77zM362 461v-263h-37q-21 0 -39.5 11t-33 29.5t-22.5 42.5t-8 50q0 61 27.5 95.5t75.5 34.5h37zM537 497h166v158h-377q-154 0 -224.5 -80.5t-71.5 -246.5q0 -68 20 -127
t57.5 -102.5t92 -69t123.5 -25.5h380v158h-166v89h166v158h-166v88zM720 672v-8l37 -36v-184h-166v-18h129v-8l37 -37v-184h-166v-18h129v-8l37 -37v-184h-394q-66 0 -119 22t-93 62l-12 12v-1q-63 45 -94.5 118.5t-31.5 164.5q1 174 76 259t237 85h394zM326 683
q-168 0 -245.5 -87.5t-78.5 -267.5q0 -89 32.5 -164t98.5 -128l1 -1l9 -9l13.5 -13.5t14.5 -11.5l4 -3q41 -41 95 -63.5t123 -22.5h402v196l-27 27v4l-10 10v8l-2 2h39v196l-27 27v4l-10 10v8l-2 2h39v196l-27 27v4l-10 9v8l-27 27v6h-405zM526 398h6l27 -27h133v-109h-166
v-111h6l27 -27h133v-109h-369q-62 0 -111 20.5t-84 57.5q-30 42 -45 93.5t-15 111.5q1 163 69.5 241t218.5 78h336v-109h-166v-110zM325 472q-54 0 -84 -37.5t-30 -103.5q0 -42 19 -77.5t48 -53.5l10 -9q14 -14 31 -22.5t36 -8.5h45v279l-27 27v6h-48zM314 261q0 49 20 77
v-112h-9q-5 0 -8 1q-2 8 -2.5 16.5t-0.5 17.5z" />
    <glyph glyph-name="FL017Dh" unicode="&#x17d;" horiz-adv-x="584" 
d="M219 889h-157l101 -167h173l102 167h-158l-30 -60zM35 106q0 -8 0.5 -25t4.5 -34t12.5 -30t23.5 -13h371v158h-188l204 377q0 2 0.5 3.5t0.5 3.5q1 1 1 6q0 15 -5 33.5t-14.5 34t-23 26.5t-29.5 11h-342v-159h188zM189 444h-111l-36 37h-8v193h155l-30 31h-6l-123 201
h201l5 -12h-1l19 -19l15 31h201l-6 -9l38 -36l-113 -187h4q20 0 36 -12.5t28 -31.5h-1l22 -21q20 -19 30.5 -46.5t10.5 -50.5q0 -7 -1 -8v-3q0 -2 -0.5 -3.5t-0.5 -3.5l-172 -315h119v-8l37 -37v-184h-385q-16 0 -29 13l-28 29v-1q-15 6 -23.5 22.5t-12.5 35.5t-4.5 36.5
t-0.5 26.5zM7 115q0 -9 0.5 -25t4.5 -34.5t12.5 -37t23.5 -30.5v-1l31 -32q8 -8 15 -11l17 -17q15 -15 35 -15h393v196l-27 27v4l-10 10v8l-27 27v6h-69l149 272v5q0 1 0.5 1.5t0.5 2.5q1 3 1 11q0 24 -10.5 52.5t-31.5 48.5l-2 2h1l-11 10q-3 5 -6 9t-7 8h1l-25 23
l-12 15.5t-13 13.5l101 169l-28 27l2 3l-10 8l9 13l-28 28l3 5h-228l-10 -20l-10 11l-4 9h-228l136 -223h5l9 -9h-137v-215h6l27 -27h7l10 -10h4l27 -27h52zM257 509h-168v110h334q3 0 11 -2q10 -15 15 -33t5 -32l-1 -1q0 -1 -0.5 -2.5t-0.5 -3.5v-2l-211 -392h8l27 -27h160
v-109h-358q-4 16 -4.5 33t-0.5 26l209 402l-28 27zM250 804l2 4l28 -27l35 70h85l-72 -118h-151l-71 118h120z" />
    <glyph glyph-name="FL2018h" unicode="&#x2018;" horiz-adv-x="301" 
d="M131 418q16 0 29 13t17 30q0 42 -6.5 79t-29.5 73h-18q-36 -44 -46 -87t-10 -94q0 -5 2 -11q7 -3 17 -3h45zM69 366q-6 4 -8 7l-18 17q-35 25 -41 67q0 31 2.5 58.5t10.5 54t23.5 53t42.5 55.5h56q4 -5 7.5 -10t7.5 -10l14 -13q4 -4 7 -8l7 -9l10 -11.5l10 -11.5l6 -6
q24 -26 38.5 -51t22 -50.5t10 -52t2.5 -56.5q-4 -30 -27 -52t-52 -22h-44q-32 0 -54 22l-16 15q-5 2 -8.5 5.5l-7.5 7.5zM78 373q20 -20 48 -20h44q26 0 46.5 20t24.5 47q0 29 -2 55t-9.5 51t-21.5 49t-37 49l-18 17h1q-2 4 -8 11t-14 15h-47q-24 -26 -38.5 -51t-22 -50
t-9.5 -51.5t-2 -56.5q8 -45 39 -61v1zM86 407q-19 0 -35.5 12.5t-21.5 41.5q0 27 2 51.5t8.5 47.5t18.5 45.5t32 45.5h37q20 -23 32 -45.5t18.5 -45.5t8.5 -47.5t2 -51.5q-4 -22 -20.5 -38t-36.5 -16h-45z" />
    <glyph glyph-name="FL2019h" unicode="&#x2019;" horiz-adv-x="301" 
d="M86 651q-19 0 -35.5 -13t-21.5 -42q0 -28 2 -52.5t8.5 -47.5t18.5 -45t32 -44h37q20 22 32 44t18.5 45t8.5 47.5t2 52.5q-4 23 -20.5 39t-36.5 16h-45zM131 667q19 0 35.5 -10.5t27.5 -28.5h-1l25 -25q20 -20 23 -44q0 -29 -2 -55.5t-9.5 -51t-21.5 -49t-38 -50.5h-44
l-37 37h-4q-24 26 -38.5 51t-22 50t-9.5 51.5t-2 56.5q6 36 27 52t46 16h45zM86 678q-29 0 -53.5 -18t-30.5 -60q0 -31 2.5 -58.5t10.5 -54t23.5 -53t42.5 -55.5h3l37 -37h4l27 -27h51q25 28 40.5 53.5t23 51.5t10 53t2.5 57q-3 27 -25 49l-12 11q-3 6 -7 11t-9 10l-22 22
q-17 21 -36 33t-37 12h-45zM67 566q5 25 19 36t30 11h45q6 0 9 -1q4 -7 7 -19q0 -51 -10 -92.5t-45 -82.5h-23q-20 34 -26 69.5t-6 78.5z" />
    <glyph glyph-name="FL201Ch" unicode="&#x201c;" horiz-adv-x="486" 
d="M129 418q17 0 30 13.5t16 30.5q0 42 -6.5 78.5t-29.5 72.5h-15q-36 -44 -46 -87t-10 -94q0 -5 2 -11q7 -3 17 -3h42zM315 418q17 0 30 13.5t16 30.5q0 42 -6.5 78.5t-29.5 72.5h-15q-36 -44 -46 -87t-10 -94q0 -5 2 -11q7 -3 17 -3h42zM178 630l7.5 -9l7.5 -9l12 -12h-1
q2 -2 2.5 -3t2.5 -3q9 18 22.5 39t36.5 45h53q5 -6 11.5 -13t12.5 -15l5 -5q3 -4 6.5 -7.5t7.5 -8.5l10.5 -12l10.5 -12l6 -6q24 -26 38.5 -51t22 -50.5t10 -52t2.5 -56.5q-4 -30 -27 -52t-52 -22h-42q-33 0 -55 22l-15 14q-2 2 -3.5 2.5t-3.5 2.5q-11 -18 -29.5 -29.5
t-38.5 -11.5h-41q-33 0 -55 22l-16 15l-1 1q-4 2 -8 5t-7 7l-25 23q-17 14 -28.5 30.5t-14.5 38.5q0 31 2.5 58.5t11 54t24.5 53t42 55.5h53l10.5 -12.5t10.5 -13.5l8 -7q2 -3 5 -5.5t5 -5.5l4 -3v-1zM169 624l-17 17h1q-2 4 -8.5 11l-14.5 15h-44q-24 -26 -38.5 -51
t-22 -50t-10 -51.5t-2.5 -56.5q4 -23 14.5 -38t24.5 -23v1l26 -25q20 -20 49 -20h41q21 0 39.5 13.5t26.5 33.5h1q1 -1 3 -1l-1 1l27 -27q20 -20 49 -20h42q26 0 46.5 20t24.5 47q0 29 -2 55t-9.5 51t-21.5 49t-37 49l-18 17h1q-2 4 -8.5 11l-14.5 15h-44q-24 -26 -38.5 -51
t-22.5 -48q-8 14 -18 27.5t-23 28.5h-1zM87 407q-20 0 -36 12.5t-21 41.5q0 27 2 51.5t8.5 47.5t18.5 45.5t32 45.5h34q20 -23 32 -45.5t18.5 -45.5t8.5 -47.5t2 -51.5q-4 -22 -20.5 -38t-36.5 -16h-42zM273 407q-19 0 -35.5 12.5t-21.5 41.5q0 27 2 51.5t8.5 47.5
t18.5 45.5t32 45.5h34q20 -23 32 -45.5t18.5 -45.5t8.5 -47.5t2 -51.5q-4 -22 -20 -38t-37 -16h-42z" />
    <glyph glyph-name="FL201Dh" unicode="&#x201d;" horiz-adv-x="486" 
d="M87 651q-20 0 -36 -13t-21 -42q0 -27 2 -52t8 -48.5t18.5 -45.5t33.5 -44l-1 1h34q20 22 32 44t18.5 45t8.5 47.5t2 52.5q-4 23 -20.5 39t-36.5 16h-42zM273 651q-19 0 -35.5 -13t-21.5 -42q0 -28 2 -52.5t8.5 -47.5t18.5 -45t32 -44h34q20 22 32 44t18.5 45t8.5 47.5
t2 52.5q-4 23 -20 39t-37 16h-42zM129 667q20 0 36 -10.5t27 -28.5h-1l11 -12q11 27 29.5 39t41.5 12h42q20 0 36 -10.5t27 -28.5h-1l26 -25q20 -20 23 -44q0 -29 -2 -55.5t-9.5 -51t-21.5 -49t-38 -50.5h-42l-37 37h-4q-15 17 -26 31.5t-19 26.5q-7 -23 -21 -46t-38 -49
h-41l-37 37h-4q-24 26 -38.5 51t-22 50t-10 51.5t-2.5 56.5q6 36 27 52t47 16h42zM87 678q-30 0 -54.5 -18t-30.5 -60q0 -31 2.5 -58.5t11 -54t24.5 -53.5t42 -55h3l37 -37h4l27 -27h48q20 22 33.5 40.5t21.5 36.5q2 -3 5 -6.5t7 -6.5h3l37 -37h4l27 -27h49q25 28 40.5 53.5
t23 51.5t10 53t2.5 57q-3 27 -25 49l-12 12q-3 5 -7 10t-9 10l-23 21q-16 22 -34.5 34t-38.5 12h-42q-22 0 -40.5 -9.5t-32.5 -32.5q-16 20 -34 31t-37 11h-42zM68 565q5 26 18.5 37t30.5 11h42q6 0 9 -1q4 -7 7 -19q0 -51 -10 -92.5t-45 -82.5h-21q-20 34 -25.5 69.5
t-5.5 77.5zM254 565q5 26 19 37t30 11h42q2 0 10 -2q2 -4 3 -8.5t3 -9.5q0 -51 -10 -92.5t-45 -82.5h-20q-21 33 -26.5 68.5t-5.5 78.5z" />
    <glyph glyph-name="FL2022h" unicode="&#x2022;" horiz-adv-x="730" 
d="M324 656q-153 0 -223.5 -81.5t-70.5 -246.5t70.5 -246t223.5 -81h1q151 1 221 82.5t70 242.5v3q0 161 -70 243.5t-221 83.5h-1zM325 673q172 -1 249 -106h-1l12 -13q45 -45 65 -109.5t20 -155.5v-3q0 -169 -73 -253.5t-232 -85.5h-1q-151 0 -225 77l-14 14v-1
q-112 79 -112 291q0 174 74.5 259.5t236.5 85.5h1zM325 684h-1q-168 0 -245 -88.5t-77 -267.5q0 -199 112 -295l17 -17q7 -8 14.5 -14l15.5 -12l4 -4q75 -77 229 -77h1q163 1 238 87.5t75 259.5v3q0 94 -20.5 159.5t-66.5 111.5l-5 4q-6 8 -13 16.5t-15 16.5v-1
q-46 57 -111.5 87t-151.5 31zM68 298q0 162 68.5 241t217.5 79h1q111 0 178 -49q72 -78 72 -240v-3q0 -156 -67.5 -234.5t-212.5 -79.5h-1q-137 0 -205 67q-51 76 -51 219z" />
    <glyph glyph-name="FL2013h" unicode="&#x2013;" horiz-adv-x="421" 
d="M35 248h267v156h-267v-156zM18 421h301v-8l37 -37v-181h-294l-36 36h-8v190zM7 220h6l27 -27h8l9 -9h4l27 -27h306v193l-27 27v4l-10 10v8l-27 27v6h-323v-212zM73 366h218v-107h-218v107z" />
    <glyph glyph-name="FL2014h" unicode="&#x2014;" horiz-adv-x="547" 
d="M35 248h393v156h-393v-156zM445 421v-8l37 -37v-181h-420l-36 36h-8v190h427zM7 432v-212h6l27 -27h8l9 -9h4l27 -27h432v193l-27 27v4l-10 10v8l-27 27v6h-449zM73 366h344v-107h-344v107z" />
    <glyph glyph-name="FL02DCh" unicode="&#x2dc;" horiz-adv-x="557" 
d="M213 769l32 -56h119l102 165h-158l-29 -56l-32 56h-119l-101 -165h158zM8 696h-13l123 199h140l7 -12h-1l17 -18l17 30h200l-6 -9l38 -35l-117 -191h-135l-30 28l-15 -28h-188zM40 649h3l28 -27h197l12 23l25 -23h143l122 200l-28 27l2 3l-10 8l9 13l-29 28l4 5h-227
l-11 -20l-9 9l-6 11h-154l-136 -221h9l27 -27h19zM279 798l2 4l28 -27l34 65h85l-72 -116h-95l-18 32l-22 21l-8 16l-35 -69h-86l70 116h93z" />
    <glyph glyph-name="FL2122h" unicode="&#x2122;" horiz-adv-x="396" 
d="M74 511h16v146h44v25h-104v-25h44v-146zM163 679q-1 0 -3 -2v-166h10v112l8 11l32 -114q2 -7 3.5 -8t3.5 -1q5 0 6 1t3 8l32 118l9 -15v-112h11v171h-4q-14 0 -24 -12.5t-19 -51.5q-2 -18 -4.5 -28l-5.5 -21q0 1 -0.5 -3t-1.5 -6l-4 1q-1 5 -2 8.5t-2 8.5l-4.5 19.5
l-6.5 26.5l-1 9v-1q-6 16 -15 31.5t-14 17.5q-2 -2 -7 -2zM57 604l-36 36h-8v58h138v-5h3v5q11 0 24.5 -10t23.5 -26h-1l18 -18q10 33 23 43.5t32 10.5h20v-7l37 -37v-197h-37l-16 15q-2 -11 -5.5 -13t-15.5 -2q-9 0 -13 4l-21 21v-25h-35l-37 37h-8v-37h-41l-37 37h-8v110z
M46 483h6l27 -27h8l10 -10h4l27 -27h53v29l2 -2h4l27 -27h47v13l7 -7q6 -6 19 -6q12 0 17.5 1t7.5 7l9 -8h48v209l-27 27v4l-10 10v7l-27 27v6h-31q-19 0 -33.5 -9t-26.5 -36l-8 9v-1q-22 24 -44 33v4h-160v-80h6l27 -27h8l3 -3v-116z" />
    <glyph glyph-name="FL0161h" unicode="&#x161;" horiz-adv-x="534" 
d="M194 889h-157l101 -167h173l102 167h-158l-30 -60zM88 186l-27.5 10t-24.5 8v-144q0 -14 19.5 -24.5t47 -18t56.5 -11.5t49 -4q51 0 90 15.5t65 44t39 68t13 87.5q0 36 -8 62t-22 45.5t-32 33.5t-37 25q-5 3 -11 6t-13 7l-25.5 13t-25 15t-19 16.5t-7.5 17.5
q0 12 6.5 20.5t16 13t21 6.5t20.5 2q15 0 34 -5.5t39 -12.5q28 -11 49 -15v150q0 14 -19 22t-44 11.5t-48.5 4.5t-32.5 1h-7q-98 0 -156.5 -49.5t-58.5 -150.5q0 -45 12 -76.5t31 -53.5t41 -36t43 -26q25 -15 42 -28t17 -33q0 -26 -16 -32t-36 -6q-22 0 -41.5 6.5
t-39.5 14.5zM34 221q12 -2 21 -5.5t19 -6.5h-1q3 -1 5.5 -2t5.5 -2l10 -3q1 -1 3 -1t3 -1l4.5 -1.5l1.5 -0.5q16 -6 31 -11t32 -5q14 0 24.5 3.5t10.5 17.5l-0.5 0.5t-0.5 1.5h-1v1q-4 2 -8 6v-1q-17 10 -37 23t-40 33l-12 12v-1q-34 24 -60.5 65.5t-26.5 112.5q0 94 46 146
t125 66h-18l-37 37h-6l-123 201h201l5 -12h-1l19 -19l15 31h201l-6 -9l38 -36l-117 -193h-26q28 -5 52 -14t29 -27h-1l30 -28q10 -10 10 -21v-166q-22 3 -37.5 7.5t-29.5 9.5l-9 3l-32 9.5t-28 4.5t-27.5 -4.5t-19.5 -15.5l27 -14q3 -2 6.5 -3.5t6.5 -3.5l7 -3.5t6 -3.5
q21 -12 40 -27t35 -36h-1l19 -19q23 -23 37.5 -55.5t14.5 -83.5t-14 -93t-42 -72t-69 -47t-96 -17q-18 0 -43 3.5t-50.5 10t-48 16t-34.5 21.5l-27 27v-1q-26 17 -26 35v148zM8 212v-152q0 -18 26 -39l30 -30q8 -8 17 -13l15 -15q12 -12 35.5 -22t49.5 -17t52.5 -10.5
t44.5 -3.5q57 0 99.5 17.5t71.5 48.5t43.5 74.5t14.5 96.5q0 54 -15 87.5t-39 57.5l-5 5q-5 8 -11 14t-12 13l-22 22q-20 22 -37 36t-34 25q4 0 7.5 0.5t8.5 0.5q9 0 21 -3t26 -8h1l18 -6q13 -5 30 -9.5t48 -8.5v175q0 14 -13 27l-17 16q-2 5 -11 16l-30 28q-3 5 -6.5 8
t-7.5 7l110 183l-28 27l2 3l-10 8l9 13l-28 28l3 5h-228l-10 -20l-10 11l-4 9h-228l136 -223h5l24 -25q-67 -23 -105 -74.5t-38 -138.5q0 -68 27.5 -113t64.5 -75l10 -9q7 -8 14 -14t15 -12l3 -2q21 -23 44 -37q-3 -1 -7 -1h-9q-12 0 -24.5 4t-26.5 9h-4h-1q0 1 -1 1l-1 1
l-3 1.5t-4 0.5q-2 2 -3 2l-14 4q-3 0 -4 1h-2v3h-5l-1 2l-1 -1q-2 0 -2 1q-3 0 -5 2l-9 3q-5 2 -10 3t-17 3zM73 426q0 98 56 145t151 47h7q5 0 17 -0.5t26.5 -1t30 -2.5t29.5 -5v-128q-11 2 -19 5t-15 6q-4 2 -7.5 2.5t-7.5 2.5l-32.5 9.5t-29.5 4.5q-11 0 -24 -2.5
t-24.5 -8.5t-19 -16.5t-7.5 -25.5q0 -14 10 -25t25 -21l12 -12q13 -12 31.5 -22.5t35.5 -18.5l12 -6q3 -2 6 -3.5t6 -3.5q9 -5 20 -13q19 -20 30.5 -47.5t11.5 -68.5q0 -45 -12.5 -82.5t-37 -64.5t-61 -42t-85.5 -15q-13 0 -30.5 1.5t-36 4.5t-36.5 7t-31 10v127
q7 -2 15 -5.5t17 -6.5l9 -3v1l41 -15t43 -7q12 0 22.5 1.5t19 6t13.5 13.5t5 25q0 20 -17 37l-15 14q-7 14 -21.5 25t-32.5 22l-6 3q-16 8 -32.5 18t-32.5 24q-13 20 -21 47t-8 63zM225 804l2 4l28 -27l35 70h85l-72 -118h-151l-71 118h120zM387 312l-1 2q1 0 1 -2z" />
    <glyph glyph-name="FL203Ah" unicode="&#x203a;" horiz-adv-x="318" 
d="M114 324l28 -27l-70 -36v-86l117 72v152l-117 72v-121l47 -23zM227 426l27 -27v-3l10 -9v-4l27 -27v-199l-201 -122l-29 27l-1 -1l-9 8l-11 -6l-27 27l-6 -3v228l20 9l-9 9l-11 7v227l220 -136v-5zM216 424l-198 123v-200l10 -6v1l18 -20l-28 -14v-201l7 4l37 -36
l191 117v190l-37 36v6zM94 327l-60 30v159l166 -103v-173l-166 -101v157z" />
    <glyph glyph-name="FL0153h" unicode="&#x153;" horiz-adv-x="822" 
d="M276 291q0 -17 3.5 -34.5t11.5 -32.5v1q16 -10 34 -10h20v189q-34 -7 -51.5 -36t-17.5 -77zM362 461v-263h-37q-21 0 -39.5 11t-33 29.5t-22.5 42.5t-8 50q0 61 27.5 95.5t75.5 34.5h37zM537 497h166v158h-377q-154 0 -224.5 -80.5t-71.5 -246.5q0 -68 20 -127
t57.5 -102.5t92 -69t123.5 -25.5h380v158h-166v89h166v158h-166v88zM720 672v-8l37 -36v-184h-166v-18h129v-8l37 -37v-184h-166v-18h129v-8l37 -37v-184h-394q-66 0 -119 22t-93 62l-12 12v-1q-63 45 -94.5 118.5t-31.5 164.5q1 174 76 259t237 85h394zM326 683
q-168 0 -245.5 -87.5t-78.5 -267.5q0 -89 32.5 -164t98.5 -128l1 -1l9 -9l13.5 -13.5t14.5 -11.5l4 -3q41 -41 95 -63.5t123 -22.5h402v196l-27 27v4l-10 10v8l-2 2h39v196l-27 27v4l-10 10v8l-2 2h39v196l-27 27v4l-10 9v8l-27 27v6h-405zM526 398h6l27 -27h133v-109h-166
v-111h6l27 -27h133v-109h-369q-62 0 -111 20.5t-84 57.5q-30 42 -45 93.5t-15 111.5q1 163 69.5 241t218.5 78h336v-109h-166v-110zM325 472q-54 0 -84 -37.5t-30 -103.5q0 -42 19 -77.5t48 -53.5l10 -9q14 -14 31 -22.5t36 -8.5h45v279l-27 27v6h-48zM314 261q0 49 20 77
v-112h-9q-5 0 -8 1q-2 8 -2.5 16.5t-0.5 17.5z" />
    <glyph glyph-name="FL017Eh" unicode="&#x17e;" horiz-adv-x="584" 
d="M219 889h-157l101 -167h173l102 167h-158l-30 -60zM35 106q0 -8 0.5 -25t4.5 -34t12.5 -30t23.5 -13h371v158h-188l204 377q0 2 0.5 3.5t0.5 3.5q1 1 1 6q0 15 -5 33.5t-14.5 34t-23 26.5t-29.5 11h-342v-159h188zM189 444h-111l-36 37h-8v193h155l-30 31h-6l-123 201
h201l5 -12h-1l19 -19l15 31h201l-6 -9l38 -36l-113 -187h4q20 0 36 -12.5t28 -31.5h-1l22 -21q20 -19 30.5 -46.5t10.5 -50.5q0 -7 -1 -8v-3q0 -2 -0.5 -3.5t-0.5 -3.5l-172 -315h119v-8l37 -37v-184h-385q-16 0 -29 13l-28 29v-1q-15 6 -23.5 22.5t-12.5 35.5t-4.5 36.5
t-0.5 26.5zM7 115q0 -9 0.5 -25t4.5 -34.5t12.5 -37t23.5 -30.5v-1l31 -32q8 -8 15 -11l17 -17q15 -15 35 -15h393v196l-27 27v4l-10 10v8l-27 27v6h-69l149 272v5q0 1 0.5 1.5t0.5 2.5q1 3 1 11q0 24 -10.5 52.5t-31.5 48.5l-2 2h1l-11 10q-3 5 -6 9t-7 8h1l-25 23
l-12 15.5t-13 13.5l101 169l-28 27l2 3l-10 8l9 13l-28 28l3 5h-228l-10 -20l-10 11l-4 9h-228l136 -223h5l9 -9h-137v-215h6l27 -27h7l10 -10h4l27 -27h52zM257 509h-168v110h334q3 0 11 -2q10 -15 15 -33t5 -32l-1 -1q0 -1 -0.5 -2.5t-0.5 -3.5v-2l-211 -392h8l27 -27h160
v-109h-358q-4 16 -4.5 33t-0.5 26l209 402l-28 27zM250 804l2 4l28 -27l35 70h85l-72 -118h-151l-71 118h120z" />
    <glyph glyph-name="FL0178h" unicode="&#x178;" 
d="M386 673q-23 6 -38 24l-23 22v-1q-5 2 -10.5 7l-10.5 10q-8 -27 -29.5 -45t-52.5 -21l3 -7h-1l36 -35l22 -48l46 94h58zM87 806q0 -35 23 -59t61 -24t61 24t23 59t-23 59t-61 24t-61 -24t-23 -59zM294 806q0 -35 22.5 -59t60.5 -24t61.5 24t23.5 59t-23.5 59t-61.5 24
t-60.5 -24t-22.5 -59zM362 320l160 336h-183l-65 -134l-64 134h-184l161 -335v-317h175v316zM71 806q0 42 27 71t73 29q29 0 51.5 -12.5t34.5 -34.5h-1l25 -23q8 31 33.5 50.5t62.5 19.5q29 0 52 -12.5t35 -34.5h-1l25 -23q27 -27 27 -70q0 -34 -18 -59.5t-50 -33.5h103
l-4 -9l38 -36l-169 -352v-326h-200l-37 37h-8v328l-171 358h181q-24 6 -39 24l-23 22v-1q-23 13 -35 36t-12 52zM60 806q0 -28 12.5 -52.5t37.5 -42.5l25 -25l1 -1q1 0 2 -1h-156l177 -371v-337h6l27 -27h8l10 -10h4l27 -27h212v333l171 356l-28 27l2 3l-11 10l5 10l-28 27
l3 6h-27q13 24 13 52q0 46 -30 76l-12 11q-3 5 -7 10.5t-9 10.5l-23 21q-18 25 -42.5 38.5t-52.5 13.5q-35 0 -61 -17t-40 -45l-11 10q-18 24 -42 38t-52 14q-51 0 -81 -32t-30 -79zM225 292l-157 326h148l58 -121l2 4l28 -27l69 144h119l-141 -296v-307h-126v277zM125 776
q0 32 20.5 53.5t55.5 21.5q18 0 32 -7q11 -17 11 -38q0 -30 -20 -51t-53 -21q-24 0 -41 11q-3 7 -4 15t-1 16zM332 776q0 32 20 53.5t55 21.5q19 0 33 -7q11 -17 11 -38q0 -30 -20.5 -51t-53.5 -21q-22 0 -40 10q-3 8 -4 16t-1 16zM304 649l-18 -37l-14 15l-3 6q18 4 35 16z
M337 690q4 -4 7 -6h1h-11z" />
    <glyph glyph-name="FL00A1h" unicode="&#xa1;" horiz-adv-x="326" 
d="M76 547q0 -16 5 -33q18 -10 40 -10q33 0 53 21t20 52q0 19 -10 37q-16 7 -33 7q-35 0 -55 -21t-20 -53zM72 15h125v398h-125v-398zM11 577q0 48 29.5 79t80.5 31q26 0 49.5 -12.5t41.5 -34.5l26 -26q5 -5 9 -10t7 -11l12 -11q30 -30 30 -75q0 -46 -29 -75l5 -4v-5l27 -26
v-485h-211l-27 27h-4l-10 10h-7l-27 27h-6v502h58l-4 4q-25 18 -37.5 42.5t-12.5 52.5zM22 577q0 -29 12 -52t35 -36v1l22 -23h-73v-480h8l36 -37h199v473l-37 36v2q15 13 24.5 32.5t9.5 43.5q0 41 -28 69l-23 23h1q-12 22 -35 34.5t-52 12.5q-45 0 -72 -28t-27 -71zM34 451
h174v-447h-174v447zM38 577q0 35 22.5 58.5t60.5 23.5t61 -23.5t23 -58.5t-23 -59.5t-61 -24.5t-60.5 24.5t-22.5 59.5z" />
    <glyph glyph-name="FL00A2h" unicode="&#xa2;" horiz-adv-x="578" 
d="M275 292q0 -30 14 -63q5 -3 8.5 -5.5t8.5 -4.5v166q-31 -28 -31 -93zM221 332q0 60 25 94t76 36v-264q-21 1 -39 12.5t-32 30t-22 42t-8 49.5zM322 -88h62v92h74v194h-74v264h75v194h-75v92h-62v-92q-151 -2 -221 -83.5t-71 -243.5q0 -68 19.5 -127t57 -103t92 -69.5
t123.5 -25.5v-92zM306 -45q-48 8 -87 28.5t-68 50.5l-21 21v-1q-57 46 -87 116.5t-30 158.5q1 163 71.5 249t221.5 94v93h95v-8l36 -37v-47h39v-8l37 -37v-220h-76v-193h38v-8l37 -37v-220h-75v-91h-87l-37 36h-7v60zM295 -116h6l27 -27h7l10 -9h3l28 -27h99v91h75v232
l-27 27v4l-10 10v8l-27 27v6h-11v144h76v232l-27 27v4l-10 10v8l-27 27v6h-12v10l-27 28v3l-9 9v9l-27 27v6h-117v-94q-152 -13 -222 -101t-71 -252q0 -83 30 -154t87 -125l24 -24q7 -8 15 -14.5l16 -12.5l4 -4q47 -46 117 -68v-43zM333 15q-66 0 -118.5 22.5t-89.5 61.5
q-29 41 -43 92t-14 108q1 158 71 237.5t221 81.5v92h13v-65h6l27 -27h42v-145h-75v-286h6l27 -27h41v-145h-74v-92h-13v59l-27 27v6zM210 332q0 -38 17 -71t45 -53l15 -14q15 -15 34 -24t39 -10v280l-27 27v6q-63 -2 -93 -39.5t-30 -101.5z" />
    <glyph glyph-name="FL00A3h" unicode="&#xa3;" horiz-adv-x="563" 
d="M35 409v-158h59q-3 -14 -3 -29q0 -30 3 -60h-58v-158h408v168h-103q-30 0 -48.5 13t-18.5 44q0 13 3 22h118v158h-118q-3 9 -3 22q0 30 18.5 43t48.5 13h19v168h-126q-39 0 -66.5 -23t-44.5 -56t-24.5 -70.5t-7.5 -67.5q0 -19 6 -29h-62zM74 426v12q0 32 8.5 72.5
t28 76.5t49.5 60.5t74 24.5h143v-8l37 -36v-194h-33q-18 0 -37 -8h68v-8l36 -37v-184h-121v-8h14h120v-8l37 -37v-194h-435l-36 37h-8v192h57v1q-1 5 -1.5 8.5t-0.5 8.5h-12l-36 37h-8v192h56zM7 437v-214h6l27 -27h7l6 -6h-45v-214h6l27 -27h7l10 -10h4l27 -27h447v206
l-27 27v4l-10 10v8l-13 13v175l-27 27v4l-9 9v1h2v206l-27 27v4l-10 9v8l-27 27v6h-154q-47 0 -79.5 -26t-52.5 -63.5t-29.5 -80t-9.5 -75.5v-1h-56zM301 371h83v-109h-115q-6 -18 -6 -33q0 -44 32 -60l17 -16q19 -19 59 -19h62v-119h-359v109h59q-2 20 -3 37t-1 31
q0 12 5 37l-28 27q1 2 1 3t1 3h-35v109h68q-12 22 -12 37q0 28 7 64.5t23 68.5t42 54t63 22h85v-119h-8q-35 0 -56.5 -15.5t-21.5 -51.5q0 -15 6 -33h5z" />
    <glyph glyph-name="FL00A4h" unicode="&#xa4;" 
d="M288 299q7 7 9 21q-8 -6 -9 -21zM315 329q0 -23 -10.5 -37t-29.5 -14t-30 13.5t-11 37.5v2q0 24 11 37t30 13t29.5 -13.5t10.5 -36.5v-2zM420 329q0 58 -13 83l115 243h-183l-65 -134l-64 134h-184l116 -244q-13 -25 -13 -82q0 -56 13 -81l-116 -244h184l64 134l65 -134
h183l-115 243q13 25 13 81v1zM550 672l-4 -9l38 -35l-122 -256q12 -32 12 -83v-1q0 -51 -12 -81l123 -257h-214l-36 37h-7l-26 54l-43 -91h-212l-37 37h-11l124 261q-11 31 -11 81q0 49 11 82l-124 261h222l4 -11h-1l36 -34l22 -49l46 94h222zM321 683l-36 -72l-12 13l-4 9
l-9 8l-3 9l-26 25l-2 8h-247l128 -272q-9 -30 -9 -82t9 -82l-128 -271h8l27 -27h15l10 -10h4l27 -27h221l29 64h3l27 -27h3l10 -10h4l27 -27h230l-127 265q12 31 12 81v1q0 50 -12 83l123 258l-28 27l2 3l-10 9l5 11l-28 27l3 6h-246zM409 329v-1q0 -26 -3.5 -46t-11.5 -34
l111 -233h-148l-53 111l-24 23l-6 14l-71 -148h-120l98 204q-14 25 -14 80q0 56 14 81l-113 237h148l58 -121l2 4l28 -27l69 144h119l-98 -206q8 -14 11.5 -34.5t3.5 -47.5zM272 253q13 -13 33 -13q23 0 35.5 16t12.5 43v2q0 30 -16 46l-17 17q-12 28 -45 28q-24 0 -38 -16
t-14 -45v-2q0 -46 31 -59z" />
    <glyph glyph-name="FL00A5h" unicode="&#xa5;" 
d="M362 161h96v159h-96l160 336h-183l-65 -134l-64 134h-184l161 -336h-98v-159h98v-55h-97v-159h97v-83h175v83h97v159h-97v55zM550 673l-4 -9l38 -36l-141 -292h32v-8l36 -36v-184h-28l29 -30v-185h-97v-83h-200l-37 37h-8v46h-52l-37 37h-8v192h29l-22 22h-7v192h86
l-160 337h222l4 -11h-1l36 -35l22 -49l46 95h222zM321 684l-35 -72l-15 14l-3 9l-9 8l-2 8l-26 25l-2 8h-247l160 -337h-80v-428h6l27 -27h8l10 -10h4l27 -27h15v-19h6l27 -27h8l10 -10h4l27 -27h212v83h97v197l-18 18h17v196l-27 27v4l-9 9v8l-19 18l130 269l-28 27l2 3
l-11 10l5 10l-28 27l3 6h-246zM351 95h6l27 -27h64v-110h-97v-83h-126v50l-27 27v6h-70v110h97v71l-27 27v6h-71v110h102l-161 336h148l58 -121l2 4l28 -27l69 144h119l-147 -309h8l27 -27h67v-110h-96v-77z" />
    <glyph glyph-name="FL00A6h" unicode="&#xa6;" horiz-adv-x="326" 
d="M34 358h174v390h-174v-390zM34 -88h174v391h-174v-391zM224 757l37 -37v-415h-30l30 -30v-416h-199l-36 36h-8v425h29l-21 21h-8v424h206v-8zM235 776h-228v-892h6l27 -27h8l9 -9h4l27 -27h211v428l-18 18h18v427l-27 27v4l-10 10v8l-27 27v6zM72 265h125v-342h-125v342z
M72 710h125v-341h-125v341z" />
    <glyph glyph-name="FL00A7h" unicode="&#xa7;" horiz-adv-x="534" 
d="M243 299q7 7 9 21q-8 -6 -9 -21zM270 329q0 -23 -10.5 -37t-29.5 -14t-30 13.5t-11 37.5v2q0 24 11 37t30 13t29.5 -13.5t10.5 -36.5v-2zM88 184l-27.5 10t-24.5 8v-142q0 -14 19.5 -24.5t47 -18t56.5 -11.5t49 -4q51 0 90 15.5t65 44t39 68t13 87.5q0 42 -11.5 71.5
t-28.5 49.5q-2 69 -33.5 107.5t-97.5 46.5q13 7 35 7q15 0 34 -5.5t39 -12.5q14 -5 26.5 -9t21.5 -6v151q0 14 -19 21.5t-43.5 11.5t-48 4.5t-32.5 0.5h-7q-98 0 -156.5 -49.5t-58.5 -150.5q0 -51 14 -83t35 -55q5 -128 109 -149q-4 -4 -14 -4h-10q-22 0 -41.5 6t-39.5 14z
M34 219q12 -2 21 -5.5t19 -6.5h-1q3 -1 5.5 -2t5.5 -2l10 -3q5 -2 9 -4t9 -4q-42 42 -45 120q-22 26 -35.5 59t-13.5 84q0 109 63.5 163t168.5 54h7q9 0 32.5 -1t49.5 -5t48 -13.5t28 -25.5h-1l30 -29q10 -10 10 -21v-165q-22 3 -38 7.5t-29 9.5l-11 3l8 -7q40 -43 44 -123
q18 -22 29.5 -52.5t11.5 -72.5q0 -51 -14 -93t-42 -72t-69 -47t-96 -17q-18 0 -43 3.5t-50.5 10t-48 16t-34.5 21.5l-27 27v-1q-26 17 -26 35v146zM8 210v-150q0 -18 26 -39l30 -30q8 -8 17 -13l15 -15q12 -12 35.5 -22t49.5 -17t52.5 -10.5t44.5 -3.5q57 0 99.5 17.5
t71.5 48.5t43.5 74.5t14.5 96.5q0 42 -11.5 73t-29.5 54q-2 35 -11.5 63t-23.5 49q11 -4 26 -7.5t35 -5.5v174q0 15 -12 27l-18 18q-2 4 -4.5 7t-5.5 7l-33 32l-1 -1q-15 17 -39 26t-48.5 13.5t-45 5.5t-28.5 1h-7q-55 0 -100 -14.5t-76.5 -43t-49 -71t-17.5 -99.5
q0 -51 13.5 -84.5t35.5 -61.5q2 -53 23 -91h-3l-1 2l-1 -1q-2 0 -2 1q-3 0 -5 2l-9 3q-5 2 -10 3t-17 3zM122 290q-21 23 -35 54t-14 81q0 98 56 145t151 47h7q5 0 17 -0.5t26.5 -1t30 -2.5t28.5 -5v-127q-14 3 -33 11q-20 7 -39.5 12.5t-37.5 5.5q-24 0 -70 -25
q4 -1 7 -1.5t7 -0.5l26 -26q24 -4 44 -9.5t37 -14.5q17 -19 24.5 -43.5t9.5 -55.5q17 -20 28.5 -48.5t11.5 -68.5q0 -45 -12.5 -82.5t-37 -64.5t-61 -42t-85.5 -15q-13 0 -30.5 1.5t-36 4.5t-36.5 7t-31 10v125q7 -2 15 -5.5t17 -6.5l9 -3v1q22 -9 42 -15t42 -6h10
q8 0 14.5 3.5t16.5 13.5l-28 28l4 4q-45 9 -74 33q-10 17 -14.5 37.5t-5.5 44.5zM227 253q13 -13 33 -13q23 0 35.5 16t12.5 43v2q0 30 -16 46l-17 17q-12 28 -45 28q-24 0 -38 -16t-14 -45v-2q0 -46 31 -59z" />
    <glyph glyph-name="FL00A8h" unicode="&#xa8;" horiz-adv-x="517" 
d="M30 795q0 -35 22.5 -58t60.5 -23t61 23t23 58t-23 59t-61 24t-60.5 -24t-22.5 -59zM236 795q0 -35 22.5 -58t60.5 -23t61 23t23 58t-23 59t-61 24t-60.5 -24t-22.5 -59zM13 795q0 42 27.5 71t72.5 29q29 0 51.5 -12.5t34.5 -34.5h-1l21 -20l4 -3q8 31 34 50.5t62 19.5
q29 0 51.5 -12.5t34.5 -34.5h-1l25 -23q28 -28 28 -69q0 -42 -26.5 -68.5t-71.5 -26.5q-42 0 -70 27l-22 22v-1q-5 2 -10.5 7l-10.5 10q-8 -30 -33 -47.5t-60 -17.5q-42 0 -70 27l-22 22v-1q-48 25 -48 86zM2 795q0 -57 49 -91l24 -24q9 -9 18 -15l14 -13q30 -29 76 -29
q34 0 59.5 15.5t36.5 42.5q1 -2 2 -2.5t2 -1.5l8 -6l8 -6l14 -13q30 -29 76 -29q49 0 77.5 28.5t28.5 74.5q0 44 -31 75l-11 10q-8 13 -17 22l-23 21q-18 25 -42 38.5t-52 13.5q-35 0 -61 -17t-40 -45l-14 13q-17 23 -41 36t-50 13q-51 0 -81 -32t-30 -79zM68 765
q0 32 20 53.5t55 21.5q18 0 32 -7q11 -17 11 -38q0 -30 -20 -50t-53 -20q-24 0 -40 10q-5 15 -5 30zM274 765q0 32 20 53.5t55 21.5q18 0 32 -7q11 -17 11 -38q0 -30 -20 -50t-53 -20q-24 0 -40 10q-5 15 -5 30z" />
    <glyph glyph-name="FL00AAh" unicode="&#xa9;" horiz-adv-x="340" 
d="M227 654q0 -1 2 -3zM222 622q-3 1 -4 4zM75 512l-2 2h1l5 -6l-3 1q0 1 -0.5 1.5t-0.5 1.5zM196 641q4 -2 10 -6q2 -2 2.5 -4t2.5 -4zM133 496l-24 5l-17 18h-4l-3 -12h-3q-1 1 -2 1l-1 1t-1 2t-1 2l1 -1q-10 20 -10 44q0 31 18 54q-3 -11 -3 -24q0 -26 12 -38l30 -30
q11 -11 32 -11q8 0 12 1v-1q-14 -6 -22 -8t-13 -3h-1zM203 630q16 -29 16 -44q0 -20 -15 -42l-3.5 -8.5t-3.5 -5.5q0 1 2 5l-30 30l-4 -2l-2 3q-1 -2 -1 -5l-3 -1l2 -2q-8 -20 -33 -20q-9 0 -13 1q-1 5 -1 17q0 46 44 46q6 0 12 -2l21 -20l2 4h2h-1v1l3 6l-30 30l-4 -1l-7 7
q-11 11 -28 11q-6 0 -8 -1q16 9 38 9q27 0 42 -12v-1h1q0 -1 2 -3zM128 711q33 0 57 -14t44 -41l14 -15q4 -4 7 -8l7 -9l13 -13q21 -36 21 -64q0 -15 -5.5 -30t-15.5 -31q-10 -20 -17 -27t-19 -15v1l-6 -4q-26 -13 -45 -15.5t-21 -2.5l-48 12v-4l-9 9v-3l-7 7q-2 1 -4 3
l-16 17v-6l-3 3q-5 6 -7.5 10.5t-4.5 6.5l-20 21q-2 2 -8.5 9.5l-18.5 21.5l29 -28q3 -4 6 -7.5t6 -6.5l13 6l9 -10l2 1l29 -29h1l22 -23l30 -7q2 0 20 2.5t46 16.5l3 2q13 8 20 15.5t17 27.5v-1q19 28 19 58q0 25 -17 56l-2 2l-6 12l-2 1q2 -2 2.5 -4t2.5 -4h-15l-30 30
l6 14q-2 2 -2 3q-3 2 -6 3.5t-5 3.5l-2 1l-1 1q-20 12 -53 12h-7q22 -8 41 -26l30 -30q13 -13 21 -29t8 -32v-5q0 -21 -13.5 -45t-33.5 -36q-11 -7 -21.5 -9t-19.5 -2l-1 -14h-3l-16 15q-5 2 -11 3.5t-13 4.5l-9 1l-10 -4l-30 30v11l-8 9q-12 12 -17 22q-7 11 -10 24v-10
q0 -38 10 -54l-30 30q-10 16 -10 54q0 69 60 107v1q13 9 28 11.5t35 2.5q37 0 57 -14l1 -1q13 -8 26 -20l30 -30v-1q1 0 1 -1l3 -2l3 -2q11 -11 17 -20v1q1 -2 1.5 -3.5t2.5 -3.5l7 -6q16 -17 21 -29h1q19 -31 19 -59q0 -30 -19 -58h-1q-5 -10 -9 -16t-7.5 -10.5t-8.5 -8
l-11 -7.5l-3 -2q-28 -14 -46 -16.5t-20 -2.5l-52 13v-4l-11 10l-2 2l-14 14v-3l-9 9v-6l-27 27v-7q-11 17 -16 23.5t-7 9.5l-14 13q-1 1 -3 4t-7 8q-3 4 -10.5 12.5t-12.5 15.5q-6 9 -6 49q0 73 62 111v-1q16 9 31 12t33 3zM128 700q-18 0 -32 -2.5t-26 -10.5
q-57 -35 -57 -101q0 -36 9 -51q15 -18 27 -30l13 -12v1q2 -2 3.5 -4l1.5 -2v1q1 -1 3 -2.5t3 -2.5v1l1 -1l9 -9l10 -10l10 -10v1q2 -2 4.5 -4t4.5 -4l53 -14q2 0 18 2.5t39 13.5l6 4q12 8 19 14.5t15 24.5q8 13 13 26.5t5 27.5q0 25 -18 55q-2 5 -7 11.5t-15 16.5l-3 2
l-16 16h1q-14 24 -42 39q-19 13 -52 13zM128 684q29 0 45 -13q14 -8 23 -17.5t14 -19.5q17 -29 17 -48q0 -22 -17 -48q-6 -14 -12 -20t-17 -12l-7 -5q-20 -9 -31.5 -11t-13.5 -2h1l-52 13v-1q-3 3 -6.5 5.5t-5.5 4.5l-10 10.5t-15 17.5q-11 20 -11 48q0 54 49 85
q22 13 49 13zM128 673q-47 0 -76 -44q-11 -39 -11 -43q0 -20 11 -40q10 -18 31 -34l9 -1h-1q21 -9 37 -9q9 0 20 1.5t22 8.5q18 11 30.5 33t12.5 41v5q0 14 -7 28.5t-19 26.5t-26.5 19.5t-29.5 7.5h-3zM128 530q-52 0 -52 56q0 54 52 54q32 0 41 -27l-11 -3q-11 20 -30 20
q-37 0 -37 -44q0 -41 36 -41q26 0 34 23l10 -3q-6 -35 -43 -35z" />
    <glyph glyph-name="FL0192h" unicode="&#xaa;" horiz-adv-x="1108" 
d="M816 179v-9l17 -6q-4 3 -8 6.5t-8 7.5zM255 378l1 -2l12 6q-4 1 -12 5zM547 93l2 -4l104 58l50 -41l36 49l-7 2l-22 20q-6 -9 -12 -21h-53l-36 -10q-30 0 -64 28v-23l-53 -10l-16 15q-12 -10 -24 -10l-1 -1h-5q-4 -1 -17 -1q-25 0 -41 12l2 -12q-5 -2 -8.5 -2.5
t-6.5 -1.5l26 -1l-2 -5l26 -27l93 19l9 -13zM751 409l48 -19l1 11l-2 1l-9 8l-4 2h-69l-27 27h-4l-10 10l-110 -18l-29 27h-2l-5 5l-90 -49l-46 39l-50 -60l6 -7l7 6h20q15 0 33 -9v50l23 -29l10 -9l22 -27l11 -11l5 -7l3 51l52 -16v1l74 23l-1 -7l12 -12q2 4 4 7l5 -1
q10 6 26 6q13 0 25 -9v46l16 -22l17 -16l20 -27l12 -11l3 -4zM1026 399l27 -27v-21q0 -17 -6 -27l9 -9l-2 -9l11 -10l-1 -3l14 -13q2 -2 2 -3l1 -1l11 -11l-2 -7q1 -3 1 -13h-5l-17 -41h-21q4 -12 13 -59l-3 3q-3 -32 -38 -47l-48 11l-5 -64q-16 -31 -44 -31
q-20 0 -33.5 4.5t-30.5 15.5l-56 -69l-49 -11l-29 28l-2 -1l-11 10l-114 -65l-35 13l-26 25l-5 2l-4 4l-117 -21l-32 23l-21 20l-11 8l-4 4l-122 12l-29 27h-2l-9 8l-9 2l-26 26l-7 1v8q-4 2 -7.5 4.5l-7.5 5.5l-23 21q-2 1 -6 5v-1l-34 33q-26 18 -26 59l12 11l-1 1l-8 4
l-24 23l-9 5l-13 73l57 11l-18 27l6 77l75 -8q8 100 55 100h8l57 -23q23 32 45 51t47 31l57 -39l118 66l50 -48l-1 -2l99 20l79 -7l-1 -5l28 -28l-2 -6l3 -2h100l30 -31v-3l13 -13l24 -25q0 -1 -0.5 -1.5t-0.5 -1.5l11 -10l58 -16v-5l27 -27v-5l10 -9v-4zM1015 398l-37 36v7
l-69 19v5q0 2 0.5 4t0.5 4l-21 22l-16 16v3l-24 25h-100l-36 35l1 7l-65 6l-105 -22l-8 7l1 4l-40 38l-117 -65l-58 40q-22 -10 -41.5 -29t-43.5 -54l-63 25h-7q-41 0 -44 -101l-76 8l-5 -62l26 -37l-63 -12l10 -58l11 -5v1l36 -35l1 -1l-17 -15q0 -40 23 -48v1l31 -30h-1
q6 -9 20 -9l31 -8v-27l8 -1l-1 1l38 -36l123 -12h-1l9 -6v1l32 -32l25 -18l122 21l-1 1l34 -33l30 -11l116 66l2 -1h2l-1 1l40 -38l42 10l59 72q19 -12 32.5 -17.5t32.5 -5.5q23 0 36 25l6 72l55 -13q30 13 30 44v6l-19 19v6l18 -17q-3 17 -5.5 25.5t-4.5 10.5l-9 9h34
l17 39v2h2q0 4 -1 5l1 4l-7 7q-1 1 -1.5 2t-2.5 3l-26 26l1 7h-8q-1 0 -1 2l-7 6q14 12 14 36v17zM997 324l-13 -29h-59l39 -58v1q0 -1 2 -11v-4q0 -22 -18 -29l-65 16l-7 -88v1q-8 -15 -23 -15t-27.5 6.5t-31.5 17.5l-9 4l-64 -78l-31 -7l-39 42l-124 -70l-18 7v43
l-162 -28l-19 13l7 35l-168 16v23l22 27l-108 23q-18 0 -18 25l43 37l-76 37l-5 32l73 15l-39 54l4 38l76 -8q0 102 28 102h3l74 -29q25 38 42.5 57t34.5 27l59 -40l116 64l23 -21l-4 -21l5 -9l131 28l43 -5l-6 -43h156l12 -13q0 -36 -25 -39l-1 -4l131 -39v-7
q0 -31 -46 -37l-1 -4q76 -34 84 -50l-1 -6v1zM983 313l-7 18l-101 56l61 18h11l-10 19l-147 36l54 44h-178l13 50l-170 -28l-5 43l-15 5l-117 -63l-51 44l-72 -85q-7 -4 -15 -4q-23 0 -65 33l-12 -103l-83 8l5 -33l43 -63l-86 -6l112 -64l-73 -36l157 -41l-53 -41l183 -8
l-19 -49l163 33l19 -26l-7 -31l133 72l58 -43l66 87l85 -31l6 102l85 -14q1 3 1 7q0 1 1 1q0 19 -51 85zM811 393l-1 -26l-1 1v8l-48 18l-4 -64l-17 23l-29 28h1l-21 27v-42q-16 25 -36 25q-17 0 -24 -7v2q-3 -5 -7.5 -11.5t-7.5 -11.5l-20 21l1 10l-52 -16l-2 -15l-3 4v6
l-47 13l-4 -64l-18 23l-25 25h1l-27 33v-40q-20 18 -44 18h-17q-3 -2 -7.5 -6t-10.5 -10l-14 15l1 9q-57 -12 -82 -30l-15 16l1 8l-18 -3l6 52q29 -20 54 -20q13 0 24 6l64 77l48 -41l93 50l35 -34l107 17h9l36 -37h67l10 -3v1l37 -36l52 -12l-25 -7l15 -10zM261 195v11
l21 -20q14 -14 32 -14q4 0 14 2h1q2 1 5 1.5t17 4.5l-3 27l11 -10q15 -15 40 -15q13 0 15 1h2q1 0 1.5 0.5t1.5 0.5q16 0 27 14l19 -18l42 8v36l8 -8q35 -32 62 -32l41 12l2 -2h43l8.5 15l6.5 11l27 -25l29 -8h3l41 4v37l11 -11q21 -22 44 -27l12 -13l-1 -29l-76 29l-63 -86
l-53 42l-106 -58l-22 22h1l-12 17l-103 -21l-27 27l3 8l-89 3l-33 33l8 6l-46 11zM420 325q-11 -87 -40 -87q-2 0 -3.5 -0.5t-3.5 -0.5q-2 -1 -13 -1q-28 0 -37 18q0 81 42 110h11q35 0 44 -39zM645 277q-14 0 -30 -30h-21q9 62 48 124q1 3 13 3q18 0 30 -40v-90l-12 3
q-12 30 -28 30zM453 239l-16 -3v119l67 -80l5 88l14 -4v-121q-25 3 -70 66v-65zM724 243l-16 -1v118l65 -83l4 93l15 -6v-122q-26 3 -68 68v-67zM402 306q0 7 -1 9q0 2 -0.5 3.5t-0.5 3.5q-11 17 -23 17q-21 0 -35 -41v-10q0 -33 20 -33q11 0 31 12q6 10 7.5 18.5t1.5 20.5z
M305 344q-1 1 -7 1q-15 0 -37 -24q-13 -19 -13 -48q0 -28 26 -28q15 0 20 3l2 -17q-2 -1 -6 -2t-5 -1h1q-3 -1 -5.5 -1.5t-6.5 -0.5q-32 0 -42 54q-2 2 -2 9v8q0 56 80 71l-2 -25q-1 1 -3 1zM561 364l18 6l-7 -122l-23 -6zM198 361l16 2l-7 -119l-20 -7zM131 335l-1 13
l49 -5l-6 -70l-42 63v-1zM828 370l24 -6l-12 -89l-15 2zM669 301l-17 51l-24 -51h41zM894 238l5 40q11 -15 18 -26.5l12 -19.5zM814 229l11 10l16 -6l-15 -17zM907 334l-3 3l21 -13l-20 -2zM155 253l17 2l-1 -11zM201 188l2 -2l-4 1z" />
    <glyph glyph-name="FL00ABh" unicode="&#xab;" horiz-adv-x="531" 
d="M229 290v4h-4zM246 240l166 -101v157l-60 31l60 30v159l-166 -103v-173zM35 240l166 -101v157l-60 31l60 30v159l-166 -103v-173zM18 424l200 123v-13l37 -36v-58l174 107v-13l37 -36v-189l-30 -15l30 -29v-192l-190 116l-21 21v-137l-191 116l-32 33v-1l-14 9v194z
M7 225l13 -10l20 -19l3 -2l14 -14l10 -6l20 -20l206 -125v131l6 -6l205 -125v210l-24 23l24 12v198l-27 27v4l-10 9v19l-27 27v9l-151 -93l-23 24v5l-10 9v19l-27 27v9l-222 -136v-206zM153 297l37 -20v-118l-117 71v148l117 73v-88l-74 -36l14 -8zM364 297l37 -20v-118
l-117 71v148l117 73v-88l-74 -36l14 -8z" />
    <glyph glyph-name="FL00ACh" unicode="&#xac;" horiz-adv-x="547" 
d="M271 130h157v276h-393v-157h236v-119zM445 423v-8l37 -36v-302h-184l-36 37h-8v82h-192l-36 36h-8v191h427zM7 434v-213h6l27 -27h8l9 -9h4l27 -27h155v-55h6l27 -27h7l10 -10h4l27 -27h196v314l-27 27v4l-10 9v8l-27 27v6h-449zM282 260h-209v108h344v-227h-108v86
l-27 27v6z" />
    <glyph glyph-name="FL00ADh" unicode="&#xad;" horiz-adv-x="363" 
d="M35 248h210v156h-210v-156zM18 421h243v-8l37 -37v-181h-236l-36 36h-8v190zM7 220h6l27 -27h8l9 -9h4l27 -27h248v193l-27 27v4l-10 10v8l-27 27v6h-265v-212zM73 366h161v-107h-161v107z" />
    <glyph glyph-name="FL00AEh" unicode="&#xae;" horiz-adv-x="340" 
d="M128 710q17 0 32 -4t28 -13l-1 1q8 -5 16 -11.5t16 -14.5l4 4l2 -6t2 -5l25 -24q2 -8 3 -10q2 -3 5 -6t5 -6l16 -16q1 -1 1.5 -2t1.5 -2q4 -5 7.5 -8.5t7.5 -11.5q19 -35 19 -59q0 -27 -18 -54q-7 -18 -16.5 -29t-23.5 -19v-1q-24 -14 -40.5 -16t-21.5 -2h-1
q-32 0 -59 15q-5 4 -11 8t-12 10l-14 13q-5 3 -9.5 7t-9.5 9q-10 7 -17 15l-8 8q-14 9 -24.5 19.5t-16.5 22.5q-14 24 -14 63q0 21 2 33t10 23v3l5 5q12 16 22.5 27.5t24.5 18.5q27 15 62 15zM128 699q-31 0 -57 -14q-14 -7 -24.5 -19t-21.5 -27v-3q-7 -11 -9.5 -21.5
t-2.5 -29.5q0 -39 13 -58q8 -14 18.5 -23.5t21.5 -16.5v1l2 -2l18 -17q6 -7 12.5 -12l13.5 -10q26 -14 55 -14h1q4 0 19 2t35 13v1q15 8 24.5 17.5t14.5 25.5h-1l4 4q16 22 16 50q0 24 -17 53l-3 3h1q-2 5 -6.5 10l-9.5 11l-22 22l-0.5 1.5t-2.5 6.5l-1 -1q-15 19 -37 32
q-23 15 -54 15zM128 683q25 0 45 -14q27 -14 37 -36q17 -29 17 -48q0 -22 -17 -48q-7 -23 -36 -37q-17 -9 -29.5 -11t-15.5 -2h-1q-24 0 -50 13q-9 7 -18.5 16t-18.5 21q-11 20 -11 48q0 15 2.5 24.5t8.5 21.5v2q8 11 17.5 20.5t20.5 15.5q26 14 49 14zM128 672
q-47 0 -76 -44q-11 -39 -11 -43q2 -11 3.5 -17t7.5 -24q1 -1 1.5 -2t1.5 -2h-1l13 -13.5t16 -15.5l9 -2h-1q19 -5 23.5 -6t13.5 -2q12 0 21.5 1.5t20.5 8.5q14 11 31 32q3 8 4.5 12.5t2.5 8.5t2 8.5t3 12.5v5q0 14 -7 28.5t-19 26.5t-26.5 19.5t-29.5 7.5h-3zM120 635
q21 0 29 -5l4 -2q5 -1 7 -3h-1q6 -9 6 -17q0 -24 -38 -29q11 -5 15 -8t6 -6q1 -1 0 -1v-1q0 -3 12 -13h-1l9 -19h-16l-6 16q-3 3 -4.5 7.5t-17.5 19.5q-6 3 -13 3h-11v-46h-14v104h34zM100 588h21q17 0 23 3t6 16q0 11 -11 17v-1q-2 2 -19 2h-20v-37zM189 615q1 -1 1 -2
t1 -2l-5 4h3z" />
    <glyph glyph-name="FL00AFh" unicode="&#xaf;" horiz-adv-x="515" 
d="M35 537h361v125h-361v-125zM413 679v-8l37 -36v-151h-388l-36 36h-8v159h395zM7 690v-181h6l27 -27h8l9 -9h4l27 -27h400v163l-27 27v4l-10 9v8l-27 27v6h-417zM73 624h312v-76h-312v76z" />
    <glyph glyph-name="FL00B0h" unicode="&#xb0;" horiz-adv-x="309" 
d="M93 755q-20 7 -22 36q-4 -11 -4 -26t5 -30q16 -10 40 -10h8q4 0 9 1q-8 1 -15 8zM178 763q7 16 7 32q0 21 -11 38q-14 7 -32 7q-5 0 -10 -0.5t-10 -1.5q19 -4 25 -22l21 -20q10 -10 10 -31v-2zM2 795q0 47 29.5 79t80.5 32q26 0 50 -13t41 -36l26 -24q5 -5 8.5 -10
t7.5 -10l12 -12q30 -30 30 -75q0 -46 -28.5 -74.5t-77.5 -28.5q-45 0 -74 29l-13 12q-5 3 -9.5 7t-9.5 9l-24 24q-49 34 -49 91zM13 795q0 -61 48 -86v1l22 -22q27 -27 68 -27q45 0 71.5 26.5t26.5 68.5q0 41 -28 69l-24 23h1q-12 22 -34.5 34.5t-51.5 12.5q-45 0 -72 -29
t-27 -71zM29 795q0 35 22.5 59t60.5 24t61 -24t23 -59t-23 -58t-61 -23t-60.5 23t-22.5 58zM82 795q0 -32 28 -32q30 0 30 32q0 33 -30 33q-28 0 -28 -33zM137 737l1 4q-2 0 -2 1l-2 -3z" />
    <glyph glyph-name="FL00B1h" unicode="&#xb1;" horiz-adv-x="547" 
d="M34 4h393v158h-393v-158zM310 335h118v158h-118v117h-157v-117h-118v-158h118v-119h157v119zM164 179l-20 20h-8v82h-74l-36 37h-8v192h118v117h191v-8l37 -36v-73h81v-8l37 -37v-184h-118v-102h80v-8l37 -37v-184h-420l-36 37h-8v192h147zM6 190v-214h6l27 -27h7l10 -10
h4l27 -27h432v196l-27 27v4l-10 10v8l-27 27v6h-53v53h118v196l-27 27v4l-10 10v8l-27 27v6h-54v36l-27 27v4l-10 9v8l-27 27v6h-213v-117h-118v-214h6l27 -27h7l10 -10h4l27 -27h37v-53h-119zM164 346h-91v109h118v117h108v-90h6l27 -27h85v-109h-118v-119h-108v86l-27 27
v6zM72 124h344v-109h-344v109z" />
    <glyph glyph-name="FL00B2h" unicode="&#xb2;" horiz-adv-x="382" 
d="M147 434h-6v22q0 13 11.5 21t25.5 16q0 2 4 2l1 1l16 8q21 11 37 27t16 45q0 34 -15 57q-14 6 -30.5 9.5t-37.5 3.5q-10 0 -26 -1.5t-31.5 -4t-26.5 -6t-11 -7.5v-26q7 2 15 3.5t20 1.5q16 0 28.5 -2t14.5 -15l24 -23q4 -4 4 -12q0 -12 -8.5 -18.5t-20.5 -14.5
q-2 -2 -3 -1.5t-3 -1.5q-12 -6 -24.5 -13t-23 -17.5t-17.5 -25t-7 -35.5v-57h171v37h-70zM8 657q0 13 15 23t36 17t43 11t37 4q48 0 81.5 -16t50.5 -45l22 -21q5 -5 8.5 -10t7.5 -10l12 -12q34 -34 34 -91q0 -30 -11 -49t-28 -33l3 -2v-4l27 -27v-124h-258l-27 27h-4l-10 10
h-7l-27 27h-6v125q0 44 23 73l-16 17h-6v110zM19 558q2 0 4 -0.5t4 0.5l23 -22q-14 -13 -23 -31.5t-9 -47.5v-114h8l36 -37h246v112l-37 36q19 13 32.5 32t13.5 51q0 53 -32 85l-23 22q-15 27 -46.5 42t-76.5 15q-14 0 -34 -3t-39.5 -9t-33 -14t-13.5 -18v-99zM36 657
q0 6 12 11t28.5 8.5t34 5.5t28.5 2q63 0 93.5 -28.5t30.5 -79.5q0 -33 -18 -51.5t-41 -30.5l-14 -7q-12 -6 -25 -13.5t-13 -17.5v-11h103v-86h-220v98q0 23 7 38.5t18 26.5t23.5 18t24.5 13l24 14t10 17q0 8 -10 9.5t-23 1.5q-14 0 -24.5 -3l-21.5 -6q-8 -2 -15 -4t-12 -4
v79z" />
    <glyph glyph-name="FL00B3h" unicode="&#xb3;" horiz-adv-x="383" 
d="M35 564v-86h113v-3q2 -2 2 -5q0 -17 -12 -20.5t-30 -3.5h-73v-88h148q28 0 45 11.5t26 28.5t12 35.5t3 33.5q0 14 -10.5 28t-29.5 26q18 12 29 26t11 28q0 15 -4.5 34t-14.5 35.5t-26.5 28t-40.5 11.5h-148v-88h73q18 0 30 -3.5t12 -20.5q0 -3 -2 -5v-3h-113zM18 701h165
q29 0 49 -14t33 -35h-1l15 -15l1 -1h1h-1q1 0 1 -1q23 -23 32.5 -51t9.5 -48q0 -15 -8.5 -29.5t-22.5 -25.5l8 -8q23 -23 23 -45q0 -17 -3.5 -38.5t-14.5 -40.5t-30.5 -31.5t-52.5 -12.5h-160l-36 37h-8v359zM7 331h6l27 -27h7l10 -10h4l27 -27h164q35 0 56.5 13.5t33 33.5
t15.5 43t4 41q0 26 -25 51l-2 2q27 25 27 55q0 21 -9.5 50t-32.5 53q0 1 -0.5 2t-0.5 2l-17 16q-2 3 -4.5 5.5t-4.5 5.5q-1 6 -7 7l-12 11q-17 24 -39 39t-51 15h-176v-381zM73 646h140q15 0 27 -6q10 -16 14 -33.5t4 -31.5q0 -11 -13.5 -25.5t-36.5 -29.5q13 -9 24 -18
l12 -11l3 -3q11 -13 11 -21q0 -13 -2.5 -30t-10.5 -32t-23 -25.5t-39 -10.5h-110v39h65q22 0 36 4.5t14 27.5q0 4 -2 8v8l-27 27v6h-86v37h113v8q2 4 2 8q0 16 -7 23l-22 22q-5 14 -18.5 17t-32.5 3h-35v39z" />
    <glyph glyph-name="FL00B4h" unicode="&#xb4;" horiz-adv-x="401" 
d="M27 713h169l114 165h-176zM341 895l-5 -8l38 -36l-131 -191h-198l-37 36h-13l130 199h216zM119 906l-145 -221h9l27 -27h20l10 -9h3l28 -27h207l137 200l-28 27l2 3l-11 9l7 12l-28 27l4 6h-242zM168 840h102l-80 -116h-97z" />
    <glyph glyph-name="FL00B5h" unicode="&#xb5;" 
d="M271 196q-22 0 -34.5 9.5t-18.5 27t-7.5 41.5t-1.5 53v329h-174v-788h174v138q20 -4 60 -4h1q68 0 114.5 20t75.5 58t41.5 92.5t12.5 122.5v361h-174v-326q0 -58 -14 -96t-55 -38zM18 673h208v-8l37 -37v-340q0 -22 0.5 -41t2.5 -34h5q31 0 41.5 33.5t10.5 83.5v343h208
v-8l37 -37v-373q0 -71 -13.5 -128t-44.5 -96.5t-80 -61t-120 -21.5h-1q-13 0 -24.5 0.5t-21.5 1.5v-136h-200l-37 37h-8v822zM7 -160h6l27 -27h8l10 -10h4l27 -27h212v135q8 0 17.5 -0.5t20.5 -0.5h1q73 0 124 22t82.5 63t45.5 99t14 131v377l-27 27v4l-10 10v8l-27 27v6
h-230v-354q0 -26 -2.5 -48t-8.5 -36v356l-27 27v4l-10 10v8l-27 27v6h-230v-844zM73 618h125v-291q0 -26 1 -48t5 -39.5t12 -30.5t22 -19l17 -16q16 -16 46 -16q23 0 38 10.5t23.5 29.5t12 45t3.5 57v318h125v-323q0 -66 -12 -118t-39.5 -88.5t-72 -56t-109.5 -19.5h-1
q-17 0 -34 1t-37 6v-141h-125v739z" />
    <glyph glyph-name="FL00B6h" unicode="&#xb6;" horiz-adv-x="628" 
d="M318 434q-22 0 -36.5 -5.5t-17.5 -21.5q19 -3 52 -3v-8l2 -2v40zM335 488v-594h174v703q0 10 -6 21t-14 19t-18 13.5t-17 5.5h-297q-39 0 -63.5 -23t-39 -57t-19.5 -72t-5 -68q0 -147 91 -205h3v-337h175v493q-46 0 -67 13t-22 36v2q0 31 19 40.5t49 9.5h57zM115 -123h-8
v341q-94 66 -94 218q0 32 6 73t22 77.5t44 61.5t72 25h297q15 0 33.5 -13.5t29.5 -32.5h-1l22 -22q11 -11 18 -23t7 -25v-717h-201l-10 10v-10h-200zM147 -171h4l27 -27h423v725q0 15 -7.5 28.5t-19.5 25.5l-10 10l-8.5 11t-9.5 11l-23 22q-16 21 -35.5 35t-33.5 14h-297
q-47 0 -77.5 -26t-47.5 -64.5t-23.5 -81.5t-6.5 -76q0 -149 94 -224v-346h6l27 -27h8zM278 499q-35 0 -57 -11.5t-22 -49.5v-2q0 -32 29 -46l18 -18q14 -16 42 -20v-447h-126v304l-27 27v6h-10q-12 7 -20 15q-37 55 -37 149q0 29 5 65.5t18 69t36.5 55t59.5 22.5h297
q4 0 9 -3q5 -10 5 -18v-692h-125v561l-27 27v6h-68zM97 261l9 -10q-6 6 -9 10z" />
    <glyph glyph-name="FL00B8h" unicode="&#xb7;" horiz-adv-x="309" 
d="M29 325q0 -35 22.5 -58t60.5 -23t61 23t23 58t-23 59t-61 24t-60.5 -24t-22.5 -59zM13 325q0 42 27 71t72 29q29 0 51.5 -12.5t34.5 -33.5h-1l24 -24q28 -28 28 -69q0 -42 -26.5 -68.5t-71.5 -26.5q-41 0 -68 27l-23 22v-1q-47 26 -47 86zM2 325q0 -56 48 -92l2 -2
l16 -15l6 -6h1q7 -8 17 -15l15 -13q29 -29 74 -29q49 0 77.5 28.5t28.5 74.5q0 45 -30 75l-12 12q-4 5 -7.5 10t-8.5 10l-27 27q-17 21 -40.5 33.5t-49.5 12.5q-51 0 -80.5 -32t-29.5 -79zM67 295q0 32 20 53.5t55 21.5q18 0 32 -7q11 -17 11 -38q0 -30 -20 -50t-53 -20
q-24 0 -40 10q-5 15 -5 30z" />
    <glyph glyph-name="FL00B9h" unicode="&#xb8;" horiz-adv-x="324" 
d="M5 -19v-125h200v144h-136v-19h-64zM222 17v-8l36 -36v-170h-225l-37 36h-8v159h64v19h170zM41 28v-19h-64v-181h6l27 -27h8l10 -9h3l28 -27h237v182l-27 27v4l-9 9v8l-27 27v6h-192zM107 -57v19h87v-95h-151v76h64z" />
    <glyph glyph-name="FL00BDh" unicode="&#xb9;" horiz-adv-x="289" 
d="M73 360h98v297q0 5 -5 10t-12 9t-14.5 6.5t-13.5 2.5h-92v-77h39v-248zM64 344h-8v216l-30 31h-8v111h108q14 0 33.5 -11.5t25.5 -25.5h-1l30 -28q10 -10 10 -19v-311h-124zM95 296h4l27 -27h136v319q0 12 -13 25l-17 16q-2 5 -11 16l-33 31v-1q-14 16 -32 27t-30 11
h-119v-133h6l27 -27h5v-220h6l27 -27h7zM84 619h-12v28h84q2 0 4 -1v-275h-49v215l-27 27v6z" />
    <glyph glyph-name="FL00BAh" unicode="&#xba;" horiz-adv-x="433" 
d="M188 494q7 7 9 21q-8 -6 -9 -21zM215 524q0 -23 -10.5 -37t-29.5 -14t-29.5 13.5t-10.5 37.5v2q0 49 40 49q19 0 29.5 -13.5t10.5 -35.5v-2zM175 686q-75 0 -110 -40.5t-35 -121.5t35 -122t110 -41h1q75 1 109 41t34 121v1q0 81 -34 121t-109 41h-1zM176 703
q96 -1 134 -64h-1l19 -19q45 -48 45 -136v-1q0 -88 -38 -131t-119 -44h-1q-75 0 -115 40l-21 20v-1q-66 43 -66 157q0 88 40 133.5t122 45.5h1zM175 714q-88 0 -130.5 -48t-42.5 -142q0 -104 66 -161l2 -2l22 -21q5 -5 9.5 -9t9.5 -7l13 -12q42 -42 121 -42h1
q86 1 125.5 46.5t39.5 136.5v1q0 91 -47 141l-12 11l-7.5 11t-8.5 10l-19 19q-25 32 -60 49.5t-81 18.5h-1zM68 494q0 78 33 116t104 38h1q46 0 74 -16q28 -37 28 -108v-1q0 -76 -31.5 -113t-100.5 -38h-1q-56 0 -88 25q-19 37 -19 97zM173 447q12 -12 32 -12q23 0 35.5 16
t12.5 43v2q0 28 -16 44l-17 16q-13 30 -45 30q-51 0 -51 -60v-2q0 -46 30 -59z" />
    <glyph glyph-name="FL00BBh" unicode="&#xbb;" horiz-adv-x="531" 
d="M326 324l28 -27l-70 -36v-86l117 72v152l-117 72v-121l47 -23zM115 324l28 -27l-70 -36v-86l117 72v152l-117 72v-121l47 -23zM440 426l27 -27v-3l10 -9v-4l27 -27v-199l-201 -122l-30 26l-10 9l-12 -7l-28 27l-5 -3v25l-128 -77l-29 27l-1 -1l-9 8l-11 -6l-27 27l-6 -3
v228l19 9l-8 9l-11 7v227l211 -130v130l222 -136v-5zM429 424l-200 123v-139l-11 10v6l-200 123v-200l10 -6v1l19 -20l-29 -14v-201l7 4l37 -36l167 101v-69l7 4l38 -36l192 117v190l-37 36v6zM306 327l-60 30v159l166 -103v-173l-166 -101v157zM95 327l-60 30v159l166 -103
v-173l-166 -101v157zM259 322l-4 -2v6z" />
    <glyph glyph-name="FL00BCh" unicode="&#xbc;" horiz-adv-x="795" 
d="M74 329h99v299q0 4 -5 9t-12 9t-15 6.5t-14 2.5h-92v-77h39v-249zM538 219v110h-100v-212h139v-113h99v325h-99v-110h-39zM240 4l313 651h-184l-313 -651h184zM581 672l-4 -9l38 -35l-137 -282h77v-8l5 -5v13h133v-8l37 -37v-351h-125l-37 37h-8v77h-95l-36 36h-8v123
l-132 -273h-212l-37 37h-11l137 288h-65l-36 37h-8v218l-31 31h-8v111h109q15 0 35 -11.5t26 -25.5h-1l30 -28q10 -10 10 -19v-189l131 273h223zM351 683l-86 -179v54q0 12 -13 25l-17 16q-2 5 -11 16l-33 31q-14 16 -32 26.5t-32 10.5h-120v-133h6l27 -27h6v-222h6l27 -27
h7l10 -10h4l27 -27h9l-124 -261h8l27 -27h15l10 -10h4l27 -27h221l86 178v-1h6l27 -27h8l9 -9h4l27 -27h58v-50h6l27 -27h8l10 -10h4l27 -27h137v363l-27 27v4l-10 10v8l-27 27v6h-168l118 243l-28 27l2 3l-10 9l5 11l-28 27l3 6h-247zM403 617h120l-290 -602h-119zM476 291
h51v-83h6l27 -27h55v110h50v-276h-50v80l-27 27v6h-112v163zM85 589h-12v28h84q1 0 2 -0.5t3 -0.5v-276h-50v216l-27 27v6z" />
    <glyph glyph-name="FL0473h" unicode="&#xbd;" horiz-adv-x="769" 
d="M85 583l27 -27v-216h50v276q-2 0 -3 0.5t-2 0.5h-84v-28h12v-6zM533 79h-6v22q0 14 15.5 24t30.5 17l13 7q21 11 37 27.5t16 45.5q0 33 -15 56q-28 14 -69 14q-11 0 -27.5 -1.5t-31.5 -4t-26 -6t-11 -7.5v-26q7 2 15 3.5t20 1.5q17 0 29.5 -2t14.5 -15l24 -23q4 -4 4 -12
q0 -14 -8.5 -20t-21.5 -13q-2 -2 -3 -1.5t-3 -1.5q-12 -6 -24.5 -13.5t-23 -18t-17.5 -25.5t-7 -35v-57h172v37h-70zM114 15h119l290 602h-120zM598 683l-3 -6l28 -27l-6 -11l10 -9l-2 -3l28 -27l-116 -242q39 -2 70 -18.5t51 -44.5l21 -19q5 -5 9 -10.5l8 -11.5l11 -10
q35 -35 35 -92q0 -30 -11 -49t-28 -33l3 -2v-4l27 -27v-125h-260l-27 27h-4l-10 10h-7l-27 27h-6v77l-68 -141h-221l-27 27h-4l-10 10h-15l-27 27h-8l124 261h-9l-27 27h-4l-10 10h-7l-27 27h-6v222h-6l-27 27h-6v133h120q14 0 32 -10.5t32 -26.5l33 -31q9 -11 11 -16
l17 -16q13 -13 13 -25v-54l86 179h247zM358 672l-131 -273v189q0 9 -10 19l-30 28h1q-6 14 -26 25.5t-35 11.5h-109v-111h8l31 -31v-218h8l36 -37h65l-137 -288h11l37 -37h212l122 254h2l22 -23q-14 -13 -23 -31.5t-9 -47.5v-115h8l36 -37h248v113l-37 36q19 13 32.5 32
t13.5 51q0 54 -32 86l-24 22h1q-16 27 -47 42t-77 15q-10 0 -21.5 -1.5l-25.5 -3.5l136 286l-37 35l4 9h-223zM56 4l313 651h184l-313 -651h-184zM421 303q0 6 12 11t28.5 8.5t34 5.5t29.5 2q63 0 94 -28.5t31 -79.5q0 -34 -18 -52.5t-41 -30.5l-14 -7q-13 -6 -26 -13.5
t-13 -17.5v-11h103v-86h-221v98q0 22 7 38t18 27t23.5 18.5t24.5 13.5q15 8 25 14t10 17q0 8 -10 9.5t-24 1.5t-24.5 -3l-21.5 -6q-8 -2 -14.5 -4l-12.5 -4v79zM74 578h-39v77h92q6 0 14 -2.5t15 -6.5t12 -9t5 -9v-299h-99v249z" />
    <glyph glyph-name="FL00BEh" unicode="&#xbe;" horiz-adv-x="862" 
d="M605 219v110h-101v-212h140v-113h99v325h-99v-110h-39zM35 536v-86h114v-3q2 -2 2 -5q0 -17 -12 -20.5t-31 -3.5h-73v-89h149q28 0 45.5 11.5t27 28.5t12.5 36t3 34q0 14 -11 27.5t-30 25.5q18 12 29.5 26.5t11.5 28.5q0 15 -4.5 34t-15 35.5t-27.5 28t-41 11.5h-149v-88
h73q19 0 31 -3.5t12 -20.5q0 -3 -2 -5v-3h-114zM307 4l314 651h-184l-314 -651h184zM649 672l-4 -9l37 -35l-136 -282h76v-8l5 -5v13h133v-8l37 -37v-351h-125l-37 37h-8v77h-95l-37 36h-8v121l-130 -271h-213l-37 37h-10l138 288h-172l-37 37h-8v361h166q29 0 49.5 -14
t33.5 -34h-1l16 -16l1 -1h1h-1q1 0 1 -1q22 -23 31.5 -51t9.5 -49q0 -15 -8.5 -29.5t-22.5 -25.5l11 -10q2 -3 3 -5t2 -3l116 238h223zM419 683l-71 -145q-10 23 -26 42q0 2 -0.5 3t-0.5 2l-26 26q0 6 -7 8l-12 12q-18 23 -40.5 38t-51.5 15h-177v-383h6l27 -27h8l10 -10h4
l27 -27h116l-125 -261h8l27 -27h14l10 -10h4l27 -27h222l84 177h6l27 -27h8l10 -9h3l28 -27h58v-50h6l27 -27h8l10 -10h4l27 -27h137v363l-27 27v4l-10 10v8l-27 27v6h-167l117 243l-28 27l2 3l-10 9l6 11l-28 27l3 6h-247zM471 617h120l-291 -602h-119zM73 618h141
q14 0 28 -7q10 -15 14.5 -32.5t4.5 -31.5q0 -11 -14 -26t-37 -30q6 -5 12 -8.5t11 -7.5l13 -13q1 -1 2 -1.5t2 -1.5q11 -11 11 -20q0 -14 -3 -31t-11 -32t-23 -25.5t-40 -10.5h-111v40h65q23 0 37 4.5t14 27.5q0 4 -2 8v8l-27 27v6h-87v37h114v8q2 4 2 8q0 16 -7 23l-22 22
q-5 14 -18.5 17t-33.5 3h-35v39zM542 291h52v-83h6l27 -27h55v110h50v-276h-50v80l-27 27v6h-113v163z" />
    <glyph glyph-name="FL00BFh" unicode="&#xbf;" horiz-adv-x="534" 
d="M402 576q0 35 -22.5 58.5t-60.5 23.5t-61 -23.5t-23 -58.5t23 -59.5t61 -24.5t60.5 24.5t22.5 59.5zM414 197q-12 -2 -23.5 -6.5t-25.5 -8.5q-20 -7 -40.5 -12.5t-42.5 -5.5q-21 0 -37 6.5t-16 32.5q0 20 17 33.5t42 28.5q20 11 42 25t40.5 35t31 51t13.5 74h-182
q-5 -14 -27 -26.5l-42 -23.5q-9 -5 -17 -9t-13 -8q-20 -11 -37.5 -25t-31.5 -33.5t-22 -46t-8 -61.5q0 -48 13 -87.5t39 -68t65 -44t90 -15.5q19 0 48.5 4t57 11.5t47 18t19.5 24.5v137zM335 212q-15 -8 -27 -15.5t-19 -15.5q17 1 34.5 5.5t35.5 11.5q3 0 5 2q11 4 25.5 7.5
t41.5 8.5v-8l37 -37v-151q0 -17 -21 -30t-51 -22.5t-61.5 -14.5t-52.5 -5q-54 0 -92.5 15t-67.5 44l-16 16v-1q-45 30 -66.5 79.5t-21.5 115.5q0 39 8.5 67.5t23.5 49.5t34 36t40 27q5 4 15 9.5t21 10.5v-4l-3 2q3 2 6 3.5t5 3.5v-1q1 1 2.5 2t2.5 2q16 8 29.5 17.5
t18.5 23.5h67l-23 24v-1q-47 29 -47 87q0 43 28 71t73 28q31 0 54 -13t34 -35h-1l22 -22q28 -28 28 -69t-29 -70h5q0 -1 -0.5 -2.5t-0.5 -2.5v-3l38 -36q-1 -51 -14 -85.5t-32.5 -58t-43 -39t-44.5 -27.5zM480 427l-11 10q25 30 25 69q0 45 -30 75l-12 12q-4 5 -7.5 10
t-8.5 10l-24 23q-17 23 -41 36.5t-52 13.5q-51 0 -81.5 -31t-30.5 -79q0 -53 47 -91l7 -8h-48q-5 -13 -14 -21.5t-20 -14.5v8l-16 -16q-2 0 -2 -2q-2 -1 -3 -2l-1 -1l-2 -2q-6 -2 -8 -4q-4 -2 -9.5 -2.5l-5.5 -0.5l3 -3q-11 -5 -17.5 -9t-10.5 -6h1q-20 -13 -38.5 -28.5
t-32.5 -37.5t-22 -50.5t-8 -67.5q0 -64 22 -115t70 -89l15 -14q6 -6 12.5 -11.5t13.5 -10.5l6 -6q30 -30 69.5 -45.5t96.5 -15.5q22 0 55 5.5t64 16t53 25.5t22 33v155l-27 27v4l-10 10v10l-27 26v4q26 25 44.5 64.5t20.5 105.5l-27 27v4zM403 60q0 -11 -18.5 -19.5
t-44 -14.5t-53 -9.5t-45.5 -3.5q-45 0 -79 12t-59 35q-31 50 -31 127q0 34 8 59t21 43.5t30 32t35 23.5q9 6 17 10q3 2 6.5 4t7.5 4q3 2 6.5 3.5t6.5 3.5q17 9 33 19t24 23h131q-6 -31 -19 -53t-29.5 -37.5t-34.5 -26.5l-34 -20q-27 -16 -45.5 -31t-18.5 -41q0 -20 6.5 -30
t17.5 -15l20 -19q8 -8 21.5 -10.5t28.5 -2.5q24 0 45 5.5t41 12.5q3 0 5 1v-85zM391 576q0 -31 -19.5 -52t-52.5 -21q-23 0 -40 11q-6 13 -6 32q0 32 20.5 53t55.5 21q18 0 32 -6q10 -18 10 -38z" />
    <glyph glyph-name="FL00C0h" unicode="&#xc0;" horiz-adv-x="666" 
d="M297 406l33 -161h-78l33 161h12zM262 722h171l-108 167h-176zM278 656q-27 0 -48 -10.5t-36 -28t-25 -40t-16 -46.5l-128 -527h179l21 84h132l21 -84h178l-127 527q-6 24 -16 46.5t-25.5 40t-36 28t-47.5 10.5h-26zM335 906l10 -15h-1l32 -32l123 -191h-157
q22 -7 38.5 -21.5t30.5 -32.5h-1l20 -19q20 -20 33 -47t20 -55l131 -543h-206l-36 37h-7l-13 47h-77l-21 -84h-204l-37 37h-9l132 547q6 26 17.5 51t28.5 44.5t41 31.5t55 12h13l-32 32h-5l-137 201h218zM96 917l152 -223h4l10 -11q-30 -3 -53 -16.5t-39.5 -34t-27.5 -45.5
t-17 -50l-135 -561h7l27 -27h11l10 -10h4l27 -27h214l21 84h40l6 -20h5l27 -27h4l10 -10h4l27 -27h220l-133 553q-7 29 -20.5 57t-34.5 49l-8 7q-5 7 -10 13l-10 12l-23 22q-2 1 -2.5 2t-2.5 3h134l-133 206l-17 16l-8 13l-13 12l-4 7l-22 22l-7 11h-244zM367 92l-2 7h-150
l-20 -84h-122l118 484q6 23 15 44.5t23.5 38t33.5 26.5t45 10h26q27 0 48 -12q13 -16 22 -36t14 -42l123 -513h-135l-13 51zM275 417l-37 -183h7l27 -27h98l-36 177l-26 25l-1 8h-32zM194 851h141l77 -118h-138z" />
    <glyph glyph-name="FL00C1h" unicode="&#xc1;" horiz-adv-x="666" 
d="M297 406l33 -161h-78l33 161h12zM149 722h170l114 167h-177zM278 656q-27 0 -48 -10.5t-36 -28t-25 -40t-16 -46.5l-128 -527h179l21 84h132l21 -84h178l-127 527q-6 24 -16 46.5t-25.5 40t-36 28t-47.5 10.5h-26zM465 906l-5 -8l38 -37l-131 -193h-25q22 -7 38.5 -21.5
t30.5 -32.5h-1l20 -19q20 -20 33 -47t20 -55l131 -543h-206l-36 37h-7l-13 47h-77l-21 -84h-204l-37 37h-9l132 547q5 22 13.5 43.5t21.5 39.5t30 31.5t40 19.5h-74l-37 37h-13l130 201h218zM241 917l-145 -223h9l27 -27h20l10 -10h4l13 -13q-22 -22 -35 -50t-19 -57
l-135 -561h7l27 -27h11l10 -10h4l27 -27h214l21 84h40l6 -20h5l27 -27h4l10 -10h4l27 -27h220l-133 553q-7 29 -20.5 57t-34.5 49l-8 7q-5 7 -10 13l-10 12l-23 22q-4 3 -10 11l134 196l-28 27l2 3l-11 10l7 12l-28 27l4 6h-244zM367 92l-2 7h-150l-20 -84h-122l118 484
q6 23 15 44.5t23.5 38t33.5 26.5t45 10h26q27 0 48 -12q13 -16 22 -36t14 -42l123 -513h-135l-13 51zM275 417l-37 -183h7l27 -27h98l-36 177l-26 25l-1 8h-32zM290 851h103l-80 -118h-98z" />
    <glyph glyph-name="FL00C2h" unicode="&#xc2;" horiz-adv-x="666" 
d="M297 406l33 -161h-78l33 161h12zM291 783l30 -61h159l-102 167h-174l-102 -167h158zM278 656q-27 0 -48 -10.5t-36 -28t-25 -40t-16 -46.5l-128 -527h179l21 84h132l21 -84h178l-127 527q-6 24 -16 46.5t-25.5 40t-36 28t-47.5 10.5h-26zM388 906l9 -14h-1l33 -33
l116 -191h-191l-30 29l-13 -24q34 -2 58.5 -18.5t41.5 -40.5h-1l20 -19q20 -20 33 -47t20 -55l131 -543h-206l-36 37h-7l-13 47h-77l-21 -84h-204l-37 37h-9l132 547q5 22 13.5 43.5t21.5 39.5t30 31.5t40 19.5h-121l-37 37h-12l123 201h194zM187 917l-136 -223h9l27 -27h18
l10 -10h4l27 -27h20q-16 -20 -26 -44.5t-15 -48.5l-135 -561h7l27 -27h11l10 -10h4l27 -27h214l21 84h40l6 -20h5l27 -27h4l10 -10h4l27 -27h220l-133 553q-7 29 -20.5 57t-34.5 49l-8 7q-5 7 -10 13l-10 12l-23 22v-1q-4 4 -5 6h179l-125 206l-19 19l-6 10l-13 13l-4 6
l-21 21l-8 12h-206zM367 92l-2 7h-150l-20 -84h-122l118 484q6 23 15 44.5t23.5 38t33.5 26.5t45 10h26q27 0 48 -12q13 -16 22 -36t14 -42l123 -513h-135l-13 51zM253 733h-86l71 118h148l73 -118h-120l-18 38l-24 23l-6 14zM275 417l-37 -183h7l27 -27h98l-36 177l-26 25
l-1 8h-32z" />
    <glyph glyph-name="FL00C3h" unicode="&#xc3;" horiz-adv-x="666" 
d="M304 673q2 0 4.5 -0.5t4.5 -0.5h5l-26 25l-13 -24h25zM297 406l33 -161h-78l33 161h12zM257 779l32 -57h119l103 167h-159l-29 -56l-32 56h-119l-101 -167h158zM278 656q-27 0 -48 -10.5t-36 -28t-25 -40t-16 -46.5l-128 -527h179l21 84h132l21 -84h178l-127 527
q-6 24 -16 46.5t-25.5 40t-36 28t-47.5 10.5h-26zM13 -13h-9l132 547q5 22 13.5 43.5t21.5 39.5t30 31.5t40 19.5h-153l-36 37h-13l123 201h140l7 -12h-1l17 -18l17 30h200l-6 -9l38 -36l-117 -193h-115q22 -7 38.5 -21.5t30.5 -32.5h-1l20 -19q20 -20 33 -47t20 -55
l131 -543h-206l-36 37h-7l-13 47h-77l-21 -84h-204zM45 -61h4l27 -27h214l21 84h40l6 -20h5l27 -27h4l10 -10h4l27 -27h220l-133 553q-7 29 -20.5 57t-34.5 49l-8 7q-5 7 -10 13l-10 12l-23 22q-2 1 -2.5 2t-2.5 3h82l122 203l-28 27l2 3l-10 8l9 13l-28 28l3 5h-227
l-11 -20l-9 9l-6 11h-154l-136 -223h9l27 -27h18l10 -10h4l27 -27h52q-16 -20 -26 -44.5t-15 -48.5l-135 -561h7l27 -27h11zM367 92l-2 7h-150l-20 -84h-122l118 484q6 23 15 44.5t23.5 38t33.5 26.5t45 10h26q27 0 48 -12q13 -16 22 -36t14 -42l123 -513h-135l-13 51z
M323 809l2 4l28 -27l34 65h86l-73 -118h-95l-18 33l-22 21l-8 16l-35 -70h-87l71 118h93zM275 417l-37 -183h7l27 -27h98l-36 177l-26 25l-1 8h-32z" />
    <glyph glyph-name="FL00C4h" unicode="&#xc4;" horiz-adv-x="666" 
d="M297 406l33 -161h-78l33 161h12zM103 806q0 -35 23 -59t61 -24t61 24t23 59t-23 59t-61 24t-61 -24t-23 -59zM310 806q0 -35 22.5 -59t60.5 -24t61.5 24t23.5 59t-23.5 59t-61.5 24t-60.5 -24t-22.5 -59zM86 806q0 42 27.5 71t73.5 29q29 0 51.5 -12.5t34.5 -34.5h-1
l25 -23q8 31 33.5 50.5t62.5 19.5q29 0 52 -12.5t35 -34.5h-1l25 -23q28 -28 28 -70t-27 -69.5t-72 -27.5q-44 0 -69 28l-22 22v-1q-9 4 -22 17q-8 -30 -33 -48t-60 -18q-42 0 -70 28l-23 22v-1q-23 13 -35.5 36t-12.5 52zM278 656q-27 0 -48 -10.5t-36 -28t-25 -40
t-16 -46.5l-128 -527h179l21 84h132l21 -84h178l-127 527q-6 24 -16 46.5t-25.5 40t-36 28t-47.5 10.5h-26zM304 673q37 0 62.5 -16.5t44.5 -42.5h-1l20 -19q20 -20 33 -47t20 -55l131 -543h-206l-36 37h-7l-13 47h-77l-21 -84h-204l-37 37h-9l132 547q6 26 17.5 51
t28.5 44.5t41 31.5t55 12h26zM75 806q0 -56 49 -94l2 -2l16 -15l6 -6h1q9 -11 20 -17l12 -11q2 -3 8 -9q-26 -21 -41 -52t-23 -63l-135 -561h7l27 -27h11l10 -10h4l27 -27h214l21 84h40l6 -20h5l27 -27h4l10 -10h4l27 -27h220l-133 553q-7 29 -20.5 57t-34.5 49l-7 6
q-10 15 -21 26l-18 17q-17 20 -35 34t-39 22q2 4 3.5 7.5t3.5 6.5q1 -1 2 -1.5t2 -1.5l4 -3v1v-1q5 -6 13 -10l14 -13v1l3 -3q28 -28 72 -28q49 0 78 29.5t29 75.5q0 45 -31 76l-11 10q-5 10 -17 22l-23 21q-18 25 -42.5 38.5t-52.5 13.5q-35 0 -61 -17t-40 -45l-11 10
q-18 24 -42 38t-52 14q-51 0 -81.5 -32t-30.5 -79zM367 92l-2 7h-150l-20 -84h-122l118 484q6 23 15 44.5t23.5 38t33.5 26.5t45 10h26q27 0 48 -12q13 -16 22 -36t14 -42l123 -513h-135l-13 51zM275 417l-37 -183h7l27 -27h98l-36 177l-26 25l-1 8h-32zM141 776
q0 32 20.5 53.5t55.5 21.5q18 0 32 -7q11 -17 11 -38q0 -30 -20 -51t-53 -21q-24 0 -41 11q-3 7 -4 15t-1 16zM348 776q0 32 20 53.5t55 21.5q19 0 33 -7q11 -17 11 -38q0 -30 -20.5 -51t-53.5 -21q-22 0 -40 10q-3 8 -4 16t-1 16z" />
    <glyph glyph-name="FL00C5h" unicode="&#xc5;" horiz-adv-x="666" 
d="M404 633q-1 3 -4 4zM271 765q-22 8 -23 33q-3 -11 -3 -22q0 -8 1 -16t4 -16q18 -10 40 -10h9q5 0 10 1q-11 3 -17 9zM356 772q8 16 8 34q0 21 -11 38q-14 7 -33 7q-12 0 -22 -3q20 -3 28 -22l20 -20q10 -10 10 -30v-4zM307 417l1 -8l26 -25l36 -177h-98l-27 27h-7l37 183
h32zM393 66l13 -51h135l-123 513q-5 22 -14 42t-22 36q-21 12 -48 12h-26q-26 0 -45 -10t-33.5 -26.5t-23.5 -38t-15 -44.5l-118 -484h122l20 84h150l2 -7zM179 806q0 47 30 79t81 32q26 0 49.5 -12.5t41.5 -34.5l27 -26q5 -5 9 -10.5t7 -10.5l12 -11q30 -30 30 -76
q0 -34 -17 -60t-46 -38q5 -4 8.5 -8l7.5 -9l19 -18q6 -6 11 -12.5l10 -13.5l7 -6q21 -21 34.5 -49t20.5 -57l133 -553h-220l-27 27h-4l-10 10h-4l-27 27h-5l-6 20h-40l-21 -84h-214l-27 27h-4l-10 10h-11l-27 27h-7l135 561q6 25 16.5 49.5t27 45t38.5 34t51 17.5l-6 6
l-24 22q-49 37 -49 95zM190 806q0 -61 47 -88v1l23 -22q8 -8 18 -14.5t21 -9.5h-21q-31 0 -55 -12t-41 -31.5t-28.5 -44.5t-17.5 -51l-132 -547h9l37 -37h204l21 84h77l13 -47h7l36 -37h206l-131 543q-7 28 -20 55t-33 47l-20 19h1q-14 20 -32.5 34.5t-42.5 20.5
q42 2 67 29.5t25 67.5q0 42 -28 70l-24 23h1q-12 22 -35 34.5t-52 12.5q-46 0 -73 -29t-27 -71zM304 656q27 0 47.5 -10.5t36 -28t25.5 -40t16 -46.5l127 -527h-178l-21 84h-132l-21 -84h-179l128 527q6 24 16 46.5t25 40t36 28t48 10.5h26zM207 806q0 35 22.5 59t60.5 24
t61.5 -24t23.5 -59t-23.5 -59t-61.5 -24t-60.5 24t-22.5 59zM285 406l-33 -161h78l-33 161h-12zM259 806q0 -33 29 -33q30 0 30 33q0 32 -30 32q-29 0 -29 -32zM315 747l1 4q-2 0 -2 1l-2 -3z" />
    <glyph glyph-name="FL00C6h" unicode="&#xc6;" horiz-adv-x="958" 
d="M298 406l33 -161h-78l33 161h12zM279 655q-27 0 -48 -10.5t-36.5 -28t-25.5 -40t-16 -46.5l-128 -526h179l21 84h132l21 -84h461v158h-166v89h166v158h-166v88h166v158h-285q-8 0 -17.5 -5t-18 -13.5t-14.5 -19t-6 -20.5v-329h-4l-64 262q-6 24 -16.5 46.5t-25.5 40
t-35.5 28t-47.5 10.5h-26zM305 672q36 0 62 -16t45 -42h-1l20 -20q18 -18 30 -42t20 -49v94q0 13 7.5 26.5t19 24t24 17.5t22.5 7h302v-8l37 -36v-184h-166v-18h129v-8l37 -37v-184h-166v-18h129v-8l37 -37v-184h-484l-37 37h-7l-13 47h-76l-21 -84h-205l-37 37h-9l132 546
q6 26 17.5 51t29 44.5t41.5 31.5t55 12h26zM279 683q-33 0 -59 -12.5t-45 -33.5t-31.5 -47.5t-18.5 -53.5l-135 -560h7l27 -27h11l10 -10h4l27 -27h215l21 84h39l6 -20h5l27 -27h5l10 -10h4l27 -27h496v196l-27 27v4l-10 10v8l-2 2h39v196l-27 27v4l-10 10v8l-2 2h39v196
l-27 27v4l-10 9v8l-27 27v6h-313q-12 0 -26.5 -8t-27 -20t-21.5 -27.5t-9 -30.5v-31q-1 1 -1.5 2t-1.5 2l-9 8q-5 7 -9.5 12.5l-9.5 11.5l-18 17q-24 30 -52.5 47t-63.5 17h-26zM517 230h19v337q0 9 5 18t12.5 16t16 11.5t14.5 4.5h244v-109h-166v-110h6l27 -27h133v-109
h-166v-111h6l27 -27h133v-109h-422l-13 51l-26 26l-2 7h-150l-20 -84h-122l118 483q6 23 15.5 44.5t23.5 38t33.5 26.5t45.5 10h26q25 0 48 -13q13 -16 22 -36t14 -41l65 -270h6zM276 417l-37 -183h7l27 -27h98l-36 177l-26 25l-1 8h-32z" />
    <glyph glyph-name="FL00C7h" unicode="&#xc7;" horiz-adv-x="578" 
d="M221 331q0 61 27.5 96t75.5 35h135v194h-134q-153 0 -223.5 -81t-71.5 -247q0 -56 13.5 -105.5t39.5 -90.5t64 -70.5t87 -44.5v-36h-64v-127h201v150h87v194h-134q-21 0 -39.5 11t-33 29.5t-22.5 42.5t-8 50zM476 665l37 -37v-220h-149q-42 0 -65.5 -31t-23.5 -85
q0 -18 4 -35.5t12 -32.5v1q16 -10 33 -10h151v-8l37 -37v-220h-87v-150h-228l-36 37h-8v161h38q-10 7 -20 16t-20 20l-22 22v-1q-57 48 -86.5 118t-29.5 155q1 172 76.5 258.5t235.5 86.5h151v-8zM487 684h-162q-166 0 -244 -89t-79 -267q0 -164 116 -277l30 -30
q3 -4 6 -6.5t6 -5.5h-18v-183h6l27 -27h7l10 -10h4l27 -27h240v150h87v232l-27 27v4l-10 10v8l-27 27v6h-162q-5 0 -8 1q-2 8 -2.5 17t-0.5 18q0 51 21.5 79.5t59.5 28.5h157v232l-27 27v4l-10 10v8l-27 27v6zM210 331q0 -42 19 -77.5t48 -53.5l10 -9q14 -14 31 -22.5
t36 -8.5h93v-145h-87v-150h-152v78h64v50l-27 27v5q-36 11 -65.5 29t-53.5 43q-29 41 -43.5 92.5t-14.5 108.5q1 163 69.5 241.5t217.5 78.5h93v-145h-124q-54 0 -84 -38t-30 -104z" />
    <glyph glyph-name="FL00C8h" unicode="&#xc8;" horiz-adv-x="493" 
d="M175 722h171l-108 167h-176zM35 63q0 -11 6 -21.5t14 -18.5t17.5 -13.5t17.5 -5.5h284v158h-165v89h165v158h-165v89h165v158h-284q-8 0 -17.5 -5.5t-17.5 -13.5t-14 -19t-6 -21v-534zM248 906l9 -15h-1l32 -32l123 -191h-20v-3l37 -37v-184h-166v-18h129v-8l37 -37v-184
h-166v-18h129v-8l37 -37v-184h-298q-10 0 -22 7t-23 18l-22 22v-1q-17 10 -31 28.5t-14 38.5v534q0 13 7.5 27t18.5 24.5t23.5 17.5t22.5 7h114l-32 32h-5l-136 201h217zM11 917l151 -223h4l10 -10h-86q-12 0 -26 -8t-27 -20.5t-21.5 -28t-8.5 -30.5v-534q0 -19 13.5 -38.5
t32.5 -33.5l24 -24q12 -12 21 -17l11 -11q12 -12 25.5 -19.5t25.5 -7.5h306v196l-27 27v4l-10 10v8l-2 2h39v196l-27 27v4l-10 10v8l-2 2h39v196l-27 27v1h17l-133 206l-18 18l-7 11l-10 9l-5 10l-21 21l-7 12h-244zM231 371h132v-109h-165v-111h6l27 -27h132v-109h-273
q-7 0 -15 5q-2 4 -2 13v534q0 9 5 18t12 16.5t15.5 12t14.5 4.5h243v-109h-165v-111h6zM107 851h141l77 -118h-138z" />
    <glyph glyph-name="FL00C9h" unicode="&#xc9;" horiz-adv-x="493" 
d="M62 722h170l114 167h-177zM35 63q0 -11 6 -21.5t14 -18.5t17.5 -13.5t17.5 -5.5h284v158h-165v89h165v158h-165v89h165v158h-284q-8 0 -17.5 -5.5t-17.5 -13.5t-14 -19t-6 -21v-534zM377 906l-5 -8l38 -37l-128 -188h109v-8l37 -37v-184h-166v-18h129v-8l37 -37v-184
h-166v-18h129v-8l37 -37v-184h-298q-10 0 -22 7t-23 18l-22 22v-1q-17 10 -31 28.5t-14 38.5v534q0 11 5.5 23t14 22.5t19 18t20.5 10.5l-33 34h-13l129 201h217zM154 917l-144 -223h9l27 -27h2q-17 -14 -29 -33.5t-12 -36.5v-534q0 -19 13.5 -38.5t32.5 -33.5l24 -24
q12 -12 21 -17l11 -11q12 -12 25.5 -19.5t25.5 -7.5h306v196l-27 27v4l-10 10v8l-2 2h39v196l-27 27v4l-10 10v8l-2 2h39v196l-27 27v4l-10 10v8l-27 27v6h-52l101 148l-28 27l2 3l-11 10l7 12l-28 27l4 6h-243zM231 371h132v-109h-165v-111h6l27 -27h132v-109h-273
q-7 0 -15 5q-2 4 -2 13v534q0 9 5 18t12 16.5t15.5 12t14.5 4.5h243v-109h-165v-111h6zM203 851h103l-80 -118h-98z" />
    <glyph glyph-name="FL00CAh" unicode="&#xca;" horiz-adv-x="494" 
d="M224 673h38l-25 24zM204 783l30 -61h159l-102 167h-174l-101 -167h158zM35 63q0 -11 6 -21.5t14 -18.5t17.5 -13.5t17.5 -5.5h285v158h-166v89h166v158h-166v89h166v158h-285q-8 0 -17.5 -5.5t-17.5 -13.5t-14 -19t-6 -21v-534zM301 906l9 -14h-1l33 -33l116 -191h-66v-3
l36 -37v-184h-165v-18h129v-8l36 -37v-184h-165v-18h129v-8l36 -37v-184h-298q-10 0 -22 7t-23 18l-22 22v-1q-17 10 -31 28.5t-14 38.5v534q0 21 17 41.5t34 29.5h-35l-37 37h-13l123 201h194zM100 917l-136 -223h9l27 -27h19l10 -10h3l2 -2q-11 -13 -19 -28t-8 -30v-534
q0 -19 13.5 -38.5t32.5 -33.5l24 -24q12 -12 21 -17l11 -11q12 -12 25.5 -19.5t25.5 -7.5h306v196l-27 27v4l-9 9v9l-2 2h38v196l-27 27v4l-9 9v9l-2 2h38v196l-27 27v1h63l-125 206l-19 19l-6 10l-13 13l-4 6l-21 21l-8 12h-206zM231 371h133v-109h-166v-111h6l27 -27h133
v-109h-274q-7 0 -15 5q-2 4 -2 13v534q0 9 5 18t12 16.5t15.5 12t14.5 4.5h244v-109h-166v-111h6zM167 733h-87l71 118h148l73 -118h-120l-18 38l-24 23l-6 14z" />
    <glyph glyph-name="FL00CBh" unicode="&#xcb;" horiz-adv-x="493" 
d="M255 718q-5 2 -10.5 7l-10.5 10q-14 -48 -62 -62h144q-24 6 -39 24l-22 22v-1zM18 806q0 -35 22.5 -59t60.5 -24t61 24t23 59t-23 59t-61 24t-60.5 -24t-22.5 -59zM224 806q0 -35 22.5 -59t60.5 -24t61 24t23 59t-23 59t-61 24t-60.5 -24t-22.5 -59zM35 63q0 -11 6 -21.5
t14 -18.5t17.5 -13.5t17.5 -5.5h285v158h-166v89h166v158h-166v89h166v158h-285q-8 0 -17.5 -5.5t-17.5 -13.5t-14 -19t-6 -21v-534zM1 806q0 42 27.5 71t72.5 29q29 0 51.5 -12.5t34.5 -34.5h-1l25 -23q8 31 33.5 50.5t62.5 19.5q29 0 52 -12.5t34 -34.5h-1l25 -23
q28 -28 28 -70q0 -34 -18.5 -59.5t-49.5 -33.5h14v-8l37 -37v-184h-165v-18h128v-8l37 -37v-184h-165v-18h128v-8l37 -37v-184h-298q-10 0 -22 7t-23 18l-22 22v-1q-17 10 -31 28.5t-14 38.5v534q0 13 7.5 27t18.5 24.5t23.5 17.5t22.5 7h20q-24 6 -39 24l-22 22v-1
q-23 13 -35.5 36t-12.5 52zM-10 806q0 -58 51 -95l27 -27q1 -3 4 -4q-11 -5 -22.5 -13.5t-21 -20t-15.5 -24t-6 -25.5v-534q0 -19 13.5 -38.5t32.5 -33.5l24 -24q12 -12 21 -17l11 -11q12 -12 25.5 -19.5t25.5 -7.5h306v196l-27 27v4l-10 10v8l-2 2h39v196l-27 27v4l-10 10
v8l-2 2h39v196l-27 27v4l-10 9q25 13 39.5 37.5t14.5 56.5q0 45 -31 76l-12 11q-3 5 -7 10.5t-9 10.5l-24 22q-17 24 -41.5 37.5t-51.5 13.5q-35 0 -61 -17t-40 -45l-11 10q-18 24 -42 38t-52 14q-51 0 -81 -32t-30 -79zM231 371h133v-109h-166v-111h6l27 -27h133v-109h-274
q-7 0 -15 5q-2 4 -2 13v534q0 9 5 18t12 16.5t15.5 12t14.5 4.5h244v-109h-166v-111h6zM56 776q0 32 20 53.5t55 21.5q18 0 32 -7q11 -17 11 -38q0 -30 -20 -51t-53 -21q-22 0 -40 10q-3 8 -4 16t-1 16zM262 776q0 32 20 53.5t55 21.5q18 0 32 -7q11 -17 11 -38
q0 -30 -20 -51t-53 -21q-22 0 -40 10q-3 8 -4 16t-1 16zM274 684h-9q1 1 1 2t1 3q2 -2 3 -2.5t3 -2.5h1z" />
    <glyph glyph-name="FL00CCh" unicode="&#xcc;" horiz-adv-x="537" 
d="M197 722h171l-108 167h-176zM314 498h104v158h-383v-158h105v-336h-105v-158h383v158h-104v336zM270 906l10 -15h-1l31 -32l119 -186h6v-8l37 -37v-184h-104v-265h67v-8l37 -37v-184h-410l-36 37h-8v192h105v265h-61l-36 37h-8v192h208l-32 32h-5l-136 201h217zM33 917
l151 -223h4l10 -10h-191v-214h6l27 -27h7l10 -10h4l27 -27h24v-216h-105v-214h6l27 -27h7l10 -10h4l27 -27h422v196l-27 27v4l-10 10v8l-27 27v6h-40v216h104v196l-27 27v4l-10 10v8l-27 26v7h-5l-96 152l-18 18l-7 11l-11 11l-5 8l-22 22l-7 11h-242zM303 151h6l27 -27h71
v-109h-334v109h105v352l-27 27v6h-78v109h334v-109h-104v-358zM129 851h141l77 -118h-138z" />
    <glyph glyph-name="FL00CDh" unicode="&#xcd;" horiz-adv-x="537" 
d="M84 722h170l114 167h-177zM314 498h104v158h-383v-158h105v-336h-105v-158h383v158h-104v336zM399 906l-4 -8l37 -37l-128 -188h131v-8l37 -37v-184h-104v-265h67v-8l37 -37v-184h-410l-36 37h-8v192h105v265h-61l-36 37h-8v192h79l-32 32h-12l129 201h217zM176 917
l-144 -223h9l10 -10h-44v-214h6l27 -27h7l10 -10h4l27 -27h24v-216h-105v-214h6l27 -27h7l10 -10h4l27 -27h422v196l-27 27v4l-10 10v8l-27 27v6h-40v216h104v196l-27 27v4l-10 10v8l-27 27v6h-74l101 148l-28 27l2 3l-11 10l6 12l-28 28l3 5h-241zM303 151h6l27 -27h71
v-109h-334v109h105v352l-27 27v6h-78v109h334v-109h-104v-358zM225 851h103l-80 -118h-98z" />
    <glyph glyph-name="FL00CEh" unicode="&#xce;" horiz-adv-x="537" 
d="M246 673h38l-25 24zM226 783l30 -61h158l-102 167h-173l-101 -167h157zM314 498h104v158h-383v-158h105v-336h-105v-158h383v158h-104v336zM323 906l9 -14h-1l33 -33l116 -191h-45v-3l37 -37v-184h-104v-265h67v-8l37 -37v-184h-410l-36 37h-8v192h105v265h-61l-36 37h-8
v192h33l-32 32h-13l123 201h194zM122 917l-136 -223h9l12 -12v-212h6l27 -27h7l10 -10h4l27 -27h24v-216h-105v-214h6l27 -27h7l10 -10h4l27 -27h422v196l-27 27v4l-10 10v8l-27 27v6h-40v216h104v196l-27 27v1h41l-125 206l-19 19l-6 10l-13 13l-4 6l-21 21l-8 12h-206z
M303 151h6l27 -27h71v-109h-334v109h105v352l-27 27v6h-78v109h334v-109h-104v-358zM188 733h-86l71 118h147l73 -118h-119l-18 38l-24 23l-6 14z" />
    <glyph glyph-name="FL00CFh" unicode="&#xcf;" horiz-adv-x="537" 
d="M277 718q-5 2 -10.5 7l-10.5 10q-14 -48 -62 -62h144q-24 6 -39 24l-22 22v-1zM246 806q0 -35 22.5 -59t60.5 -24t61 24t23 59t-23 59t-61 24t-60.5 -24t-22.5 -59zM40 806q0 -35 22.5 -59t60.5 -24t61 24t23 59t-23 59t-61 24t-60.5 -24t-22.5 -59zM314 498h104v158
h-383v-158h105v-336h-105v-158h383v158h-104v336zM23 806q0 42 27 71t73 29q29 0 51.5 -12.5t34.5 -34.5h-1l25 -23q8 31 33.5 50.5t62.5 19.5q29 0 51.5 -12.5t34.5 -34.5h-1l25 -23q28 -28 28 -70q0 -34 -18.5 -59.5t-50.5 -33.5h37v-8l37 -37v-184h-104v-265h67v-8
l37 -37v-184h-410l-36 37h-8v192h105v265h-61l-36 37h-8v192h114q-24 6 -39 24l-23 22v-1q-47 27 -47 88zM12 806q0 -58 49 -94l26 -26l1 -1q1 0 2 -1h-83v-214h6l27 -27h7l10 -10h4l27 -27h24v-216h-105v-214h6l27 -27h7l10 -10h4l27 -27h422v196l-27 27v4l-10 10v8l-27 27
v6h-40v216h104v196l-27 27v4l-10 10v8l-4 4q36 30 36 81q0 45 -31 76l-12 11q-3 5 -7 10.5t-9 10.5l-23 21q-18 25 -42 38.5t-52 13.5q-35 0 -61 -17t-40 -45l-11 10q-18 24 -42 38t-52 14q-51 0 -81 -32t-30 -79zM303 151h6l27 -27h71v-109h-334v109h105v352l-27 27v6h-78
v109h334v-109h-104v-358zM78 776q0 32 20 53.5t55 21.5q18 0 32 -7q11 -17 11 -38q0 -30 -20 -51t-53 -21q-22 0 -40 10q-3 8 -4 16t-1 16zM284 776q0 32 20 53.5t55 21.5q18 0 32 -7q11 -17 11 -38q0 -30 -20 -51t-53 -21q-22 0 -40 10q-3 8 -4 16t-1 16z" />
    <glyph glyph-name="FL00D0h" unicode="&#xd0;" horiz-adv-x="684" 
d="M345 404q-8 3 -12 3l22 -22q-2 5 -4 9t-4 9q-1 0 -1.5 0.5zM364 331q0 23 -4 38v-70q4 13 4 32zM275 462q49 0 77 -35t28 -96q0 -26 -8.5 -50t-22.5 -42.5t-33.5 -29.5t-40.5 -11h-19v53h50v158h-50v53h19zM35 409v-158h46v-247h196q69 0 123.5 25.5t92 69t57.5 102.5
t20 127q-1 167 -78.5 247t-232.5 80h-178v-246h-46zM18 426h47v246h194q185 0 268 -114h-1l10 -11q87 -88 88 -259q0 -71 -21 -132.5t-60.5 -107t-96.5 -72t-129 -26.5h-208l-36 37h-8v210h-2l-37 37h-8v192zM7 223h6l27 -27h8l6 -6v-214h6l27 -27h7l10 -10h4l27 -27h212
q74 0 132.5 27t99 74t62 110t21.5 135q-1 175 -90 265l-6 5q-13 18 -27 32v-1l-8 9q-98 115 -272 115h-205v-246h-47v-214zM119 229l-27 27v6h-19v109h46v246h170q122 0 197 -55q71 -77 73 -234q0 -65 -19 -122t-55.5 -99.5t-89 -67t-118.5 -24.5h-158v214zM245 473v-75h6
l27 -27h17v-109h-50v-75h6l27 -27h27q23 0 43.5 12t36 31.5t24.5 45t9 52.5q0 72 -37 109l-12 11q-15 25 -38.5 38.5t-55.5 13.5h-30z" />
    <glyph glyph-name="FL00D1h" unicode="&#xd1;" 
d="M243 627l81 -139v180h-18l-30 29l-15 -29h-55l4 -8h-1zM241 779l32 -57h119l102 167h-158l-29 -56l-32 56h-119l-101 -167h157zM193 656h-118q-16 0 -27 -11t-13 -26v-615h174v262l4 1l143 -263h121q16 0 26.5 12t10.5 30v608h-173v-254zM26 -13h-8v633q3 20 16.5 35
t33.5 17l-32 33h-13l123 201h140l7 -12h-1l17 -18l17 30h200l-6 -9l38 -36l-115 -190h88v-8l37 -37v-620q0 -24 -14.5 -40t-37.5 -16h-127l-37 37h-6l-83 151v-188h-200zM58 -61h4l27 -27h212v133l38 -69h5l27 -27h3l10 -10h4l27 -27h131q27 0 43.5 18t16.5 46v624l-27 27v4
l-10 10v8l-27 27v6h-35l91 151l-28 27l2 3l-10 8l9 13l-28 28l3 5h-227l-11 -20l-9 9l-6 11h-154l-136 -223h9l24 -25q-24 -17 -29 -48v-645h6l27 -27h8zM352 358v9l27 -27v276h124v-570q0 -13 -7.5 -22t-18.5 -9h-105l-125 232l-23 23l-6 11l-20 -7v-259h-125v574
q2 11 10.5 20t21.5 9h96zM307 809l2 4l28 -27l34 65h85l-72 -118h-95l-18 33l-22 21l-8 16l-36 -70h-86l71 118h93zM296 630l12 23l5 -5v-104l-34 59l-21 21l-4 6h42z" />
    <glyph glyph-name="FL00D2h" unicode="&#xd2;" horiz-adv-x="730" 
d="M417 390l1 2l1 -1zM410 332q0 39 -17 71q-14 6 -28 6h-2q-43 0 -66 -31.5t-23 -85.5v-5q0 -44 10 -67q19 -8 39 -8h2q42 1 63.5 31t21.5 84v5zM294 722h171l-108 167h-176zM426 327q0 -60 -26 -95.5t-75 -36.5h-2q-49 0 -75.5 35.5t-26.5 96.5v5q0 60 26.5 95.5
t75.5 35.5h2q35 -1 58.5 -20.5t33.5 -52.5h-1q0 -1 1 -1v1q9 -26 9 -58v-5zM324 657q-153 0 -223.5 -81.5t-70.5 -246.5t70.5 -246.5t223.5 -81.5h1q151 1 221 83t70 243v3q0 161 -70 243.5t-221 83.5h-1zM367 906l10 -15h-1l32 -32l123 -191h-130q115 -21 173 -100h-1
l12 -13q45 -45 65 -109.5t20 -155.5v-3q0 -169 -73 -254t-232 -86h-1q-151 0 -225 77l-14 14v-1q-112 79 -112 292q0 171 74.5 257.5t234.5 87.5l-31 31h-5l-137 201h218zM128 917l152 -223h4l10 -10q-153 -10 -222.5 -98.5t-69.5 -256.5q0 -200 112 -296l17 -17
q7 -8 14.5 -14l15.5 -12l4 -4q75 -77 229 -77h1q163 1 238 88t75 260v3q0 93 -20.5 159t-66.5 112l-5 3q-6 9 -13 17.5t-15 16.5v-1q-29 36 -67 63h55l-133 206l-17 16l-8 13l-13 12l-4 7l-22 22l-7 11h-244zM68 299q0 162 68.5 241t217.5 79h1q111 0 178 -49
q72 -78 72 -240v-3q0 -156 -67.5 -235t-212.5 -80h-1q-134 0 -202 65q-54 76 -54 222zM280 185q28 -28 73 -28h2q53 1 81 38.5t28 101.5v5q0 32 -7 54l6 3l-11 11q-5 12 -12 23t-15 19l-17 17q-31 43 -83 45h-2q-54 0 -83.5 -38t-29.5 -104v-5q0 -95 56 -129zM226 851h141
l77 -118h-138zM399 327q0 -102 -74 -104h-2h-10q-1 8 -1 16v18v5q0 51 21 80t60 29q0 -2 1 -3l-2 -3l2 1q5 -18 5 -34v-5z" />
    <glyph glyph-name="FL00D3h" unicode="&#xd3;" horiz-adv-x="730" 
d="M410 332q0 39 -17 71q-14 6 -28 6h-2q-43 0 -66 -31.5t-23 -85.5v-5q0 -44 10 -67v1v-1h1h-1q19 -8 39 -8h2q42 1 63.5 31t21.5 84v5zM181 722h170l114 167h-177zM426 327q0 -60 -26 -95.5t-75 -36.5h-2q-49 0 -75.5 35.5t-26.5 96.5v5q0 60 26.5 95.5t75.5 35.5h2
q49 -1 75 -37t26 -94v-5zM324 657q-153 0 -223.5 -81.5t-70.5 -246.5t70.5 -246.5t223.5 -81.5h1q151 1 221 83t70 243v3q0 161 -70 243.5t-221 83.5h-1zM497 906l-5 -8l38 -37l-131 -193q114 -19 175 -100h-1l12 -13q45 -45 65 -109.5t20 -155.5v-3q0 -169 -73 -254
t-232 -86h-1q-151 0 -225 77l-14 14v-1q-112 79 -112 292q0 152 56 235.5t177 103.5h-47l-37 37h-13l130 201h218zM273 917l-145 -223h9l27 -27h20l3 -3q-97 -33 -141 -116t-44 -219q0 -200 112 -296l17 -17q7 -8 14.5 -14l15.5 -12l4 -4q75 -77 229 -77h1q163 1 238 88
t75 260v3q0 93 -20.5 159t-66.5 112l-5 4q-6 8 -13 16.5t-15 16.5v-1l-2 2q-57 68 -130 94l115 169l-28 27l2 3l-11 10l7 12l-28 27l4 6h-244zM68 299q0 162 68.5 241t217.5 79h1q111 0 178 -49q72 -78 72 -240v-3q0 -156 -67.5 -235t-212.5 -80h-1q-134 0 -202 65
q-54 76 -54 222zM280 185q28 -28 73 -28h2q53 1 81 38.5t28 101.5v5q0 73 -37 110l-12 12q-30 48 -90 50h-2q-54 0 -83.5 -38t-29.5 -104v-5q0 -95 56 -129zM322 851h103l-80 -118h-98zM399 327q0 -102 -74 -104h-2h-10q-1 8 -1 16v18v5q0 51 21 80t60 29q6 -20 6 -39v-5z
" />
    <glyph glyph-name="FL00D4h" unicode="&#xd4;" horiz-adv-x="730" 
d="M343 673q11 -1 21 -1.5t20 -1.5l-28 27zM410 332q0 39 -17 71q-14 6 -28 6h-2q-43 0 -66 -31.5t-23 -85.5v-5q0 -44 10 -67v1q18 -9 39 -9h2q42 1 63.5 31t21.5 84v5zM323 783l30 -61h159l-102 167h-174l-102 -167h158zM426 327q0 -60 -26 -95.5t-75 -36.5h-2
q-49 0 -75.5 35.5t-26.5 96.5v5q0 60 26.5 95.5t75.5 35.5h2q49 -1 75 -37t26 -94v-5zM324 657q-153 0 -223.5 -81.5t-70.5 -246.5t70.5 -246.5t223.5 -81.5h1q151 1 221 83t70 243v3q0 161 -70 243.5t-221 83.5h-1zM420 906l9 -14h-1l33 -33l116 -191h-179
q117 -19 176 -100h-1l12 -13q45 -45 65 -109.5t20 -155.5v-3q0 -169 -73 -254t-232 -86h-1q-151 0 -225 77l-14 14v-1q-112 79 -112 292q0 152 56 235.5t177 103.5h-94l-37 37h-13l124 201h194zM219 917l-137 -223h9l27 -27h19l10 -10h4l5 -6q-80 -38 -117 -118t-37 -204
q0 -200 112 -296l17 -17q7 -8 14.5 -14l15.5 -12l4 -4q75 -77 229 -77h1q163 1 238 88t75 260v3q0 93 -20.5 159t-66.5 112l-5 3q-6 9 -13 17.5t-15 16.5v-1q-31 38 -67 63h100l-125 206l-19 19l-6 10l-13 13l-4 6l-21 21l-8 12h-206zM68 299q0 162 68.5 241t217.5 79h1
q111 0 178 -49q72 -78 72 -240v-3q0 -156 -67.5 -235t-212.5 -80h-1q-134 0 -202 65q-54 76 -54 222zM280 185q28 -28 73 -28h2q53 1 81 38.5t28 101.5v5q0 73 -37 110l-12 12q-30 48 -90 50h-2q-54 0 -83.5 -38t-29.5 -104v-5q0 -95 56 -129zM285 733h-86l71 118h148
l73 -118h-120l-18 38l-24 23l-6 14zM399 327q0 -102 -74 -104h-2q-7 0 -10 1q-2 8 -1.5 16t0.5 17v5q0 51 21 80t60 29q6 -20 6 -39v-5z" />
    <glyph glyph-name="FL00D5h" unicode="&#xd5;" horiz-adv-x="730" 
d="M325 674q3 0 6.5 -0.5t7.5 -0.5h10l-25 24l-12 -23h13zM410 332q0 39 -17 71q-14 6 -28 6h-2q-43 0 -66 -31.5t-23 -85.5v-5q0 -44 10 -67q19 -8 39 -8h2q42 1 63.5 31t21.5 84v5zM426 327q0 -60 -26 -95.5t-75 -36.5h-2q-49 0 -75.5 35.5t-26.5 96.5v5q0 60 26.5 95.5
t75.5 35.5h2q49 -1 75 -37t26 -94v-5zM289 779l32 -57h119l103 167h-159l-29 -56l-32 56h-119l-102 -167h158zM324 657q-153 0 -223.5 -81.5t-70.5 -246.5t70.5 -246.5t223.5 -81.5h1q151 1 221 83t70 243v3q0 161 -70 243.5t-221 83.5h-1zM125 38v-1q-112 79 -112 292
q0 152 56 235.5t177 103.5h-126l-37 37h-12l123 201h140l7 -12h-1l17 -18l17 30h201l-6 -9l37 -36l-117 -193h-88q115 -21 173 -100h-1l12 -13q45 -45 65 -109.5t20 -155.5v-3q0 -169 -73 -254t-232 -86h-1q-151 0 -225 77zM131 16q7 -8 14.5 -14l15.5 -12l4 -4
q75 -77 229 -77h1q163 1 238 88t75 260v3q0 93 -20.5 159t-66.5 112l-5 3q-6 9 -13 17.5t-15 16.5v-1q-29 36 -67 63h3l122 203l-28 27l2 3l-9 8l9 13l-28 28l3 5h-228l-11 -20l-9 9l-6 11h-154l-136 -223h9l27 -27h18l10 -10h4l16 -17q-69 -41 -101 -118.5t-32 -192.5
q0 -200 112 -296zM68 299q0 162 68.5 241t217.5 79h1q111 0 178 -49q72 -78 72 -240v-3q0 -156 -67.5 -235t-212.5 -80h-1q-134 0 -202 65q-54 76 -54 222zM280 185q28 -28 73 -28h2q53 1 81 38.5t28 101.5v5q0 73 -37 110l-12 12q-30 48 -90 50h-2q-54 0 -83.5 -38
t-29.5 -104v-5q0 -95 56 -129zM355 809l2 4l28 -27l34 65h86l-73 -118h-95l-18 33l-22 21l-8 16l-36 -70h-86l71 118h93zM399 327q0 -102 -74 -104h-2h-10q-1 8 -1 16v18v5q0 51 21 80t60 29q6 -20 6 -39v-5z" />
    <glyph glyph-name="FL00D6h" unicode="&#xd6;" horiz-adv-x="730" 
d="M410 332q0 39 -17 71q-14 6 -28 6h-2q-43 0 -66 -31.5t-23 -85.5v-5q0 -44 10 -67q19 -8 39 -8h2q42 1 63.5 31t21.5 84v5zM135 806q0 -35 23 -59t61 -24t61 24t23 59t-23 59t-61 24t-61 -24t-23 -59zM342 806q0 -35 22.5 -59t60.5 -24t61.5 24t23.5 59t-23.5 59
t-61.5 24t-60.5 -24t-22.5 -59zM426 327q0 -60 -26 -95.5t-75 -36.5h-2q-49 0 -75.5 35.5t-26.5 96.5v5q0 60 26.5 95.5t75.5 35.5h2q49 -1 75 -37t26 -94v-5zM324 657q-153 0 -223.5 -81.5t-70.5 -246.5t70.5 -246.5t223.5 -81.5h1q151 1 221 83t70 243v3q0 161 -70 243.5
t-221 83.5h-1zM118 806q0 42 27.5 71t73.5 29q29 0 51.5 -12.5t34.5 -34.5h-1l25 -23q8 31 33.5 50.5t62.5 19.5q29 0 52 -12.5t35 -34.5h-1l25 -23q28 -28 28 -70t-27 -69.5t-72 -27.5q-44 0 -69 28l-23 22v-1q-5 2 -10.5 7l-10.5 10q-14 -50 -65 -63q9 1 18 1.5t19 0.5h1
q172 -1 249 -106h-1l12 -13q45 -45 65 -109.5t20 -155.5v-3q0 -169 -73 -254t-232 -86h-1q-151 0 -225 77l-14 14v-1q-112 79 -112 292q0 152 57.5 236.5t181.5 103.5q-36 1 -63 28l-23 22v-1q-23 13 -35.5 36t-12.5 52zM107 806q0 -56 49 -94l2 -2l16 -15l6 -6h1
q9 -11 18 -16l4 -4q-105 -30 -153 -114t-48 -226q0 -200 112 -296l17 -17q7 -8 14.5 -14l15.5 -12l4 -4q75 -77 229 -77h1q163 1 238 88t75 260v3q0 93 -20.5 159t-66.5 112l-5 4q-6 8 -13 16.5t-15 16.5v-1q-32 40 -72 65q40 7 63 34.5t23 69.5q0 45 -31 76l-11 10
q-5 10 -17 22l-23 21q-18 25 -42.5 38.5t-52.5 13.5q-35 0 -61 -17t-40 -45l-11 10q-18 24 -42 38t-52 14q-51 0 -81.5 -32t-30.5 -79zM68 299q0 162 68.5 241t217.5 79h1q111 0 178 -49q72 -78 72 -240v-3q0 -156 -67.5 -235t-212.5 -80h-1q-134 0 -202 65q-54 76 -54 222z
M280 185q28 -28 73 -28h2q53 1 81 38.5t28 101.5v5q0 73 -37 110l-12 12q-30 48 -90 50h-2q-54 0 -83.5 -38t-29.5 -104v-5q0 -95 56 -129zM173 776q0 32 20.5 53.5t55.5 21.5q18 0 32 -7q11 -17 11 -38q0 -30 -20 -51t-53 -21q-24 0 -41 11q-3 7 -4 15t-1 16zM380 776
q0 32 20 53.5t55 21.5q19 0 33 -7q11 -17 11 -38q0 -30 -20.5 -51t-53.5 -21q-22 0 -40 10q-3 8 -4 16t-1 16zM399 327q0 -102 -74 -104h-2h-10q-1 8 -1 16v18v5q0 51 21 80t60 29q6 -20 6 -39v-5zM385 690q2 -4 6 -5l2 -1q2 -2 3.5 -3t3.5 -3q-5 1 -9.5 1.5t-9.5 1.5
q2 3 4 9zM351 723q-4 4 -5 6z" />
    <glyph glyph-name="FL00D7h" unicode="&#xd7;" horiz-adv-x="536" 
d="M226 215l84 -83l112 113l-83 83l82 83l-112 112l-83 -83l-83 84l-112 -112l83 -84l-84 -84l113 -112zM443 411l-2 -2l38 -38l-80 -80l45 -46l-2 -2l38 -38l-130 -131l-38 38l-2 -2l-46 46l-82 -82l-37 38l-2 -2l-135 134l84 84l-83 84l134 133l83 -83l83 82zM309 560
l-83 -82l-83 83l-150 -149l83 -84l-84 -84l151 -150l2 2l37 -38l1 1l29 -27l80 80l18 -18l2 2l38 -38l2 2l28 -28l142 143l-28 28l2 2l-10 10l-28 28l2 2l-18 17l79 79l-28 28l2 2l-38 38l2 2zM130 328l-55 56l96 96l55 -56l2 2l28 -28l81 81l68 -68l-82 -83l83 -83l-96 -97
l-84 83l-83 -83l-69 68l82 82l-28 28z" />
    <glyph glyph-name="FL00D8h" unicode="&#xd8;" horiz-adv-x="730" 
d="M220 331q0 60 26 95t75 36h10q8 0 11 -3l-105 -211q-17 40 -17 78v5zM426 326q0 -58 -26 -94t-75 -37h-11q-7 0 -10 3l106 212q16 -35 16 -79v-5zM324 656q-153 0 -223.5 -81.5t-70.5 -246.5t70.5 -246t223.5 -81h1q151 1 221 82.5t70 242.5v3q0 161 -70 243.5t-221 83.5
h-1zM325 673q172 -1 249 -106h-1l12 -13q45 -45 65 -109.5t20 -155.5v-3q0 -169 -73 -253.5t-232 -85.5h-1q-151 0 -225 77l-14 14v-1q-112 79 -112 291q0 174 74.5 259.5t236.5 85.5h1zM324 684q-168 0 -245 -88.5t-77 -267.5q0 -199 112 -295l17 -17q7 -8 14.5 -14
l15.5 -12l4 -4q75 -77 229 -77h1q163 1 238 87.5t75 259.5v3q0 94 -20.5 159.5t-66.5 111.5l-5 4q-6 8 -13 16.5t-15 16.5v-1q-46 57 -111.5 87t-151.5 31h-1zM68 298q0 162 68.5 241t217.5 79h1q111 0 178 -49q72 -78 72 -240v-3q0 -156 -67.5 -234.5t-212.5 -79.5h-1
q-137 0 -205 67q-51 76 -51 219zM209 326q0 -40 28 -105l2 5l28 -27l115 232l-3 2l0.5 -0.5t1.5 -0.5l-27 26l2 3q-12 12 -25 12h-10q-54 -1 -83 -38.5t-29 -103.5v-5zM324 166q9 -9 20 -9h11q53 1 81 39t28 100v5q0 43 -24 97l-25 24l-2 6t-3 7l-120 -239q9 -9 14 -11z" />
    <glyph glyph-name="FL00D9h" unicode="&#xd9;" 
d="M245 722h171l-108 167h-176zM209 656h-174v-326q0 -79 9.5 -140t35 -103t71 -63.5t118.5 -21.5h1q68 0 114.5 20.5t75.5 58.5t41.5 92t12.5 122v361h-174v-325q0 -30 -3 -54.5t-11 -42.5t-21 -28t-34 -10q-22 0 -34.5 9.5t-18.5 27t-7.5 42t-1.5 53.5v328zM318 906
l10 -15h-1l31 -32l120 -186h53v-8l37 -37v-373q0 -71 -13.5 -128t-44.5 -96.5t-80 -61t-120 -21.5h-1q-63 0 -105 14.5t-71 43.5l-19 18v-1q-57 42 -76.5 117.5t-19.5 189.5v343h208v-8l37 -37v-340q0 -22 0.5 -41t2.5 -34h5q31 0 41.5 33.5t10.5 84.5v337h-44l-37 37h-5
l-137 201h218zM79 917l152 -223h4l27 -27h2l10 -10h4l27 -27h7v-299q0 -26 -2.5 -48t-8.5 -37v356l-27 27v4l-10 10v8l-27 27v6h-230v-354q0 -107 19.5 -183t76.5 -128l22 -21q5 -5 11 -9.5t12 -9.5l9 -9q30 -30 73 -45t109 -15h1q73 0 124 22t82.5 63t45.5 99t14 131v377
l-27 27v4l-10 10v8l-27 27v6h-51l-98 152l-18 17l-7 12l-11 11l-5 8l-22 22l-7 11h-244zM198 328q0 -26 1 -48.5t5 -40t12 -30.5t22 -19l17 -16q16 -16 46 -16q23 0 38 10.5t23.5 29.5t12 45t3.5 58v317h125v-323q0 -65 -12 -117t-39.5 -89t-72 -56.5t-109.5 -19.5h-1
q-51 0 -87.5 11t-62.5 33q-26 41 -36 101.5t-10 141.5v318h125v-290zM177 851h141l77 -118h-138z" />
    <glyph glyph-name="FL00DAh" unicode="&#xda;" 
d="M323 668h-97v-3l37 -37v-337q0 -23 1.5 -42.5t6.5 -35.5h7q16 0 25 8.5t13.5 23.5t5.5 36t1 47v340zM133 722h170l114 167h-177zM280 2q73 0 118.5 21.5t71 63.5t35 103t9.5 140v326h-174v-328q0 -29 -1.5 -53.5t-7.5 -42t-18.5 -27t-34.5 -9.5q-21 0 -34 10t-21 28
t-11 42.5t-3 54.5v325h-174v-361q0 -68 12.5 -122t41.5 -92t75.5 -58.5t114.5 -20.5h1zM449 906l-5 -8l37 -37l-128 -188h178v-8l37 -37v-338q0 -82 -10 -145.5t-37 -107t-75.5 -66.5t-125.5 -23h-1q-63 0 -107.5 16t-76.5 48l-18 18v-1q-54 38 -76.5 105t-22.5 161v378h128
l-32 32h-13l130 201h218zM225 917l-145 -223h9l10 -10h-92v-389q0 -91 24 -160t81 -116l15 -15q14 -14 27 -23l5 -5q33 -33 78.5 -49.5t111.5 -16.5h1q79 0 129 23.5t78.5 68t38.5 109.5t10 149v342l-27 27v4l-10 10v8l-27 27v6h-121l101 148l-28 27l2 3l-10 10l7 12l-28 27
l4 6h-244zM280 13h-1q-54 0 -93 13t-67 39q-24 36 -35 86.5t-11 113.5v353h125v-287q0 -51 9.5 -88t36.5 -51l18 -17q17 -17 46 -17q25 0 39 10t21 28.5t8.5 44.5t1.5 57v320h125v-288q0 -77 -9 -136t-33.5 -99t-68 -61t-112.5 -21zM274 851h103l-80 -118h-98zM312 328
q0 -31 -1.5 -54.5t-9.5 -36.5v365l-27 27v1h38v-302z" />
    <glyph glyph-name="FL00DBh" unicode="&#xdb;" 
d="M323 673h9l-25 24l-15 -29h-66v-3l37 -37v-337q0 -23 1.5 -42.5t6.5 -35.5h7q16 0 25 8.5t13.5 23.5t5.5 36t1 47v345zM274 783l30 -61h159l-103 167h-173l-102 -167h158zM280 2q73 0 118.5 21.5t71 63.5t35 103t9.5 140v326h-174v-328q0 -29 -1.5 -53.5t-7.5 -42
t-18.5 -27t-34.5 -9.5q-21 0 -34 10t-21 28t-11 42.5t-3 54.5v325h-174v-361q0 -68 12.5 -122t41.5 -92t75.5 -58.5t114.5 -20.5h1zM371 906l9 -14h-1l33 -33l112 -186h7v-8l37 -37v-338q0 -82 -10 -145.5t-37 -107t-75.5 -66.5t-125.5 -23h-1q-63 0 -107.5 16t-76.5 48
l-18 18v-1q-54 38 -76.5 105t-22.5 161v378h80l-31 32h-13l123 201h194zM170 917l-136 -223h9l10 -10h-46v-389q0 -91 24 -160t81 -116l15 -15q14 -14 27 -23l5 -5q33 -33 78.5 -49.5t111.5 -16.5h1q79 0 129 23.5t78.5 68t38.5 109.5t10 149v342l-27 27v4l-10 10v8l-26 26
l-1 1v6h-3l-92 152l-19 19l-6 10l-13 13l-4 6l-21 21l-8 12h-206zM280 13h-1q-54 0 -93 13t-67 39q-24 36 -35 86.5t-11 113.5v353h125v-287q0 -51 9.5 -88t36.5 -51l18 -17q17 -17 46 -17q25 0 39 10t21 28.5t8.5 44.5t1.5 57v320h125v-288q0 -77 -9 -136t-33.5 -99
t-68 -61t-112.5 -21zM236 733h-86l71 118h148l73 -118h-120l-18 38l-24 23l-6 14zM312 328q0 -31 -1.5 -54.5t-9.5 -36.5v365l-27 27v1h38v-302z" />
    <glyph glyph-name="FL00DCh" unicode="&#xdc;" 
d="M294 806q0 -35 22.5 -59t60.5 -24t61.5 24t23.5 59t-23.5 59t-61.5 24t-60.5 -24t-22.5 -59zM87 806q0 -35 23 -59t61 -24t61 24t23 59t-23 59t-61 24t-61 -24t-23 -59zM304 735q-8 -26 -28.5 -43.5t-49.5 -21.5v-5l37 -37v-340q0 -22 0.5 -41t2.5 -34h5q31 0 41.5 33.5
t10.5 84.5v342h63q-24 6 -39 24l-22 22v-1q-5 2 -10.5 7zM209 656h-174v-326q0 -79 9.5 -140t35 -103t71 -63.5t118.5 -21.5h1q68 0 114.5 20.5t75.5 58.5t41.5 92t12.5 122v361h-174v-325q0 -30 -3 -54.5t-11 -42.5t-21 -28t-34 -10q-22 0 -34.5 9.5t-18.5 27t-7.5 42
t-1.5 53.5v328zM70 806q0 42 27.5 71t73.5 29q29 0 51.5 -12.5t34.5 -34.5h-1l25 -23q8 31 33.5 50.5t62.5 19.5q29 0 52 -12.5t35 -34.5h-1l24 -23q28 -28 28 -70q0 -34 -18.5 -59.5t-49.5 -33.5h84v-8l37 -37v-373q0 -71 -13.5 -128t-44.5 -96.5t-80 -61t-120 -21.5h-1
q-63 0 -105 14.5t-71 43.5l-19 18v-1q-57 42 -76.5 117.5t-19.5 189.5v343h162q-24 6 -39 24l-23 22v-1q-23 13 -35.5 36t-12.5 52zM59 806q0 -58 51 -95l25 -25l1 -1q1 0 2 -1h-131v-354q0 -107 19.5 -183t76.5 -128l22 -21q5 -5 11 -9.5t12 -9.5l9 -9q30 -30 73 -45
t109 -15h1q73 0 124 22t82.5 63t45.5 99t14 131v377l-27 27v4l-10 10v8l-27 27v6h-2q13 24 13 52q0 46 -30 76l-12 11q-3 5 -7 10.5t-9 10.5l-27 26q-18 22 -41.5 34.5t-49.5 12.5q-35 0 -61 -17t-40 -45l-11 10q-18 24 -42 38t-52 14q-51 0 -81.5 -32t-30.5 -79zM198 328
q0 -26 1 -48.5t5 -40t12 -30.5t22 -19l17 -16q16 -16 46 -16q23 0 38 10.5t23.5 29.5t12 45t3.5 58v317h125v-323q0 -65 -12 -117t-39.5 -89t-72 -56.5t-109.5 -19.5h-1q-51 0 -87.5 11t-62.5 33q-26 41 -36 101.5t-10 141.5v318h125v-290zM125 776q0 32 20.5 53.5
t55.5 21.5q18 0 32 -7q11 -17 11 -38q0 -30 -20 -51t-53 -21q-24 0 -41 11q-3 7 -4 15t-1 16zM332 776q0 32 20 53.5t55 21.5q19 0 33 -7q11 -17 11 -38q0 -30 -20.5 -51t-53.5 -21q-22 0 -40 10q-3 8 -4 16t-1 16zM312 655v-324q0 -26 -2.5 -48t-8.5 -37v356l-27 27v4l-2 1
q11 3 21.5 8.5t18.5 12.5zM337 690l4 -4l1 -1q1 0 2 -1h-10z" />
    <glyph glyph-name="FL00DDh" unicode="&#xdd;" 
d="M260 627l22 -48l43 89h-103l3 -6h-1zM133 722h170l114 167h-177zM362 320l160 336h-183l-65 -134l-64 134h-184l161 -335v-317h175v316zM449 906l-5 -8l38 -37l-128 -188h196l-4 -9l38 -36l-169 -352v-326h-200l-37 37h-8v328l-171 358h147l-32 32h-13l130 201h218z
M225 917l-145 -223h9l10 -10h-117l177 -371v-337h6l27 -27h8l10 -10h4l27 -27h212v333l171 356l-28 27l2 3l-11 10l5 10l-28 27l3 6h-145l101 148l-28 27l2 3l-11 10l7 12l-28 27l4 6h-244zM225 292l-157 326h148l58 -121l2 4l28 -27l69 144h119l-141 -296v-307h-126v277z
M274 851h103l-80 -118h-98zM270 630h25l-9 -18l-15 15z" />
    <glyph glyph-name="FL00DEh" unicode="&#xde;" horiz-adv-x="588" 
d="M263 339v-39q14 14 14 35v3q-2 1 -11 1h-3zM226 393q30 0 49 -13.5t19 -44.5q0 -29 -17 -45t-48 -19h-20v122h17zM209 561v94h-174v-651h174v91q131 0 198 59t67 188q0 30 -7 67.5t-23.5 71.5t-43.5 57t-67 23h-124zM226 672v-8l37 -36v-50h70q36 0 62.5 -17t45.5 -44h-1
l19 -19q19 -18 32 -42.5t21 -51.5t12 -53.5t4 -48.5q0 -132 -69 -195t-196 -65v-92h-200l-37 37h-8v685h208zM7 683v-707h6l27 -27h8l10 -10h4l27 -27h212v92q127 4 196 69t69 199q0 22 -4 48.5t-12 54t-21 52.5t-32 44l-3 3h1l-9 9l-15 18h1l-22 22q-23 30 -52.5 48
t-64.5 18h-32v13l-27 27v4l-10 9v8l-27 27v6h-230zM73 617h125v-67h6l27 -27h132q14 0 27 -4t24 -10q13 -17 22.5 -38.5t15.5 -44t8.5 -44.5t2.5 -40q0 -123 -67 -179.5t-198 -56.5v-91h-125v602zM198 404v-144h6l27 -27h29q34 3 53 21t19 51q0 30 -17 47l-17 16
q-8 19 -27 27.5t-45 8.5h-28z" />
    <glyph glyph-name="FL00DFh" unicode="&#xdf;" horiz-adv-x="650" 
d="M263 434v-8h73q1 1 1 5v2q-2 1 -11 1h-63zM263 219v-30h23q25 0 36 8h-37zM35 -131h175v619h76q30 0 49 -13t19 -44q0 -13 -3 -22h-94v-158h94q3 -9 3 -22q0 -31 -19 -44t-49 -13h-29v-168h136q46 0 74 23t43.5 56t20.5 71t5 68q0 29 -17.5 57t-46.5 50q27 22 45.5 50.5
t18.5 58.5t-7.5 68t-24.5 71t-44 56t-67 23h-303q-7 0 -16.5 -5.5t-18 -13.5t-14.5 -19t-6 -21v-728zM18 597q0 13 7.5 27t18.5 24.5t23.5 17.5t22.5 7h303q37 0 64.5 -18t45.5 -46h-1l18 -17q19 -19 32 -43.5t21.5 -50.5t12.5 -52t4 -48q0 -30 -16 -57.5t-41 -50.5l10 -9
q47 -44 47 -99q0 -32 -5.5 -72t-22.5 -75.5t-47.5 -60t-81.5 -24.5h-148l-22 22v-157h-200l-37 37h-8v745zM7 597v-756h6l27 -27h8l10 -10h4l27 -27h212v145l10 -10h152q53 0 85.5 25.5t50 62t23.5 78t6 74.5q0 56 -46 101l-4 3q-1 1 -3 5q23 23 38 50t15 57q0 22 -4 49
t-13 54t-23 52t-33 45l-8 7q-5 7 -10 13l-10 12l-13 12q-23 32 -53.5 52t-67.5 20h-303q-12 0 -26 -8t-27 -20.5t-21.5 -28t-8.5 -30.5zM295 134h21q34 0 55 15t21 50q0 13 -5 30l-26 25q0 2 -2 8h-64v109h92q5 17 5 30q0 30 -16 46l-18 17q-8 19 -27 27t-45 8h-87v-619
h-126v687q0 9 5 18t12.5 16.5t15.5 12t14 4.5h303q28 0 51 -14q14 -17 23.5 -38t15.5 -43.5t9 -44.5t3 -40q0 -27 -20.5 -56t-50.5 -53q32 -24 51.5 -52t19.5 -55q0 -29 -4.5 -64.5t-19 -67.5t-40.5 -53.5t-68 -21.5h-98v119zM301 159l-3 2z" />
    <glyph glyph-name="FL00E0h" unicode="&#xe0;" horiz-adv-x="666" 
d="M297 406l33 -161h-78l33 161h12zM262 722h171l-108 167h-176zM278 656q-27 0 -48 -10.5t-36 -28t-25 -40t-16 -46.5l-128 -527h179l21 84h132l21 -84h178l-127 527q-6 24 -16 46.5t-25.5 40t-36 28t-47.5 10.5h-26zM335 906l10 -15h-1l32 -32l123 -191h-157
q22 -7 38.5 -21.5t30.5 -32.5h-1l20 -19q20 -20 33 -47t20 -55l131 -543h-206l-36 37h-7l-13 47h-77l-21 -84h-204l-37 37h-9l132 547q6 26 17.5 51t28.5 44.5t41 31.5t55 12h13l-32 32h-5l-137 201h218zM96 917l152 -223h4l10 -11q-30 -3 -53 -16.5t-39.5 -34t-27.5 -45.5
t-17 -50l-135 -561h7l27 -27h11l10 -10h4l27 -27h214l21 84h40l6 -20h5l27 -27h4l10 -10h4l27 -27h220l-133 553q-7 29 -20.5 57t-34.5 49l-8 7q-5 7 -10 13l-10 12l-23 22q-2 1 -2.5 2t-2.5 3h134l-133 206l-17 16l-8 13l-13 12l-4 7l-22 22l-7 11h-244zM367 92l-2 7h-150
l-20 -84h-122l118 484q6 23 15 44.5t23.5 38t33.5 26.5t45 10h26q27 0 48 -12q13 -16 22 -36t14 -42l123 -513h-135l-13 51zM275 417l-37 -183h7l27 -27h98l-36 177l-26 25l-1 8h-32zM194 851h141l77 -118h-138z" />
    <glyph glyph-name="FL00E1h" unicode="&#xe1;" horiz-adv-x="666" 
d="M297 406l33 -161h-78l33 161h12zM149 722h170l114 167h-177zM278 656q-27 0 -48 -10.5t-36 -28t-25 -40t-16 -46.5l-128 -527h179l21 84h132l21 -84h178l-127 527q-6 24 -16 46.5t-25.5 40t-36 28t-47.5 10.5h-26zM465 906l-5 -8l38 -37l-131 -193h-25q22 -7 38.5 -21.5
t30.5 -32.5h-1l20 -19q20 -20 33 -47t20 -55l131 -543h-206l-36 37h-7l-13 47h-77l-21 -84h-204l-37 37h-9l132 547q5 22 13.5 43.5t21.5 39.5t30 31.5t40 19.5h-74l-37 37h-13l130 201h218zM241 917l-145 -223h9l27 -27h20l10 -10h4l13 -13q-22 -22 -35 -50t-19 -57
l-135 -561h7l27 -27h11l10 -10h4l27 -27h214l21 84h40l6 -20h5l27 -27h4l10 -10h4l27 -27h220l-133 553q-7 29 -20.5 57t-34.5 49l-8 7q-5 7 -10 13l-10 12l-23 22q-4 3 -10 11l134 196l-28 27l2 3l-11 10l7 12l-28 27l4 6h-244zM367 92l-2 7h-150l-20 -84h-122l118 484
q6 23 15 44.5t23.5 38t33.5 26.5t45 10h26q27 0 48 -12q13 -16 22 -36t14 -42l123 -513h-135l-13 51zM275 417l-37 -183h7l27 -27h98l-36 177l-26 25l-1 8h-32zM290 851h103l-80 -118h-98z" />
    <glyph glyph-name="FL00E2h" unicode="&#xe2;" horiz-adv-x="666" 
d="M297 406l33 -161h-78l33 161h12zM291 783l30 -61h159l-102 167h-174l-102 -167h158zM278 656q-27 0 -48 -10.5t-36 -28t-25 -40t-16 -46.5l-128 -527h179l21 84h132l21 -84h178l-127 527q-6 24 -16 46.5t-25.5 40t-36 28t-47.5 10.5h-26zM388 906l9 -14h-1l33 -33
l116 -191h-191l-30 29l-13 -24q34 -2 58.5 -18.5t41.5 -40.5h-1l20 -19q20 -20 33 -47t20 -55l131 -543h-206l-36 37h-7l-13 47h-77l-21 -84h-204l-37 37h-9l132 547q5 22 13.5 43.5t21.5 39.5t30 31.5t40 19.5h-121l-37 37h-12l123 201h194zM187 917l-136 -223h9l27 -27h18
l10 -10h4l27 -27h20q-16 -20 -26 -44.5t-15 -48.5l-135 -561h7l27 -27h11l10 -10h4l27 -27h214l21 84h40l6 -20h5l27 -27h4l10 -10h4l27 -27h220l-133 553q-7 29 -20.5 57t-34.5 49l-8 7q-5 7 -10 13l-10 12l-23 22v-1q-4 4 -5 6h179l-125 206l-19 19l-6 10l-13 13l-4 6
l-21 21l-8 12h-206zM367 92l-2 7h-150l-20 -84h-122l118 484q6 23 15 44.5t23.5 38t33.5 26.5t45 10h26q27 0 48 -12q13 -16 22 -36t14 -42l123 -513h-135l-13 51zM253 733h-86l71 118h148l73 -118h-120l-18 38l-24 23l-6 14zM275 417l-37 -183h7l27 -27h98l-36 177l-26 25
l-1 8h-32z" />
    <glyph glyph-name="FL00E3h" unicode="&#xe3;" horiz-adv-x="666" 
d="M304 673q2 0 4.5 -0.5t4.5 -0.5h5l-26 25l-13 -24h25zM297 406l33 -161h-78l33 161h12zM257 779l32 -57h119l103 167h-159l-29 -56l-32 56h-119l-101 -167h158zM278 656q-27 0 -48 -10.5t-36 -28t-25 -40t-16 -46.5l-128 -527h179l21 84h132l21 -84h178l-127 527
q-6 24 -16 46.5t-25.5 40t-36 28t-47.5 10.5h-26zM13 -13h-9l132 547q5 22 13.5 43.5t21.5 39.5t30 31.5t40 19.5h-153l-36 37h-13l123 201h140l7 -12h-1l17 -18l17 30h200l-6 -9l38 -36l-117 -193h-115q22 -7 38.5 -21.5t30.5 -32.5h-1l20 -19q20 -20 33 -47t20 -55
l131 -543h-206l-36 37h-7l-13 47h-77l-21 -84h-204zM45 -61h4l27 -27h214l21 84h40l6 -20h5l27 -27h4l10 -10h4l27 -27h220l-133 553q-7 29 -20.5 57t-34.5 49l-8 7q-5 7 -10 13l-10 12l-23 22q-2 1 -2.5 2t-2.5 3h82l122 203l-28 27l2 3l-10 8l9 13l-28 28l3 5h-227
l-11 -20l-9 9l-6 11h-154l-136 -223h9l27 -27h18l10 -10h4l27 -27h52q-16 -20 -26 -44.5t-15 -48.5l-135 -561h7l27 -27h11zM367 92l-2 7h-150l-20 -84h-122l118 484q6 23 15 44.5t23.5 38t33.5 26.5t45 10h26q27 0 48 -12q13 -16 22 -36t14 -42l123 -513h-135l-13 51z
M323 809l2 4l28 -27l34 65h86l-73 -118h-95l-18 33l-22 21l-8 16l-35 -70h-87l71 118h93zM275 417l-37 -183h7l27 -27h98l-36 177l-26 25l-1 8h-32z" />
    <glyph glyph-name="FL00E4h" unicode="&#xe4;" horiz-adv-x="666" 
d="M297 406l33 -161h-78l33 161h12zM103 806q0 -35 23 -59t61 -24t61 24t23 59t-23 59t-61 24t-61 -24t-23 -59zM310 806q0 -35 22.5 -59t60.5 -24t61.5 24t23.5 59t-23.5 59t-61.5 24t-60.5 -24t-22.5 -59zM86 806q0 42 27.5 71t73.5 29q29 0 51.5 -12.5t34.5 -34.5h-1
l25 -23q8 31 33.5 50.5t62.5 19.5q29 0 52 -12.5t35 -34.5h-1l25 -23q28 -28 28 -70t-27 -69.5t-72 -27.5q-44 0 -69 28l-22 22v-1q-9 4 -22 17q-8 -30 -33 -48t-60 -18q-42 0 -70 28l-23 22v-1q-23 13 -35.5 36t-12.5 52zM278 656q-27 0 -48 -10.5t-36 -28t-25 -40
t-16 -46.5l-128 -527h179l21 84h132l21 -84h178l-127 527q-6 24 -16 46.5t-25.5 40t-36 28t-47.5 10.5h-26zM304 673q37 0 62.5 -16.5t44.5 -42.5h-1l20 -19q20 -20 33 -47t20 -55l131 -543h-206l-36 37h-7l-13 47h-77l-21 -84h-204l-37 37h-9l132 547q6 26 17.5 51
t28.5 44.5t41 31.5t55 12h26zM75 806q0 -56 49 -94l2 -2l16 -15l6 -6h1q9 -11 20 -17l12 -11q2 -3 8 -9q-26 -21 -41 -52t-23 -63l-135 -561h7l27 -27h11l10 -10h4l27 -27h214l21 84h40l6 -20h5l27 -27h4l10 -10h4l27 -27h220l-133 553q-7 29 -20.5 57t-34.5 49l-7 6
q-10 15 -21 26l-18 17q-17 20 -35 34t-39 22q2 4 3.5 7.5t3.5 6.5q1 -1 2 -1.5t2 -1.5l4 -3v1v-1q5 -6 13 -10l14 -13v1l3 -3q28 -28 72 -28q49 0 78 29.5t29 75.5q0 45 -31 76l-11 10q-5 10 -17 22l-23 21q-18 25 -42.5 38.5t-52.5 13.5q-35 0 -61 -17t-40 -45l-11 10
q-18 24 -42 38t-52 14q-51 0 -81.5 -32t-30.5 -79zM367 92l-2 7h-150l-20 -84h-122l118 484q6 23 15 44.5t23.5 38t33.5 26.5t45 10h26q27 0 48 -12q13 -16 22 -36t14 -42l123 -513h-135l-13 51zM275 417l-37 -183h7l27 -27h98l-36 177l-26 25l-1 8h-32zM141 776
q0 32 20.5 53.5t55.5 21.5q18 0 32 -7q11 -17 11 -38q0 -30 -20 -51t-53 -21q-24 0 -41 11q-3 7 -4 15t-1 16zM348 776q0 32 20 53.5t55 21.5q19 0 33 -7q11 -17 11 -38q0 -30 -20.5 -51t-53.5 -21q-22 0 -40 10q-3 8 -4 16t-1 16z" />
    <glyph glyph-name="FL00E5h" unicode="&#xe5;" horiz-adv-x="666" 
d="M404 633q-1 3 -4 4zM271 765q-22 8 -23 33q-3 -11 -3 -22q0 -8 1 -16t4 -16q18 -10 40 -10h9q5 0 10 1q-11 3 -17 9zM356 772q8 16 8 34q0 21 -11 38q-14 7 -33 7q-12 0 -22 -3q20 -3 28 -22l20 -20q10 -10 10 -30v-4zM307 417l1 -8l26 -25l36 -177h-98l-27 27h-7l37 183
h32zM393 66l13 -51h135l-123 513q-5 22 -14 42t-22 36q-21 12 -48 12h-26q-26 0 -45 -10t-33.5 -26.5t-23.5 -38t-15 -44.5l-118 -484h122l20 84h150l2 -7zM179 806q0 47 30 79t81 32q26 0 49.5 -12.5t41.5 -34.5l27 -26q5 -5 9 -10.5t7 -10.5l12 -11q30 -30 30 -76
q0 -34 -17 -60t-46 -38q5 -4 8.5 -8l7.5 -9l19 -18q6 -6 11 -12.5l10 -13.5l7 -6q21 -21 34.5 -49t20.5 -57l133 -553h-220l-27 27h-4l-10 10h-4l-27 27h-5l-6 20h-40l-21 -84h-214l-27 27h-4l-10 10h-11l-27 27h-7l135 561q6 25 16.5 49.5t27 45t38.5 34t51 17.5l-6 6
l-24 22q-49 37 -49 95zM190 806q0 -61 47 -88v1l23 -22q8 -8 18 -14.5t21 -9.5h-21q-31 0 -55 -12t-41 -31.5t-28.5 -44.5t-17.5 -51l-132 -547h9l37 -37h204l21 84h77l13 -47h7l36 -37h206l-131 543q-7 28 -20 55t-33 47l-20 19h1q-14 20 -32.5 34.5t-42.5 20.5
q42 2 67 29.5t25 67.5q0 42 -28 70l-24 23h1q-12 22 -35 34.5t-52 12.5q-46 0 -73 -29t-27 -71zM304 656q27 0 47.5 -10.5t36 -28t25.5 -40t16 -46.5l127 -527h-178l-21 84h-132l-21 -84h-179l128 527q6 24 16 46.5t25 40t36 28t48 10.5h26zM207 806q0 35 22.5 59t60.5 24
t61.5 -24t23.5 -59t-23.5 -59t-61.5 -24t-60.5 24t-22.5 59zM285 406l-33 -161h78l-33 161h-12zM259 806q0 -33 29 -33q30 0 30 33q0 32 -30 32q-29 0 -29 -32zM315 747l1 4q-2 0 -2 1l-2 -3z" />
    <glyph glyph-name="FL00E6h" unicode="&#xe6;" horiz-adv-x="958" 
d="M298 406l33 -161h-78l33 161h12zM279 655q-27 0 -48 -10.5t-36.5 -28t-25.5 -40t-16 -46.5l-128 -526h179l21 84h132l21 -84h461v158h-166v89h166v158h-166v88h166v158h-285q-8 0 -17.5 -5t-18 -13.5t-14.5 -19t-6 -20.5v-329h-4l-64 262q-6 24 -16.5 46.5t-25.5 40
t-35.5 28t-47.5 10.5h-26zM305 672q36 0 62 -16t45 -42h-1l20 -20q18 -18 30 -42t20 -49v94q0 13 7.5 26.5t19 24t24 17.5t22.5 7h302v-8l37 -36v-184h-166v-18h129v-8l37 -37v-184h-166v-18h129v-8l37 -37v-184h-484l-37 37h-7l-13 47h-76l-21 -84h-205l-37 37h-9l132 546
q6 26 17.5 51t29 44.5t41.5 31.5t55 12h26zM279 683q-33 0 -59 -12.5t-45 -33.5t-31.5 -47.5t-18.5 -53.5l-135 -560h7l27 -27h11l10 -10h4l27 -27h215l21 84h39l6 -20h5l27 -27h5l10 -10h4l27 -27h496v196l-27 27v4l-10 10v8l-2 2h39v196l-27 27v4l-10 10v8l-2 2h39v196
l-27 27v4l-10 9v8l-27 27v6h-313q-12 0 -26.5 -8t-27 -20t-21.5 -27.5t-9 -30.5v-31q-1 1 -1.5 2t-1.5 2l-9 8q-5 7 -9.5 12.5l-9.5 11.5l-18 17q-24 30 -52.5 47t-63.5 17h-26zM517 230h19v337q0 9 5 18t12.5 16t16 11.5t14.5 4.5h244v-109h-166v-110h6l27 -27h133v-109
h-166v-111h6l27 -27h133v-109h-422l-13 51l-26 26l-2 7h-150l-20 -84h-122l118 483q6 23 15.5 44.5t23.5 38t33.5 26.5t45.5 10h26q25 0 48 -13q13 -16 22 -36t14 -41l65 -270h6zM276 417l-37 -183h7l27 -27h98l-36 177l-26 25l-1 8h-32z" />
    <glyph glyph-name="FL00E7h" unicode="&#xe7;" horiz-adv-x="505" 
d="M221 331q0 61 27.5 96t75.5 35h62v194h-61q-153 0 -223.5 -81t-71.5 -247q0 -97 38.5 -172t110.5 -117v-58h-64v-127h201v150h69v194h-61q-21 0 -40 11t-33 29.5t-22 42.5t-8 50zM403 665l37 -37v-220h-76q-43 0 -66.5 -31t-23.5 -85q0 -18 4 -35.5t12 -32.5q16 -9 34 -9
h78v-8l37 -37v-220h-69v-150h-227l-37 37h-8v161h64v25l-10 11l-13 12v-1q-63 49 -94.5 122t-31.5 161q1 172 76.5 258.5t235.5 86.5h78v-8zM414 684h-89q-166 0 -244 -89t-79 -267q0 -87 33.5 -163t102.5 -133l3 -3l6 -6l4 -4v-10h-64v-183h6l27 -27h8l10 -10h4l27 -27h239
v150h69v232l-27 27v4l-10 10v8l-27 27v6h-89h-8q-2 8 -3 17.5t-1 18.5q0 51 21.5 79.5t60.5 28.5h84v232l-27 27v4l-10 10v8l-27 27v6zM210 331q0 -42 19 -78t49 -53l9 -9q14 -14 31 -22.5t36 -8.5h20v-145h-69v-150h-152v78h64v71l-27 27v5q-36 21 -64 49q-58 84 -58 203
q1 163 69.5 241.5t217.5 78.5h20v-145h-51q-54 0 -84 -38t-30 -104z" />
    <glyph glyph-name="FL00E8h" unicode="&#xe8;" horiz-adv-x="493" 
d="M175 722h171l-108 167h-176zM35 63q0 -11 6 -21.5t14 -18.5t17.5 -13.5t17.5 -5.5h284v158h-165v89h165v158h-165v89h165v158h-284q-8 0 -17.5 -5.5t-17.5 -13.5t-14 -19t-6 -21v-534zM248 906l9 -15h-1l32 -32l123 -191h-20v-3l37 -37v-184h-166v-18h129v-8l37 -37v-184
h-166v-18h129v-8l37 -37v-184h-298q-10 0 -22 7t-23 18l-22 22v-1q-17 10 -31 28.5t-14 38.5v534q0 13 7.5 27t18.5 24.5t23.5 17.5t22.5 7h114l-32 32h-5l-136 201h217zM11 917l151 -223h4l10 -10h-86q-12 0 -26 -8t-27 -20.5t-21.5 -28t-8.5 -30.5v-534q0 -19 13.5 -38.5
t32.5 -33.5l24 -24q12 -12 21 -17l11 -11q12 -12 25.5 -19.5t25.5 -7.5h306v196l-27 27v4l-10 10v8l-2 2h39v196l-27 27v4l-10 10v8l-2 2h39v196l-27 27v1h17l-133 206l-18 18l-7 11l-10 9l-5 10l-21 21l-7 12h-244zM231 371h132v-109h-165v-111h6l27 -27h132v-109h-273
q-7 0 -15 5q-2 4 -2 13v534q0 9 5 18t12 16.5t15.5 12t14.5 4.5h243v-109h-165v-111h6zM107 851h141l77 -118h-138z" />
    <glyph glyph-name="FL00E9h" unicode="&#xe9;" horiz-adv-x="493" 
d="M62 722h170l114 167h-177zM35 63q0 -11 6 -21.5t14 -18.5t17.5 -13.5t17.5 -5.5h284v158h-165v89h165v158h-165v89h165v158h-284q-8 0 -17.5 -5.5t-17.5 -13.5t-14 -19t-6 -21v-534zM377 906l-5 -8l38 -37l-128 -188h109v-8l37 -37v-184h-166v-18h129v-8l37 -37v-184
h-166v-18h129v-8l37 -37v-184h-298q-10 0 -22 7t-23 18l-22 22v-1q-17 10 -31 28.5t-14 38.5v534q0 11 5.5 23t14 22.5t19 18t20.5 10.5l-33 34h-13l129 201h217zM154 917l-144 -223h9l27 -27h2q-17 -14 -29 -33.5t-12 -36.5v-534q0 -19 13.5 -38.5t32.5 -33.5l24 -24
q12 -12 21 -17l11 -11q12 -12 25.5 -19.5t25.5 -7.5h306v196l-27 27v4l-10 10v8l-2 2h39v196l-27 27v4l-10 10v8l-2 2h39v196l-27 27v4l-10 10v8l-27 27v6h-52l101 148l-28 27l2 3l-11 10l7 12l-28 27l4 6h-243zM231 371h132v-109h-165v-111h6l27 -27h132v-109h-273
q-7 0 -15 5q-2 4 -2 13v534q0 9 5 18t12 16.5t15.5 12t14.5 4.5h243v-109h-165v-111h6zM203 851h103l-80 -118h-98z" />
    <glyph glyph-name="FL00EAh" unicode="&#xea;" horiz-adv-x="494" 
d="M224 673h38l-25 24zM204 783l30 -61h159l-102 167h-174l-101 -167h158zM35 63q0 -11 6 -21.5t14 -18.5t17.5 -13.5t17.5 -5.5h285v158h-166v89h166v158h-166v89h166v158h-285q-8 0 -17.5 -5.5t-17.5 -13.5t-14 -19t-6 -21v-534zM301 906l9 -14h-1l33 -33l116 -191h-66v-3
l36 -37v-184h-165v-18h129v-8l36 -37v-184h-165v-18h129v-8l36 -37v-184h-298q-10 0 -22 7t-23 18l-22 22v-1q-17 10 -31 28.5t-14 38.5v534q0 21 17 41.5t34 29.5h-35l-37 37h-13l123 201h194zM100 917l-136 -223h9l27 -27h19l10 -10h3l2 -2q-11 -13 -19 -28t-8 -30v-534
q0 -19 13.5 -38.5t32.5 -33.5l24 -24q12 -12 21 -17l11 -11q12 -12 25.5 -19.5t25.5 -7.5h306v196l-27 27v4l-9 9v9l-2 2h38v196l-27 27v4l-9 9v9l-2 2h38v196l-27 27v1h63l-125 206l-19 19l-6 10l-13 13l-4 6l-21 21l-8 12h-206zM231 371h133v-109h-166v-111h6l27 -27h133
v-109h-274q-7 0 -15 5q-2 4 -2 13v534q0 9 5 18t12 16.5t15.5 12t14.5 4.5h244v-109h-166v-111h6zM167 733h-87l71 118h148l73 -118h-120l-18 38l-24 23l-6 14z" />
    <glyph glyph-name="FL00EBh" unicode="&#xeb;" horiz-adv-x="493" 
d="M255 718q-5 2 -10.5 7l-10.5 10q-14 -48 -62 -62h144q-24 6 -39 24l-22 22v-1zM18 806q0 -35 22.5 -59t60.5 -24t61 24t23 59t-23 59t-61 24t-60.5 -24t-22.5 -59zM224 806q0 -35 22.5 -59t60.5 -24t61 24t23 59t-23 59t-61 24t-60.5 -24t-22.5 -59zM35 63q0 -11 6 -21.5
t14 -18.5t17.5 -13.5t17.5 -5.5h285v158h-166v89h166v158h-166v89h166v158h-285q-8 0 -17.5 -5.5t-17.5 -13.5t-14 -19t-6 -21v-534zM1 806q0 42 27.5 71t72.5 29q29 0 51.5 -12.5t34.5 -34.5h-1l25 -23q8 31 33.5 50.5t62.5 19.5q29 0 52 -12.5t34 -34.5h-1l25 -23
q28 -28 28 -70q0 -34 -18.5 -59.5t-49.5 -33.5h14v-8l37 -37v-184h-165v-18h128v-8l37 -37v-184h-165v-18h128v-8l37 -37v-184h-298q-10 0 -22 7t-23 18l-22 22v-1q-17 10 -31 28.5t-14 38.5v534q0 13 7.5 27t18.5 24.5t23.5 17.5t22.5 7h20q-24 6 -39 24l-22 22v-1
q-23 13 -35.5 36t-12.5 52zM-10 806q0 -58 51 -95l27 -27q1 -3 4 -4q-11 -5 -22.5 -13.5t-21 -20t-15.5 -24t-6 -25.5v-534q0 -19 13.5 -38.5t32.5 -33.5l24 -24q12 -12 21 -17l11 -11q12 -12 25.5 -19.5t25.5 -7.5h306v196l-27 27v4l-10 10v8l-2 2h39v196l-27 27v4l-10 10
v8l-2 2h39v196l-27 27v4l-10 9q25 13 39.5 37.5t14.5 56.5q0 45 -31 76l-12 11q-3 5 -7 10.5t-9 10.5l-24 22q-17 24 -41.5 37.5t-51.5 13.5q-35 0 -61 -17t-40 -45l-11 10q-18 24 -42 38t-52 14q-51 0 -81 -32t-30 -79zM231 371h133v-109h-166v-111h6l27 -27h133v-109h-274
q-7 0 -15 5q-2 4 -2 13v534q0 9 5 18t12 16.5t15.5 12t14.5 4.5h244v-109h-166v-111h6zM56 776q0 32 20 53.5t55 21.5q18 0 32 -7q11 -17 11 -38q0 -30 -20 -51t-53 -21q-22 0 -40 10q-3 8 -4 16t-1 16zM262 776q0 32 20 53.5t55 21.5q18 0 32 -7q11 -17 11 -38
q0 -30 -20 -51t-53 -21q-22 0 -40 10q-3 8 -4 16t-1 16zM274 684h-9q1 1 1 2t1 3q2 -2 3 -2.5t3 -2.5h1z" />
    <glyph glyph-name="FL00ECh" unicode="&#xec;" horiz-adv-x="327" 
d="M93 722h170l-108 167h-175zM35 4h174v652h-174v-652zM165 906l10 -15h-1l32 -32l123 -191h-103v-3l36 -37v-678h-200l-36 37h-8v686h104l-32 32h-5l-136 201h216zM-71 917l151 -223h4l10 -10h-87v-708h6l27 -27h7l10 -10h4l27 -27h212v690l-27 27v1h101l-133 206l-17 16
l-8 13l-13 12l-4 7l-22 22l-7 11h-241zM73 618h125v-603h-125v603zM25 851h140l77 -118h-137z" />
    <glyph glyph-name="FL00EDh" unicode="&#xed;" horiz-adv-x="327" 
d="M-20 722h169l114 167h-176zM35 4h174v652h-174v-652zM295 906l-5 -8l38 -37l-128 -188h26v-8l36 -37v-678h-200l-36 37h-8v681h-20l-37 37h-12l129 201h217zM72 917l-144 -223h9l27 -27h19l10 -10h4l10 -10v-671h6l27 -27h7l10 -10h4l27 -27h212v690l-27 27v4l-9 9v9
l-11 10l116 171l-28 27l2 3l-11 10l7 12l-28 27l4 6h-243zM73 618h125v-603h-125v603zM121 851h102l-80 -118h-97z" />
    <glyph glyph-name="FL00EEh" unicode="&#xee;" horiz-adv-x="328" 
d="M142 673h37l-24 24zM122 783l30 -61h158l-102 167h-173l-101 -167h157zM35 4h174v652h-174v-652zM219 906l9 -14h-1l33 -33l116 -191h-150v-3l37 -37v-678h-201l-36 37h-8v681h-67l-36 37h-13l123 201h194zM18 917l-136 -223h9l27 -27h19l9 -10h4l27 -27h30v-654h6
l27 -27h7l10 -10h4l27 -27h213v690l-27 27v1h146l-125 206l-19 19l-6 10l-13 13l-4 6l-21 21l-8 12h-206zM73 618h125v-603h-125v603zM84 733h-85l70 118h147l73 -118h-119l-18 38l-24 23l-6 14z" />
    </font>
</defs>
</svg>
